{
.appVersion = "1176";
copyright = "Copyright 2017 The Barlow Project Authors (https://github.com/jpt/barlow)";
customParameters = (
{
name = "Use Typo Metrics";
value = 1;
},
{
name = licenseURL;
value = "http://scripts.sil.org/OFL";
},
{
name = license;
value = "This Font Software is licensed under the SIL Open Font License, Version 1.1. This license is available with a FAQ at: http://scripts.sil.org/OFL";
},
{
name = fsType;
value = (
);
},
{
name = vendorID;
value = TRBY;
},
{
name = Axes;
value = (
{
Name = Weight;
Tag = wght;
},
{
Name = Width;
Tag = wdth;
}
);
},
{
name = "Disable Last Change";
value = 1;
},
{
name = "Use Line Breaks";
value = 1;
}
);
date = "2018-11-07 02:21:11 +0000";
designer = "Jeremy Tribby";
designerURL = "https://tribby.com/";
familyName = Barlow;
featurePrefixes = (
{
automatic = 1;
code = "languagesystem DFLT dflt;
languagesystem latn dflt;
languagesystem latn CRT;
languagesystem latn TAT;
languagesystem latn KAZ;
languagesystem latn CAT;
languagesystem latn TRK;
languagesystem latn AZE;
";
name = Languagesystems;
}
);
features = (
{
automatic = 1;
code = "feature ccmp;
feature locl;
feature sups;
feature numr;
feature dnom;
feature frac;
feature ordn;
feature pnum;
feature tnum;
feature c2sc;
feature smcp;
";
name = aalt;
},
{
automatic = 1;
code = "lookup ccmp_Other_1 {
	@CombiningTopAccents = [acutecomb brevecomb caroncomb circumflexcomb commaabovecomb commaturnedabovecomb dieresiscomb dotaccentcomb gravecomb hookabovecomb hungarumlautcomb macroncomb ringcomb tildecomb];
	@CombiningNonTopAccents = [cedillacomb dotbelowcomb ogonekcomb horncomb slashlongcomb slashshortcomb strokelongcomb strokeshortcomb];
	sub [i j]' @CombiningTopAccents by [idotless jdotless];
	sub [i j]' @CombiningNonTopAccents @CombiningTopAccents by [idotless jdotless];
} ccmp_Other_1;

lookup ccmp_latn_1 {
	lookupflag 0;
	sub brevecomb acutecomb by brevecomb_acutecomb;
	sub brevecomb gravecomb by brevecomb_gravecomb;

glyphs = (
{
glyphname = A;
layers = (
{
anchors = (
{
name = bottom;
position = "{281, 0}";
},
{
name = ogonek;
position = "{506, 10}";
},
{
name = top;
position = "{280, 700}";
}
);
hints = (
{
horizontal = 1;
origin = "{1, 0}";
target = "{0, 7}";
type = Stem;
}
);
layerId = "262880E7-CFE1-4BDA-902E-E24798F3240A";
paths = (
{
closed = 1;
nodes = (
"60 0 LINE",
"283 680 LINE",
"277 680 LINE",
"502 0 LINE",
"524 0 LINE",
"291 700 LINE",
"269 700 LINE",
"38 0 LINE"
);
},
{
closed = 1;
nodes = (
"457 155 LINE",
"457 176 LINE",
"106 176 LINE",
"106 155 LINE"
);
}
);
width = 562;
},
{
anchors = (
{
name = bottom;
position = "{266, 0}";
},
{
name = ogonek;
position = "{478, 10}";
},
{
name = top;
position = "{266, 700}";
}
);
layerId = "4E2227F3-52E4-4048-A8EE-327B486EF0A4";
paths = (
{
closed = 1;
nodes = (
"200 0 LINE",
"271 520 LINE",
"251 520 LINE",
"327 0 LINE",
"519 0 LINE",
"371 700 LINE",
"161 700 LINE",
"12 0 LINE"
);
},
{
closed = 1;
nodes = (
"399 95 LINE",
"399 239 LINE",
"129 239 LINE",
"129 95 LINE"
);
}
);
width = 531;
},
{
anchors = (
{
name = bottom;
position = "{357, 0}";
},
{
name = ogonek;
position = "{643, 10}";
},
{
name = top;
position = "{355, 700}";
}
);
layerId = "FFFA8D72-12AC-4CE0-B2CA-57A29829F4DA";
paths = (
{
closed = 1;
nodes = (
"220 0 LINE",
"367 520 LINE",
"344 520 LINE",
"494 0 LINE",
"696 0 LINE",
"476 700 LINE",
"238 700 LINE",
"18 0 LINE"
);
},
{
closed = 1;
nodes = (
"523 95 LINE",
"523 239 LINE",
"188 239 LINE",
"188 95 LINE"
);
}
);
width = 714;
},
{
anchors = (
{
name = bottom;
position = "{180, 0}";
},
{
name = ogonek;
position = "{323, 10}";
},
{
name = top;
position = "{179, 700}";
}
);
layerId = "DCBE1F7B-116A-43E0-B7B4-8657BA77D8B5";
paths = (
{
closed = 1;
nodes = (
"32 0 LINE",
"181 671 LINE",
"177 671 LINE",
"327 0 LINE",
"349 0 LINE",
"190 700 LINE",
"167 700 LINE",
"10 0 LINE"
);
},
{
closed = 1;
nodes = (
"304 155 LINE",
"304 176 LINE",
"58 176 LINE",
"58 155 LINE"
);
}
);
width = 359;
}
);
leftKerningGroup = A;
rightKerningGroup = A;
unicode = 0041;
},
{
glyphname = AE;
layers = (
{
hints = (
{
origin = "{0, 10}";
target = "{0, 0}";
type = Stem;
},
{
origin = "{0, 2}";
target = "{0, 5}";
type = Stem;
},
{
origin = "{0, 9}";
target = "{0, 6}";
type = Stem;
},
{
horizontal = 1;
place = "{155, 21}";
type = Stem;
},
{
horizontal = 1;
place = "{340, 21}";
type = Stem;
},
{
horizontal = 1;
origin = "{0, 3}";
target = "{0, 4}";
type = Stem;
},
{
origin = "{0, 2}";
target = "{0, 5}";
type = Stem;
},
{
horizontal = 1;
origin = "{0, 8}";
target = "{0, 7}";
type = Stem;
}
);
layerId = "262880E7-CFE1-4BDA-902E-E24798F3240A";
paths = (
{
closed = 1;
nodes = (
"63 0 LINE",
"431 684 LINE",
"431 0 LINE",
"822 0 LINE",
"822 21 LINE",
"453 21 LINE",
"453 679 LINE",
"822 679 LINE",
"822 700 LINE",
"417 700 LINE",
"38 0 LINE"
);
},
{
closed = 1;
nodes = (
"444 155 LINE",
"444 176 LINE",
"143 176 LINE",
"138 155 LINE"
);
},
{
closed = 1;
nodes = (
"713 340 LINE",
"713 361 LINE",
"442 361 LINE",
"442 340 LINE"
);
}
);
width = 894;
},
{
layerId = "FFFA8D72-12AC-4CE0-B2CA-57A29829F4DA";
paths = (
{
closed = 1;
nodes = (
"225 0 LINE",
"452 483 LINE",
"452 0 LINE",
"962 0 LINE",
"962 161 LINE",
"640 161 LINE",
"640 539 LINE",
"962 539 LINE",
"962 700 LINE",
"362 700 LINE",
"18 0 LINE"
);
},
{
closed = 1;
nodes = (
"487 95 LINE",
"505 239 LINE",
"170 239 LINE",
"132 95 LINE"
);
},
{
closed = 1;
nodes = (
"848 275 LINE",
"848 435 LINE",
"528 435 LINE",
"528 275 LINE"
);
}
);
width = 986;
},
{
layerId = "DCBE1F7B-116A-43E0-B7B4-8657BA77D8B5";
paths = (
{
closed = 1;
nodes = (
"32 0 LINE",
"328 660 LINE",
"327 0 LINE",
"610 0 LINE",
"610 21 LINE",
"350 21 LINE",
"350 679 LINE",
"610 679 LINE",
"610 700 LINE",
"326 700 LINE",
"10 0 LINE"
);
},
{
closed = 1;
nodes = (
"339 155 LINE",
"344 176 LINE",
"98 176 LINE",
"93 155 LINE"
);
},
{
closed = 1;
nodes = (
"527 340 LINE",
"527 361 LINE",
"339 361 LINE",
"339 340 LINE"
);
}
);
width = 660;
},
{
layerId = "4E2227F3-52E4-4048-A8EE-327B486EF0A4";
paths = (
{
closed = 1;
nodes = (
"210 0 LINE",
"375 468 LINE",
"375 0 LINE",
"775 0 LINE",
"775 161 LINE",
"563 161 LINE",
"563 539 LINE",
"775 539 LINE",
"775 700 LINE",
"293 700 LINE",
"12 0 LINE"
);
},
{
closed = 1;
nodes = (
"462 95 LINE",
"462 239 LINE",
"192 239 LINE",
"192 95 LINE"
);
},
{
closed = 1;
nodes = (
"683 270 LINE",
"683 431 LINE",
"451 431 LINE",
"451 270 LINE"
);
}
);
width = 793;
}
);
leftKerningGroup = A;
leftMetricsKey = "=A";
rightMetricsKey = "=E";
unicode = 00C6;
},
{
glyphname = B;
layers = (
{
hints = (
{
horizontal = 1;
origin = "{1, 0}";
target = "{0, 7}";
type = Stem;
},
{
horizontal = 1;
place = "{700, -21}";
type = Stem;
},
{
origin = "{0, 7}";
target = "{1, 0}";
type = Stem;
},
{
horizontal = 1;
place = "{0, 22}";
type = Stem;
},
{
origin = "{1, 4}";
target = "{0, 3}";
type = Stem;
}
);
layerId = "262880E7-CFE1-4BDA-902E-E24798F3240A";
paths = (
{
closed = 1;
nodes = (
"355 0 LINE SMOOTH",
"469 0 OFFCURVE",
"544 74 OFFCURVE",
"544 186 CURVE SMOOTH",
"544 298 OFFCURVE",
"467 373 OFFCURVE",
"350 373 CURVE SMOOTH",
"117 373 LINE",
"117 0 LINE"
);
},
{
closed = 1;
nodes = (
"139 352 LINE",
"349 352 LINE SMOOTH",
"453 352 OFFCURVE",
"522 286 OFFCURVE",
"522 186 CURVE SMOOTH",
"522 88 OFFCURVE",
"455 22 OFFCURVE",
"355 22 CURVE SMOOTH",
"139 22 LINE"
);
},
{
closed = 1;
nodes = (
"350 352 LINE SMOOTH",
"462 352 OFFCURVE",
"537 420 OFFCURVE",
"537 523 CURVE",
"537 629 OFFCURVE",
"462 700 OFFCURVE",
"349 700 CURVE SMOOTH",
"117 700 LINE",
"117 352 LINE"
);
},
{
closed = 1;
nodes = (
"139 679 LINE",
"349 679 LINE SMOOTH",
"449 679 OFFCURVE",
"515 617 OFFCURVE",
"515 523 CURVE SMOOTH",
"515 433 OFFCURVE",
"449 373 OFFCURVE",
"349 373 CURVE SMOOTH",
"139 373 LINE"
);
}
);
width = 632;
},
{
layerId = "4E2227F3-52E4-4048-A8EE-327B486EF0A4";
paths = (
{
closed = 1;
nodes = (
"252 0 LINE SMOOTH",
"371 0 OFFCURVE",
"470 65 OFFCURVE",
"468 201 CURVE SMOOTH",
"465 368 OFFCURVE",
"320 418 OFFCURVE",
"189 418 CURVE",
"26 418 LINE",
"26 0 LINE"
);
},
{
closed = 1;
nodes = (
"214 293 LINE",
"238 293 LINE SMOOTH",
"263 293 OFFCURVE",
"280 266 OFFCURVE",
"280 225 CURVE SMOOTH",
"280 182 OFFCURVE",
"262 161 OFFCURVE",
"237 161 CURVE SMOOTH",
"214 161 LINE"
);
},
{
closed = 1;
nodes = (
"191 319 LINE SMOOTH",
"366 319 OFFCURVE",
"454 369 OFFCURVE",
"454 503 CURVE SMOOTH",
"454 640 OFFCURVE",
"361 700 OFFCURVE",
"222 700 CURVE",
"26 700 LINE",
"26 319 LINE"
);
},
{
closed = 1;
nodes = (
"214 539 LINE",
"225 539 LINE",
"255 539 OFFCURVE",
"270 520 OFFCURVE",
"270 483 CURVE SMOOTH",
"270 447 OFFCURVE",
"255 427 OFFCURVE",
"225 427 CURVE",
"214 427 LINE"
);
}
);
width = 484;
},
{
layerId = "FFFA8D72-12AC-4CE0-B2CA-57A29829F4DA";
paths = (
{
closed = 1;
nodes = (
"323 0 LINE SMOOTH",
"465 0 OFFCURVE",
"582 55 OFFCURVE",
"582 200 CURVE SMOOTH",
"582 342 OFFCURVE",
"478 403 OFFCURVE",
"236 403 CURVE",
"39 401 LINE",
"39 0 LINE"
);
},
{
closed = 1;
nodes = (
"227 276 LINE",
"324 276 LINE SMOOTH",
"370 276 OFFCURVE",
"394 257 OFFCURVE",
"394 220 CURVE SMOOTH",
"394 181 OFFCURVE",
"370 161 OFFCURVE",
"323 161 CURVE SMOOTH",
"227 161 LINE"
);
},
{
closed = 1;
nodes = (
"238 323 LINE SMOOTH",
"453 321 OFFCURVE",
"571 360 OFFCURVE",
"571 502 CURVE SMOOTH",
"571 650 OFFCURVE",
"477 700 OFFCURVE",
"314 700 CURVE",
"39 700 LINE",
"39 325 LINE"
);
},
{
closed = 1;
nodes = (
"227 539 LINE",
"314 539 LINE",
"362 539 OFFCURVE",
"387 520 OFFCURVE",
"387 484 CURVE SMOOTH",
"387 448 OFFCURVE",
"362 429 OFFCURVE",
"314 429 CURVE",
"227 429 LINE"
);
}
);
width = 615;
},
{
layerId = "DCBE1F7B-116A-43E0-B7B4-8657BA77D8B5";
paths = (
{
closed = 1;
nodes = (
"228 0 LINE SMOOTH",
"331 0 OFFCURVE",
"392 69 OFFCURVE",
"392 186 CURVE SMOOTH",
"392 304 OFFCURVE",
"331 373 OFFCURVE",
"226 373 CURVE SMOOTH",
"91 373 LINE",
"91 0 LINE"
);
},
{
closed = 1;
nodes = (
"113 352 LINE",
"227 352 LINE SMOOTH",
"317 352 OFFCURVE",
"370 291 OFFCURVE",
"370 186 CURVE SMOOTH",
"370 83 OFFCURVE",
"317 22 OFFCURVE",
"227 22 CURVE SMOOTH",
"113 22 LINE"
);
},
{
closed = 1;
nodes = (
"226 352 LINE SMOOTH",
"330 352 OFFCURVE",
"391 415 OFFCURVE",
"391 523 CURVE SMOOTH",
"391 635 OFFCURVE",
"330 700 OFFCURVE",
"227 700 CURVE SMOOTH",
"91 700 LINE",
"91 352 LINE"
);
},
{
closed = 1;
nodes = (
"113 679 LINE",
"227 679 LINE SMOOTH",
"316 679 OFFCURVE",
"369 621 OFFCURVE",
"369 523 CURVE SMOOTH",
"369 429 OFFCURVE",
"316 373 OFFCURVE",
"227 373 CURVE SMOOTH",
"113 373 LINE"
);
}
);
width = 434;
},
{
associatedMasterId = "FFFA8D72-12AC-4CE0-B2CA-57A29829F4DA";
layerId = "D7C9BB07-D00A-46F1-A35F-FF4898574ABB";
name = "May 2 17, 02:09";
paths = (
{
closed = 1;
nodes = (
"227 539 LINE",
"287 539 LINE",
"332 539 OFFCURVE",
"360 516 OFFCURVE",
"360 484 CURVE SMOOTH",
"360 451 OFFCURVE",
"330 429 OFFCURVE",
"287 429 CURVE",
"227 429 LINE"
);
},
{
closed = 1;
nodes = (
"241 323 LINE SMOOTH",
"426 321 OFFCURVE",
"544 360 OFFCURVE",
"544 502 CURVE SMOOTH",
"544 650 OFFCURVE",
"450 700 OFFCURVE",
"287 700 CURVE",
"39 700 LINE",
"39 325 LINE"
);
},
{
closed = 1;
nodes = (
"227 276 LINE",
"297 276 LINE SMOOTH",
"336 276 OFFCURVE",
"367 253 OFFCURVE",
"367 220 CURVE SMOOTH",
"367 189 OFFCURVE",
"340 161 OFFCURVE",
"296 161 CURVE SMOOTH",
"227 161 LINE"
);
},
{
closed = 1;
nodes = (
"296 0 LINE SMOOTH",
"438 0 OFFCURVE",
"555 55 OFFCURVE",
"555 200 CURVE SMOOTH",
"555 376 OFFCURVE",
"377 403 OFFCURVE",
"239 403 CURVE",
"39 401 LINE",
"39 0 LINE"
);
}
);
width = 582;
}
);
leftKerningGroup = H;
rightKerningGroup = B;
unicode = 0042;
},
{
glyphname = C;
layers = (
{
anchors = (
{
name = bottom;
position = "{272, -9}";
},
{
name = top;
position = "{308, 700}";
}
);
hints = (
{
origin = "{0, 27}";
target = "{0, 12}";
type = Stem;
},
{
origin = "{0, 5}";
target = "{0, 2}";
type = Stem;
},
{
horizontal = 1;
origin = "{0, 31}";
target = "{0, 8}";
type = Stem;
},
{
horizontal = 1;
origin = "{0, 24}";
target = "{0, 15}";
type = Stem;
}
);
layerId = "262880E7-CFE1-4BDA-902E-E24798F3240A";
paths = (
{
closed = 1;
nodes = (
"438 -9 OFFCURVE",
"525 74 OFFCURVE",
"525 198 CURVE SMOOTH",
"525 207 LINE",
"503 208 LINE",
"503 196 LINE SMOOTH",
"503 86 OFFCURVE",
"425 12 OFFCURVE",
"308 12 CURVE SMOOTH",
"190 12 OFFCURVE",
"112 86 OFFCURVE",
"112 196 CURVE SMOOTH",
"112 504 LINE SMOOTH",
"112 614 OFFCURVE",
"190 687 OFFCURVE",
"308 687 CURVE SMOOTH",
"425 687 OFFCURVE",
"503 614 OFFCURVE",
"503 504 CURVE SMOOTH",
"503 491 LINE",
"525 492 LINE",
"525 503 LINE SMOOTH",
"525 626 OFFCURVE",
"438 708 OFFCURVE",
"308 708 CURVE SMOOTH",
"177 708 OFFCURVE",
"90 626 OFFCURVE",
"90 503 CURVE SMOOTH",
"90 198 LINE SMOOTH",
"90 74 OFFCURVE",
"177 -9 OFFCURVE",
"308 -9 CURVE SMOOTH"
);
}
);
width = 606;
},
{
anchors = (
{
name = bottom;
position = "{239, -8}";
},
{
name = top;
position = "{239, 700}";
}
);
layerId = "4E2227F3-52E4-4048-A8EE-327B486EF0A4";
paths = (
{
closed = 1;
nodes = (
"370 -8 OFFCURVE",
"458 75 OFFCURVE",
"458 205 CURVE SMOOTH",
"458 224 LINE",
"270 231 LINE",
"270 189 LINE SMOOTH",
"270 167 OFFCURVE",
"258 153 OFFCURVE",
"239 153 CURVE SMOOTH",
"220 153 OFFCURVE",
"208 167 OFFCURVE",
"208 189 CURVE SMOOTH",
"208 510 LINE SMOOTH",
"208 532 OFFCURVE",
"220 547 OFFCURVE",
"239 547 CURVE SMOOTH",
"258 547 OFFCURVE",
"270 532 OFFCURVE",
"270 510 CURVE SMOOTH",
"270 470 LINE",
"458 477 LINE",
"458 497 LINE SMOOTH",
"458 627 OFFCURVE",
"370 708 OFFCURVE",
"239 708 CURVE SMOOTH",
"107 708 OFFCURVE",
"20 627 OFFCURVE",
"20 497 CURVE SMOOTH",
"20 205 LINE SMOOTH",
"20 75 OFFCURVE",
"107 -8 OFFCURVE",
"239 -8 CURVE SMOOTH"
);
}
);
width = 476;
},
{
anchors = (
{
name = bottom;
position = "{286, -8}";
},
{
name = top;
position = "{306, 700}";
}
);
layerId = "FFFA8D72-12AC-4CE0-B2CA-57A29829F4DA";
paths = (
{
closed = 1;
nodes = (
"472 -8 OFFCURVE",
"582 89 OFFCURVE",
"582 235 CURVE SMOOTH",
"582 244 LINE",
"394 254 LINE",
"394 242 LINE SMOOTH",
"394 189 OFFCURVE",
"359 153 OFFCURVE",
"306 153 CURVE SMOOTH",
"253 153 OFFCURVE",
"218 189 OFFCURVE",
"218 242 CURVE SMOOTH",
"218 457 LINE SMOOTH",
"218 511 OFFCURVE",
"253 547 OFFCURVE",
"306 547 CURVE SMOOTH",
"359 547 OFFCURVE",
"394 511 OFFCURVE",
"394 457 CURVE SMOOTH",
"394 445 LINE",
"582 457 LINE",
"582 467 LINE SMOOTH",
"582 612 OFFCURVE",
"472 708 OFFCURVE",
"306 708 CURVE SMOOTH",
"140 708 OFFCURVE",
"30 606 OFFCURVE",
"30 452 CURVE SMOOTH",
"30 250 LINE SMOOTH",
"30 95 OFFCURVE",
"140 -8 OFFCURVE",
"306 -8 CURVE SMOOTH"
);
}
);
width = 609;
},
{
anchors = (
{
name = bottom;
position = "{219, -8}";
},
{
name = top;
position = "{219, 700}";
}
);
layerId = "DCBE1F7B-116A-43E0-B7B4-8657BA77D8B5";
paths = (
{
closed = 1;
nodes = (
"310 -8 OFFCURVE",
"370 54 OFFCURVE",
"370 148 CURVE SMOOTH",
"370 177 LINE",
"347 178 LINE",
"347 147 LINE SMOOTH",
"347 67 OFFCURVE",
"296 13 OFFCURVE",
"219 13 CURVE SMOOTH",
"143 13 OFFCURVE",
"92 67 OFFCURVE",
"92 147 CURVE SMOOTH",
"92 554 LINE SMOOTH",
"92 634 OFFCURVE",
"143 687 OFFCURVE",
"219 687 CURVE SMOOTH",
"296 687 OFFCURVE",
"347 634 OFFCURVE",
"347 554 CURVE SMOOTH",
"347 521 LINE",
"370 522 LINE",
"370 553 LINE SMOOTH",
"370 647 OFFCURVE",
"310 708 OFFCURVE",
"219 708 CURVE SMOOTH",
"130 708 OFFCURVE",
"70 647 OFFCURVE",
"70 553 CURVE SMOOTH",
"70 148 LINE SMOOTH",
"70 54 OFFCURVE",
"130 -8 OFFCURVE",
"219 -8 CURVE SMOOTH"
);
}
);
width = 433;
}
);
leftKerningGroup = O;
rightKerningGroup = O;
unicode = 0043;
},
{
glyphname = D;
layers = (
{
anchors = (
{
name = top;
position = "{318, 700}";
}
);
hints = (
{
horizontal = 1;
origin = "{0, 7}";
target = "{1, 1}";
type = Stem;
},
{
origin = "{0, 8}";
target = "{1, 0}";
type = Stem;
},
{
horizontal = 1;
origin = "{0, 9}";
target = "{1, 9}";
type = Stem;
},
{
origin = "{1, 5}";
target = "{0, 3}";
type = Stem;
}
);
layerId = "262880E7-CFE1-4BDA-902E-E24798F3240A";
paths = (
{
closed = 1;
nodes = (
"352 0 LINE SMOOTH",
"471 0 OFFCURVE",
"544 68 OFFCURVE",
"544 180 CURVE SMOOTH",
"544 520 LINE SMOOTH",
"544 632 OFFCURVE",
"471 700 OFFCURVE",
"352 700 CURVE SMOOTH",
"117 700 LINE",
"117 0 LINE"
);
},
{
closed = 1;
nodes = (
"139 679 LINE",
"354 679 LINE SMOOTH",
"458 679 OFFCURVE",
"522 619 OFFCURVE",
"522 520 CURVE SMOOTH",
"522 179 LINE SMOOTH",
"522 81 OFFCURVE",
"458 21 OFFCURVE",
"354 21 CURVE SMOOTH",
"139 21 LINE"
);
}
);
width = 618;
},
{
anchors = (
{
name = top;
position = "{234, 700}";
}
);
layerId = "4E2227F3-52E4-4048-A8EE-327B486EF0A4";
paths = (
{
closed = 1;
nodes = (
"238 0 LINE SMOOTH",
"372 0 OFFCURVE",
"461 80 OFFCURVE",
"461 200 CURVE SMOOTH",
"461 500 LINE SMOOTH",
"461 620 OFFCURVE",
"372 700 OFFCURVE",
"238 700 CURVE SMOOTH",
"26 700 LINE",
"26 0 LINE"
);
},
{
closed = 1;
nodes = (
"214 539 LINE",
"233 539 LINE SMOOTH",
"257 539 OFFCURVE",
"273 519 OFFCURVE",
"273 488 CURVE",
"273 213 LINE",
"271 183 OFFCURVE",
"255 163 OFFCURVE",
"234 162 CURVE SMOOTH",
"214 161 LINE"
);
}
);
width = 483;
},
{
anchors = (
{
name = top;
position = "{293, 700}";
}
);
layerId = "FFFA8D72-12AC-4CE0-B2CA-57A29829F4DA";
paths = (
{
closed = 1;
nodes = (
"311 0 LINE SMOOTH",
"475 0 OFFCURVE",
"585 90 OFFCURVE",
"585 225 CURVE SMOOTH",
"585 475 LINE SMOOTH",
"585 610 OFFCURVE",
"475 700 OFFCURVE",
"311 700 CURVE SMOOTH",
"39 700 LINE",
"39 0 LINE"
);
},
{
closed = 1;
nodes = (
"227 539 LINE",
"317 539 LINE SMOOTH",
"365 539 OFFCURVE",
"397 501 OFFCURVE",
"397 443 CURVE",
"397 257 LINE",
"395 199 OFFCURVE",
"363 161 OFFCURVE",
"318 161 CURVE SMOOTH",
"227 161 LINE"
);
}
);
width = 618;
},
{
anchors = (
{
name = top;
position = "{228, 700}";
}
);
layerId = "DCBE1F7B-116A-43E0-B7B4-8657BA77D8B5";
paths = (
{
closed = 1;
nodes = (
"235 0 LINE SMOOTH",
"325 0 OFFCURVE",
"381 68 OFFCURVE",
"381 180 CURVE SMOOTH",
"381 520 LINE SMOOTH",
"381 632 OFFCURVE",
"325 700 OFFCURVE",
"235 700 CURVE SMOOTH",
"91 700 LINE",
"91 0 LINE"
);
},
{
closed = 1;
nodes = (
"113 679 LINE",
"236 679 LINE SMOOTH",
"312 679 OFFCURVE",
"358 619 OFFCURVE",
"358 520 CURVE SMOOTH",
"358 179 LINE SMOOTH",
"358 81 OFFCURVE",
"311 21 OFFCURVE",
"236 21 CURVE SMOOTH",
"113 21 LINE"
);
}
);
width = 458;
}
);
leftKerningGroup = H;
rightKerningGroup = B;
unicode = 0044;
},
{
glyphname = Eth;
layers = (
{
components = (
{
name = D;
transform = "{1, 0, 0, 1, 75, 0}";
}
);
layerId = "262880E7-CFE1-4BDA-902E-E24798F3240A";
paths = (
{
closed = 1;
nodes = (
"372 356 LINE",
"372 377 LINE",
"117 377 LINE",
"117 356 LINE"
);
}
);
width = 693;
},
{
components = (
{
name = D;
transform = "{1, 0, 0, 1, 42, 0}";
}
);
layerId = "FFFA8D72-12AC-4CE0-B2CA-57A29829F4DA";
paths = (
{
closed = 1;
nodes = (
"341 296 LINE",
"341 421 LINE",
"39 421 LINE",
"39 296 LINE"
);
}
);
width = 660;
},
{
components = (
{
name = D;
transform = "{1, 0, 0, 1, 52, 0}";
}
);
layerId = "DCBE1F7B-116A-43E0-B7B4-8657BA77D8B5";
paths = (
{
closed = 1;
nodes = (
"279 355 LINE",
"279 376 LINE",
"91 376 LINE",
"91 355 LINE"
);
}
);
width = 510;
},
{
components = (
{
name = D;
transform = "{1, 0, 0, 1, 22, 0}";
}
);
layerId = "4E2227F3-52E4-4048-A8EE-327B486EF0A4";
paths = (
{
closed = 1;
nodes = (
"267 314 LINE",
"267 419 LINE",
"26 419 LINE",
"26 314 LINE"
);
}
);
width = 505;
}
);
leftMetricsKey = "=D";
rightKerningGroup = B;
rightMetricsKey = "=D";
unicode = 00D0;
},
{
glyphname = E;
layers = (
{
anchors = (
{
name = bottom;
position = "{330, 0}";
},
{
name = ogonek;
position = "{558, 10}";
},
{
name = top;
position = "{327, 700}";
},
{
name = topleft;
position = "{20, 700}";
}
);
hints = (
{
horizontal = 1;
origin = "{1, 0}";
target = "{1, 1}";
type = Stem;
},
{
horizontal = 1;
origin = "{0, 0}";
target = "{0, 1}";
type = Stem;
},
{
origin = "{0, 7}";
target = "{0, 2}";
type = Stem;
},
{
horizontal = 1;
origin = "{0, 5}";
target = "{0, 4}";
type = Stem;
}
);
layerId = "262880E7-CFE1-4BDA-902E-E24798F3240A";
paths = (
{
closed = 1;
nodes = (
"548 0 LINE",
"548 21 LINE",
"139 21 LINE",
"139 679 LINE",
"548 679 LINE",
"548 700 LINE",
"117 700 LINE",
"117 0 LINE"
);
},
{
closed = 1;
nodes = (
"439 340 LINE",
"439 361 LINE",
"128 361 LINE",
"128 340 LINE"
);
}
);
width = 620;
},
{
anchors = (
{
name = bottom;
position = "{218, 0}";
},
{
name = ogonek;
position = "{400, 10}";
},
{
name = top;
position = "{227, 700}";
},
{
name = topleft;
position = "{20, 700}";
}
);
layerId = "4E2227F3-52E4-4048-A8EE-327B486EF0A4";
paths = (
{
closed = 1;
nodes = (
"426 0 LINE",
"426 161 LINE",
"214 161 LINE",
"214 539 LINE",
"426 539 LINE",
"426 700 LINE",
"26 700 LINE",
"26 0 LINE"
);
},
{
closed = 1;
nodes = (
"334 270 LINE",
"334 431 LINE",
"102 431 LINE",
"102 270 LINE"
);
}
);
width = 444;
},
{
anchors = (
{
name = bottom;
position = "{300, 0}";
},
{
name = ogonek;
position = "{513, 10}";
},
{
name = top;
position = "{291, 700}";
},
{
name = topleft;
position = "{20, 700}";
}
);
layerId = "FFFA8D72-12AC-4CE0-B2CA-57A29829F4DA";
paths = (
{
closed = 1;
nodes = (
"546 0 LINE",
"546 161 LINE",
"227 161 LINE",
"227 539 LINE",
"546 539 LINE",
"546 700 LINE",
"39 700 LINE",
"39 0 LINE"
);
},
{
closed = 1;
nodes = (
"432 275 LINE",
"432 435 LINE",
"115 435 LINE",
"115 275 LINE"
);
}
);
width = 570;
},
{
anchors = (
{
name = bottom;
position = "{230, 0}";
},
{
name = ogonek;
position = "{381, 10}";
},
{
name = top;
position = "{232, 700}";
},
{
name = topleft;
position = "{20, 700}";
}
);
layerId = "DCBE1F7B-116A-43E0-B7B4-8657BA77D8B5";
paths = (
{
closed = 1;
nodes = (
"373 0 LINE",
"373 21 LINE",
"113 21 LINE",
"113 679 LINE",
"373 679 LINE",
"373 700 LINE",
"91 700 LINE",
"91 0 LINE"
);
},
{
closed = 1;
nodes = (
"290 340 LINE",
"290 361 LINE",
"102 361 LINE",
"102 340 LINE"
);
}
);
width = 423;
}
);
leftKerningGroup = H;
unicode = 0045;
},
{
glyphname = F;
layers = (
{
hints = (
{
horizontal = 1;
origin = "{0, 3}";
target = "{0, 2}";
type = Stem;
},
{
horizontal = 1;
origin = "{1, 0}";
target = "{1, 1}";
type = Stem;
},
{
origin = "{0, 5}";
target = "{0, 0}";
type = Stem;
}
);
layerId = "262880E7-CFE1-4BDA-902E-E24798F3240A";
paths = (
{
closed = 1;
nodes = (
"139 0 LINE",
"139 679 LINE",
"547 679 LINE",
"547 700 LINE",
"117 700 LINE",
"117 0 LINE"
);
},
{
closed = 1;
nodes = (
"438 340 LINE",
"438 361 LINE",
"128 361 LINE",
"128 340 LINE"
);
}
);
width = 574;
},
{
layerId = "4E2227F3-52E4-4048-A8EE-327B486EF0A4";
paths = (
{
closed = 1;
nodes = (
"214 0 LINE",
"214 539 LINE",
"426 539 LINE",
"426 700 LINE",
"26 700 LINE",
"26 0 LINE"
);
},
{
closed = 1;
nodes = (
"334 270 LINE",
"334 431 LINE",
"102 431 LINE",
"102 270 LINE"
);
}
);
width = 432;
},
{
layerId = "FFFA8D72-12AC-4CE0-B2CA-57A29829F4DA";
paths = (
{
closed = 1;
nodes = (
"227 0 LINE",
"227 539 LINE",
"545 539 LINE",
"545 700 LINE",
"39 700 LINE",
"39 0 LINE"
);
},
{
closed = 1;
nodes = (
"432 275 LINE",
"432 435 LINE",
"115 435 LINE",
"115 275 LINE"
);
}
);
width = 554;
},
{
layerId = "DCBE1F7B-116A-43E0-B7B4-8657BA77D8B5";
paths = (
{
closed = 1;
nodes = (
"113 0 LINE",
"113 679 LINE",
"371 679 LINE",
"371 700 LINE",
"91 700 LINE",
"91 0 LINE"
);
},
{
closed = 1;
nodes = (
"289 340 LINE",
"289 361 LINE",
"102 361 LINE",
"102 340 LINE"
);
}
);
width = 392;
}
);
leftKerningGroup = H;
rightKerningGroup = F;
unicode = 0046;
},
{
color = 3;
glyphname = G;
layers = (
{
anchors = (
{
name = bottom;
position = "{218, -8}";
},
{
name = top;
position = "{219, 700}";
}
);
layerId = "DCBE1F7B-116A-43E0-B7B4-8657BA77D8B5";
paths = (
{
closed = 1;
nodes = (
"309 -8 OFFCURVE",
"369 52 OFFCURVE",
"369 144 CURVE SMOOTH",
"369 332 LINE",
"226 332 LINE",
"226 311 LINE",
"347 311 LINE",
"347 143 LINE SMOOTH",
"347 65 OFFCURVE",
"296 13 OFFCURVE",
"219 13 CURVE SMOOTH",
"143 13 OFFCURVE",
"92 65 OFFCURVE",
"92 143 CURVE SMOOTH",
"92 557 LINE SMOOTH",
"92 635 OFFCURVE",
"143 687 OFFCURVE",
"219 687 CURVE SMOOTH",
"296 687 OFFCURVE",
"347 635 OFFCURVE",
"347 557 CURVE SMOOTH",
"347 500 LINE",
"369 500 LINE",
"369 556 LINE SMOOTH",
"369 648 OFFCURVE",
"309 708 OFFCURVE",
"219 708 CURVE SMOOTH",
"130 708 OFFCURVE",
"70 648 OFFCURVE",
"70 556 CURVE SMOOTH",
"70 144 LINE SMOOTH",
"70 52 OFFCURVE",
"130 -8 OFFCURVE",
"219 -8 CURVE SMOOTH"
);
}
);
width = 439;
},
{
anchors = (
{
name = bottom;
position = "{236, -8}";
},
{
name = top;
position = "{239, 700}";
}
);
layerId = "4E2227F3-52E4-4048-A8EE-327B486EF0A4";
paths = (
{
closed = 1;
nodes = (
"370 -8 OFFCURVE",
"458 72 OFFCURVE",
"458 196 CURVE SMOOTH",
"458 395 LINE",
"241 395 LINE",
"241 250 LINE",
"270 250 LINE",
"270 195 LINE SMOOTH",
"270 170 OFFCURVE",
"258 153 OFFCURVE",
"239 153 CURVE SMOOTH",
"220 153 OFFCURVE",
"208 170 OFFCURVE",
"208 195 CURVE SMOOTH",
"208 505 LINE SMOOTH",
"208 530 OFFCURVE",
"220 547 OFFCURVE",
"239 547 CURVE SMOOTH",
"258 547 OFFCURVE",
"270 530 OFFCURVE",
"270 505 CURVE SMOOTH",
"270 455 LINE",
"458 455 LINE",
"458 503 LINE SMOOTH",
"458 628 OFFCURVE",
"370 708 OFFCURVE",
"239 708 CURVE SMOOTH",
"107 708 OFFCURVE",
"20 629 OFFCURVE",
"20 505 CURVE SMOOTH",
"20 196 LINE SMOOTH",
"20 72 OFFCURVE",
"107 -8 OFFCURVE",
"239 -8 CURVE SMOOTH"
);
}
);
width = 478;
},
{
anchors = (
{
name = bottom;
position = "{224, -8}";
},
{
name = top;
position = "{228, 700}";
}
);
associatedMasterId = "4E2227F3-52E4-4048-A8EE-327B486EF0A4";
layerId = "8F788E01-B0E4-440E-90D9-C7ECABE182EE";
name = "{100,300}";
paths = (
{
closed = 1;
nodes = (
"337 -8 OFFCURVE",
"411 61 OFFCURVE",
"411 168 CURVE SMOOTH",
"411 364 LINE",
"223 364 LINE",
"223 278 LINE",
"311 278 LINE",
"311 167 LINE SMOOTH",
"311 114 OFFCURVE",
"278 78 OFFCURVE",
"228 78 CURVE SMOOTH",
"179 78 OFFCURVE",
"146 114 OFFCURVE",
"146 167 CURVE SMOOTH",
"146 533 LINE SMOOTH",
"146 586 OFFCURVE",
"179 622 OFFCURVE",
"228 622 CURVE SMOOTH",
"278 622 OFFCURVE",
"311 586 OFFCURVE",
"311 533 CURVE SMOOTH",
"311 479 LINE",
"411 479 LINE",
"411 531 LINE SMOOTH",
"411 639 OFFCURVE",
"337 708 OFFCURVE",
"228 708 CURVE SMOOTH",
"119 708 OFFCURVE",
"47 639 OFFCURVE",
"47 532 CURVE SMOOTH",
"47 168 LINE SMOOTH",
"47 61 OFFCURVE",
"119 -8 OFFCURVE",
"228 -8 CURVE SMOOTH"
);
}
);
width = 458;
},
{
anchors = (
{
name = bottom;
position = "{306, -8}";
},
{
name = top;
position = "{306, 700}";
}
);
hints = (
{
origin = "{0, 29}";
target = "{0, 14}";
type = Stem;
},
{
horizontal = 1;
origin = "{0, 26}";
target = "{0, 17}";
type = Stem;
},
{
origin = "{0, 21}";
target = "{0, 22}";
type = Stem;
},
{
horizontal = 1;
origin = "{0, 5}";
target = "{0, 4}";
type = Stem;
},
{
horizontal = 1;
origin = "{0, 33}";
target = "{0, 10}";
type = Stem;
}
);
layerId = "262880E7-CFE1-4BDA-902E-E24798F3240A";
paths = (
{
closed = 1;
nodes = (
"438 -8 OFFCURVE",
"524 73 OFFCURVE",
"524 194 CURVE SMOOTH",
"524 337 LINE",
"317 337 LINE",
"317 316 LINE",
"502 316 LINE",
"502 193 LINE SMOOTH",
"502 85 OFFCURVE",
"424 13 OFFCURVE",
"308 13 CURVE SMOOTH",
"190 13 OFFCURVE",
"112 85 OFFCURVE",
"112 193 CURVE SMOOTH",
"112 507 LINE SMOOTH",
"112 615 OFFCURVE",
"190 687 OFFCURVE",
"308 687 CURVE SMOOTH",
"424 687 OFFCURVE",
"502 615 OFFCURVE",
"502 507 CURVE SMOOTH",
"502 480 LINE",
"524 480 LINE",
"524 506 LINE SMOOTH",
"524 627 OFFCURVE",
"438 708 OFFCURVE",
"308 708 CURVE SMOOTH",
"177 708 OFFCURVE",
"90 627 OFFCURVE",
"90 506 CURVE SMOOTH",
"90 194 LINE SMOOTH",
"90 73 OFFCURVE",
"177 -8 OFFCURVE",
"308 -8 CURVE SMOOTH"
);
}
);
width = 614;
},
{
anchors = (
{
name = bottom;
position = "{306, -8}";
},
{
name = top;
position = "{306, 708}";
}
);
layerId = "FFFA8D72-12AC-4CE0-B2CA-57A29829F4DA";
paths = (
{
closed = 1;
nodes = (
"471 -8 OFFCURVE",
"581 96 OFFCURVE",
"581 246 CURVE SMOOTH",
"581 398 LINE",
"290 398 LINE",
"290 248 LINE",
"398 248 LINE",
"398 230 LINE",
"398 180 OFFCURVE",
"362 153 OFFCURVE",
"314 153 CURVE SMOOTH",
"261 153 OFFCURVE",
"218 192 OFFCURVE",
"218 250 CURVE SMOOTH",
"218 450 LINE SMOOTH",
"218 508 OFFCURVE",
"253 547 OFFCURVE",
"306 547 CURVE SMOOTH",
"363 547 OFFCURVE",
"394 508 OFFCURVE",
"394 466 CURVE SMOOTH",
"394 457 LINE",
"581 457 LINE",
"581 473 LINE SMOOTH",
"581 602 OFFCURVE",
"471 708 OFFCURVE",
"306 708 CURVE",
"140 708 OFFCURVE",
"30 603 OFFCURVE",
"30 445 CURVE SMOOTH",
"30 256 LINE SMOOTH",
"30 98 OFFCURVE",
"140 -8 OFFCURVE",
"306 -8 CURVE SMOOTH"
);
}
);
width = 611;
},
{
anchors = (
{
name = bottom;
position = "{306, -8}";
},
{
name = top;
position = "{306, 700}";
}
);
associatedMasterId = "4E2227F3-52E4-4048-A8EE-327B486EF0A4";
hints = (
{
origin = "{0, 29}";
target = "{0, 14}";
type = Stem;
},
{
horizontal = 1;
origin = "{0, 26}";
target = "{0, 17}";
type = Stem;
},
{
origin = "{0, 21}";
target = "{0, 22}";
type = Stem;
},
{
horizontal = 1;
origin = "{0, 5}";
target = "{0, 4}";
type = Stem;
},
{
horizontal = 1;
origin = "{0, 33}";
target = "{0, 10}";
type = Stem;
}
);
layerId = "A647F3C7-5120-453C-B94E-0D3288838C7D";
name = "{100,500}";
paths = (
{
closed = 1;
nodes = (
"454 -8 OFFCURVE",
"551 75 OFFCURVE",
"551 233 CURVE SMOOTH",
"551 370 LINE",
"304 370 LINE",
"304 284 LINE",
"451 284 LINE",
"451 206 LINE SMOOTH",
"451 126 OFFCURVE",
"397 79 OFFCURVE",
"311 79 CURVE SMOOTH",
"223 79 OFFCURVE",
"162 135 OFFCURVE",
"162 220 CURVE SMOOTH",
"162 480 LINE SMOOTH",
"162 565 OFFCURVE",
"220 621 OFFCURVE",
"307 621 CURVE SMOOTH",
"395 621 OFFCURVE",
"451 565 OFFCURVE",
"451 488 CURVE SMOOTH",
"451 469 LINE",
"551 469 LINE",
"551 490 LINE SMOOTH",
"551 615 OFFCURVE",
"454 708 OFFCURVE",
"307 708 CURVE SMOOTH",
"160 708 OFFCURVE",
"62 616 OFFCURVE",
"62 477 CURVE SMOOTH",
"62 223 LINE SMOOTH",
"62 85 OFFCURVE",
"160 -8 OFFCURVE",
"307 -8 CURVE SMOOTH"
);
}
);
width = 613;
}
);
leftKerningGroup = O;
leftMetricsKey = "=O";
rightKerningGroup = O;
rightMetricsKey = "=O";
unicode = 0047;
},
{
glyphname = H;
layers = (
{
anchors = (
{
name = strokelong;
position = "{336, 509}";
},
{
name = top;
position = "{336, 701}";
}
);
hints = (
{
origin = "{1, 2}";
target = "{1, 1}";
type = Stem;
},
{
origin = "{0, 2}";
target = "{0, 1}";
type = Stem;
},
{
horizontal = 1;
origin = "{2, 0}";
target = "{2, 1}";
type = Stem;
}
);
layerId = "262880E7-CFE1-4BDA-902E-E24798F3240A";
paths = (
{
closed = 1;
nodes = (
"555 0 LINE",
"555 700 LINE",
"533 700 LINE",
"533 0 LINE"
);
},
{
closed = 1;
nodes = (
"139 0 LINE",
"139 700 LINE",
"117 700 LINE",
"117 0 LINE"
);
},
{
closed = 1;
nodes = (
"538 340 LINE",
"538 361 LINE",
"134 361 LINE",
"134 340 LINE"
);
}
);
width = 672;
},
{
anchors = (
{
name = strokelong;
position = "{243, 507}";
},
{
name = top;
position = "{243, 701}";
}
);
layerId = "4E2227F3-52E4-4048-A8EE-327B486EF0A4";
paths = (
{
closed = 1;
nodes = (
"460 0 LINE",
"460 700 LINE",
"272 700 LINE",
"272 0 LINE"
);
},
{
closed = 1;
nodes = (
"214 0 LINE",
"214 700 LINE",
"26 700 LINE",
"26 0 LINE"
);
},
{
closed = 1;
nodes = (
"362 270 LINE",
"362 431 LINE",
"127 431 LINE",
"127 270 LINE"
);
}
);
width = 486;
},
{
anchors = (
{
name = strokelong;
position = "{310, 506}";
},
{
name = top;
position = "{312, 701}";
}
);
layerId = "FFFA8D72-12AC-4CE0-B2CA-57A29829F4DA";
paths = (
{
closed = 1;
nodes = (
"581 0 LINE",
"581 700 LINE",
"393 700 LINE",
"393 0 LINE"
);
},
{
closed = 1;
nodes = (
"227 0 LINE",
"227 700 LINE",
"39 700 LINE",
"39 0 LINE"
);
},
{
closed = 1;
nodes = (
"462 274 LINE",
"462 435 LINE",
"160 435 LINE",
"160 274 LINE"
);
}
);
width = 611;
},
{
anchors = (
{
name = strokelong;
position = "{233, 508}";
},
{
name = top;
position = "{230, 701}";
}
);
layerId = "DCBE1F7B-116A-43E0-B7B4-8657BA77D8B5";
paths = (
{
closed = 1;
nodes = (
"375 0 LINE",
"375 700 LINE",
"353 700 LINE",
"353 0 LINE"
);
},
{
closed = 1;
nodes = (
"113 0 LINE",
"113 700 LINE",
"91 700 LINE",
"91 0 LINE"
);
},
{
closed = 1;
nodes = (
"360 340 LINE",
"360 361 LINE",
"108 361 LINE",
"108 340 LINE"
);
}
);
width = 466;
}
);
unicode = 0048;
},
{
glyphname = I;
layers = (
{
anchors = (
{
name = bottom;
position = "{128, 0}";
},
{
name = top;
position = "{128, 700}";
},
{
name = topleft;
position = "{20, 700}";
}
);
hints = (
{
origin = "{0, 2}";
target = "{0, 1}";
type = Stem;
}
);
layerId = "262880E7-CFE1-4BDA-902E-E24798F3240A";
paths = (
{
closed = 1;
nodes = (
"139 0 LINE",
"139 700 LINE",
"117 700 LINE",
"117 0 LINE"
);
}
);
width = 256;
},
{
anchors = (
{
name = bottom;
position = "{120, 0}";
},
{
name = top;
position = "{120, 700}";
},
{
name = topleft;
position = "{20, 700}";
}
);
layerId = "4E2227F3-52E4-4048-A8EE-327B486EF0A4";
paths = (
{
closed = 1;
nodes = (
"214 0 LINE",
"214 700 LINE",
"26 700 LINE",
"26 0 LINE"
);
}
);
width = 240;
},
{
anchors = (
{
name = bottom;
position = "{133, 0}";
},
{
name = top;
position = "{133, 700}";
},
{
name = topleft;
position = "{20, 700}";
}
);
layerId = "FFFA8D72-12AC-4CE0-B2CA-57A29829F4DA";
paths = (
{
closed = 1;
nodes = (
"227 0 LINE",
"227 700 LINE",
"39 700 LINE",
"39 0 LINE"
);
}
);
width = 266;
},
{
anchors = (
{
name = bottom;
position = "{102, 0}";
},
{
name = top;
position = "{102, 700}";
},
{
name = topleft;
position = "{20, 700}";
}
);
layerId = "DCBE1F7B-116A-43E0-B7B4-8657BA77D8B5";
paths = (
{
closed = 1;
nodes = (
"113 0 LINE",
"113 700 LINE",
"91 700 LINE",
"91 0 LINE"
);
}
);
width = 204;
}
);
unicode = 0049;
},
{
glyphname = J;
layers = (
{
anchors = (
{
name = top;
position = "{445, 701}";
}
);
hints = (
{
origin = "{0, 5}";
target = "{0, 2}";
type = Stem;
},
{
horizontal = 1;
origin = "{0, 17}";
target = "{0, 8}";
type = Stem;
},
{
origin = "{0, 13}";
target = "{0, 12}";
type = Stem;
}
);
layerId = "262880E7-CFE1-4BDA-902E-E24798F3240A";
paths = (
{
closed = 1;
nodes = (
"372 -8 OFFCURVE",
"456 70 OFFCURVE",
"456 188 CURVE SMOOTH",
"456 700 LINE",
"434 700 LINE",
"434 187 LINE SMOOTH",
"434 83 OFFCURVE",
"359 13 OFFCURVE",
"246 13 CURVE SMOOTH",
"133 13 OFFCURVE",
"58 83 OFFCURVE",
"58 187 CURVE SMOOTH",
"58 281 LINE",
"36 281 LINE",
"36 188 LINE SMOOTH",
"36 70 OFFCURVE",
"120 -8 OFFCURVE",
"246 -8 CURVE SMOOTH"
);
}
);
width = 573;
},
{
anchors = (
{
name = top;
position = "{346, 701}";
}
);
layerId = "4E2227F3-52E4-4048-A8EE-327B486EF0A4";
paths = (
{
closed = 1;
nodes = (
"356 -8 OFFCURVE",
"444 72 OFFCURVE",
"444 192 CURVE SMOOTH",
"444 700 LINE",
"256 700 LINE",
"256 190 LINE SMOOTH",
"256 168 OFFCURVE",
"243 153 OFFCURVE",
"225 153 CURVE SMOOTH",
"208 153 OFFCURVE",
"196 168 OFFCURVE",
"196 190 CURVE SMOOTH",
"196 265 LINE",
"8 265 LINE",
"8 192 LINE SMOOTH",
"8 72 OFFCURVE",
"95 -8 OFFCURVE",
"225 -8 CURVE SMOOTH"
);
}
);
width = 470;
},
{
anchors = (
{
name = top;
position = "{456, 701}";
}
);
layerId = "FFFA8D72-12AC-4CE0-B2CA-57A29829F4DA";
paths = (
{
closed = 1;
nodes = (
"438 -8 OFFCURVE",
"548 88 OFFCURVE",
"548 232 CURVE SMOOTH",
"548 700 LINE",
"361 700 LINE",
"361 233 LINE SMOOTH",
"361 185 OFFCURVE",
"326 153 OFFCURVE",
"279 153 CURVE SMOOTH",
"229 153 OFFCURVE",
"200 185 OFFCURVE",
"200 233 CURVE SMOOTH",
"200 300 LINE",
"12 300 LINE",
"12 232 LINE SMOOTH",
"12 88 OFFCURVE",
"116 -8 OFFCURVE",
"279 -8 CURVE SMOOTH"
);
}
);
width = 587;
},
{
anchors = (
{
name = top;
position = "{305, 701}";
}
);
layerId = "DCBE1F7B-116A-43E0-B7B4-8657BA77D8B5";
paths = (
{
closed = 1;
nodes = (
"258 -8 OFFCURVE",
"316 54 OFFCURVE",
"316 148 CURVE SMOOTH",
"316 700 LINE",
"294 700 LINE",
"294 147 LINE SMOOTH",
"294 67 OFFCURVE",
"245 13 OFFCURVE",
"172 13 CURVE SMOOTH",
"99 13 OFFCURVE",
"50 67 OFFCURVE",
"50 147 CURVE SMOOTH",
"50 251 LINE",
"28 251 LINE",
"28 148 LINE SMOOTH",
"28 54 OFFCURVE",
"86 -8 OFFCURVE",
"172 -8 CURVE SMOOTH"
);
}
);
width = 407;
}
);
leftKerningGroup = J;
rightKerningGroup = U;
unicode = 004A;
},
{
glyphname = K;
layers = (
{
anchors = (
{
name = bottom;
position = "{326, 0}";
}
);
hints = (
{
origin = "{0, 11}";
target = "{0, 0}";
type = Stem;
}
);
layerId = "262880E7-CFE1-4BDA-902E-E24798F3240A";
paths = (
{
closed = 1;
nodes = (
"139 0 LINE",
"139 278 LINE",
"261 398 LINE",
"545 0 LINE",
"573 0 LINE",
"277 415 LINE",
"549 700 LINE",
"523 700 LINE",
"139 306 LINE",
"139 700 LINE",
"117 700 LINE",
"117 0 LINE"
);
}
);
width = 600;
},
{
anchors = (
{
name = bottom;
position = "{276, 0}";
}
);
layerId = "4E2227F3-52E4-4048-A8EE-327B486EF0A4";
paths = (
{
closed = 1;
nodes = (
"214 0 LINE",
"214 193 LINE",
"227 227 LINE",
"313 0 LINE",
"511 0 LINE",
"357 383 LINE",
"508 700 LINE",
"310 700 LINE",
"214 469 LINE",
"214 700 LINE",
"26 700 LINE",
"26 0 LINE"
);
}
);
width = 517;
},
{
anchors = (
{
name = bottom;
position = "{306, 0}";
}
);
layerId = "FFFA8D72-12AC-4CE0-B2CA-57A29829F4DA";
paths = (
{
closed = 1;
nodes = (
"227 0 LINE",
"227 189 LINE",
"275 262 LINE",
"422 0 LINE",
"632 0 LINE",
"404 390 LINE",
"627 700 LINE",
"414 700 LINE",
"227 435 LINE",
"227 700 LINE",
"39 700 LINE",
"39 0 LINE"
);
}
);
width = 636;
},
{
anchors = (
{
name = bottom;
position = "{236, 0}";
}
);
layerId = "DCBE1F7B-116A-43E0-B7B4-8657BA77D8B5";
paths = (
{
closed = 1;
nodes = (
"113 0 LINE",
"113 274 LINE",
"201 406 LINE",
"377 0 LINE",
"404 0 LINE",
"217 427 LINE",
"387 700 LINE",
"359 700 LINE",
"113 308 LINE",
"113 700 LINE",
"91 700 LINE",
"91 0 LINE"
);
}
);
width = 425;
}
);
rightKerningGroup = K;
unicode = 004B;
},
{
glyphname = L;
layers = (
{
anchors = (
{
name = bottom;
position = "{292, 0}";
},
{
name = top;
position = "{128, 700}";
}
);
hints = (
{
horizontal = 1;
origin = "{0, 0}";
target = "{0, 1}";
type = Stem;
},
{
origin = "{0, 4}";
target = "{0, 3}";
type = Stem;
}
);
layerId = "262880E7-CFE1-4BDA-902E-E24798F3240A";
paths = (
{
closed = 1;
nodes = (
"522 0 LINE",
"522 21 LINE",
"139 21 LINE",
"139 700 LINE",
"117 700 LINE",
"117 0 LINE"
);
}
);
width = 566;
},
{
anchors = (
{
name = bottom;
position = "{207, 0}";
},
{
name = top;
position = "{124, 700}";
}
);
layerId = "4E2227F3-52E4-4048-A8EE-327B486EF0A4";
paths = (
{
closed = 1;
nodes = (
"430 0 LINE",
"430 161 LINE",
"214 161 LINE",
"214 700 LINE",
"26 700 LINE",
"26 0 LINE"
);
}
);
width = 446;
},
{
anchors = (
{
name = bottom;
position = "{274, 0}";
},
{
name = top;
position = "{132, 700}";
}
);
layerId = "FFFA8D72-12AC-4CE0-B2CA-57A29829F4DA";
paths = (
{
closed = 1;
nodes = (
"556 0 LINE",
"556 161 LINE",
"227 161 LINE",
"227 700 LINE",
"39 700 LINE",
"39 0 LINE"
);
}
);
width = 574;
},
{
anchors = (
{
name = bottom;
position = "{195, 0}";
},
{
name = top;
position = "{100, 700}";
}
);
layerId = "DCBE1F7B-116A-43E0-B7B4-8657BA77D8B5";
paths = (
{
closed = 1;
nodes = (
"368 0 LINE",
"368 21 LINE",
"113 21 LINE",
"113 700 LINE",
"91 700 LINE",
"91 0 LINE"
);
}
);
width = 375;
}
);
rightKerningGroup = L;
unicode = 004C;
},
{
color = 3;
glyphname = M;
layers = (
{
hints = (
{
origin = "{0, 11}";
target = "{0, 10}";
type = Stem;
},
{
origin = "{0, 8}";
target = "{0, 7}";
type = Stem;
}
);
layerId = "262880E7-CFE1-4BDA-902E-E24798F3240A";
paths = (
{
closed = 1;
nodes = (
"139 0 LINE",
"139 687 LINE",
"122 685 LINE",
"350 333 LINE",
"368 333 LINE",
"592 685 LINE",
"577 687 LINE",
"577 0 LINE",
"599 0 LINE",
"599 700 LINE",
"577 700 LINE",
"349 344 LINE",
"367 347 LINE",
"139 700 LINE",
"117 700 LINE",
"117 0 LINE"
);
}
);
width = 716;
},
{
background = {
paths = (
{
closed = 1;
nodes = (
"209 0 LINE",
"209 511 LINE",
"173 502 LINE",
"282 310 LINE",
"283 310 LINE",
"394 498 LINE",
"357 508 LINE",
"357 0 LINE",
"545 0 LINE",
"545 700 LINE",
"362 700 LINE",
"249 490 LINE",
"317 490 LINE",
"204 700 LINE",
"21 700 LINE",
"21 0 LINE"
);
}
);
};
hints = (
{
origin = "{0, 12}";
target = "{0, 0}";
type = Stem;
},
{
origin = "{0, 5}";
target = "{0, 6}";
type = Stem;
}
);
layerId = "4E2227F3-52E4-4048-A8EE-327B486EF0A4";
paths = (
{
closed = 1;
nodes = (
"209 0 LINE",
"209 625 LINE",
"99 625 LINE",
"282 310 LINE",
"283 310 LINE",
"468 625 LINE",
"357 625 LINE",
"357 0 LINE",
"545 0 LINE",
"545 700 LINE",
"362 700 LINE",
"230 452 LINE",
"338 452 LINE",
"204 700 LINE",
"21 700 LINE",
"21 0 LINE"
);
}
);
width = 566;
},
{
hints = (
{
origin = "{0, 12}";
target = "{0, 0}";
type = Stem;
},
{
origin = "{0, 5}";
target = "{0, 6}";
type = Stem;
}
);
layerId = "FFFA8D72-12AC-4CE0-B2CA-57A29829F4DA";
paths = (
{
closed = 1;
nodes = (
"227 0 LINE",
"227 463 LINE",
"91 613 LINE",
"307 259 LINE",
"407 259 LINE",
"631 627 LINE",
"487 463 LINE",
"487 0 LINE",
"675 0 LINE",
"675 700 LINE",
"492 700 LINE",
"277 351 LINE",
"437 351 LINE",
"222 700 LINE",
"39 700 LINE",
"39 0 LINE"
);
}
);
width = 714;
},
{
hints = (
{
origin = "{0, 12}";
target = "{0, 0}";
type = Stem;
},
{
origin = "{0, 5}";
target = "{0, 6}";
type = Stem;
}
);
layerId = "DCBE1F7B-116A-43E0-B7B4-8657BA77D8B5";
paths = (
{
closed = 1;
nodes = (
"113 0 LINE",
"113 672 LINE",
"101 672 LINE",
"243 330 LINE",
"261 330 LINE",
"400 672 LINE",
"389 672 LINE",
"389 0 LINE",
"411 0 LINE",
"411 700 LINE",
"389 700 LINE",
"245 347 LINE",
"259 347 LINE",
"113 700 LINE",
"91 700 LINE",
"91 0 LINE"
);
}
);
width = 502;
},
{
associatedMasterId = "DCBE1F7B-116A-43E0-B7B4-8657BA77D8B5";
background = {
paths = (
{
closed = 1;
nodes = (
"158 0 LINE",
"158 601 LINE",
"124 572 LINE",
"261 321 LINE",
"271 321 LINE",
"408 573 LINE",
"374 599 LINE",
"374 0 LINE",
"474 0 LINE",
"474 700 LINE",
"376 700 LINE",
"236 452 LINE",
"295 456 LINE",
"156 700 LINE",
"58 700 LINE",
"58 0 LINE"
);
}
);
};
hints = (
{
origin = "{0, 12}";
target = "{0, 0}";
type = Stem;
},
{
origin = "{0, 5}";
target = "{0, 6}";
type = Stem;
}
);
layerId = "980C465B-B287-4D6A-AB1E-CF08BC8D48C9";
name = "{100,300}";
paths = (
{
closed = 1;
nodes = (
"158 0 LINE",
"158 572 LINE",
"124 572 LINE",
"261 321 LINE",
"271 321 LINE",
"408 572 LINE",
"374 572 LINE",
"374 0 LINE",
"474 0 LINE",
"474 700 LINE",
"376 700 LINE",
"237 454 LINE",
"296 454 LINE",
"156 700 LINE",
"58 700 LINE",
"58 0 LINE"
);
}
);
width = 532;
},
{
associatedMasterId = "4E2227F3-52E4-4048-A8EE-327B486EF0A4";
hints = (
{
origin = "{0, 11}";
target = "{0, 10}";
type = Stem;
},
{
origin = "{0, 8}";
target = "{0, 7}";
type = Stem;
}
);
layerId = "25EBB921-4617-417B-8B1A-802DA642A775";
name = "{100,500}";
paths = (
{
closed = 1;
nodes = (
"180 0 LINE",
"180 582 LINE",
"107 631 LINE",
"330 298 LINE",
"386 298 LINE",
"610 638 LINE",
"535 582 LINE",
"535 0 LINE",
"635 0 LINE",
"635 700 LINE",
"537 700 LINE",
"315 367 LINE",
"400 369 LINE",
"178 700 LINE",
"80 700 LINE",
"80 0 LINE"
);
}
);
width = 715;
}
);
unicode = 004D;
},
{
color = 3;
glyphname = N;
layers = (
{
anchors = (
{
name = bottom;
position = "{346, 0}";
},
{
name = top;
position = "{344, 700}";
}
);
hints = (
{
place = "{117, -2147483648}";
type = Stem;
},
{
place = "{545, -2147483648}";
type = Stem;
}
);
layerId = "262880E7-CFE1-4BDA-902E-E24798F3240A";
paths = (
{
closed = 1;
nodes = (
"139 0 LINE",
"139 667 LINE",
"134 666 LINE",
"545 0 LINE",
"567 0 LINE",
"567 700 LINE",
"545 700 LINE",
"545 33 LINE",
"550 34 LINE",
"139 700 LINE",
"117 700 LINE",
"117 0 LINE"
);
}
);
width = 684;
},
{
anchors = (
{
name = bottom;
position = "{274, 0}";
},
{
name = top;
position = "{262, 700}";
}
);
hints = (
{
place = "{26, -2147483648}";
type = Stem;
},
{
origin = "{0, 6}";
target = "{0, 11}";
type = Stem;
}
);
layerId = "4E2227F3-52E4-4048-A8EE-327B486EF0A4";
paths = (
{
closed = 1;
nodes = (
"212 0 LINE",
"210 415 LINE",
"192 415 LINE",
"296 0 LINE",
"502 0 LINE",
"502 700 LINE",
"316 700 LINE",
"317 285 LINE",
"335 285 LINE",
"230 700 LINE",
"26 700 LINE",
"26 0 LINE"
);
}
);
width = 528;
},
{
anchors = (
{
name = bottom;
position = "{328, 0}";
},
{
name = top;
position = "{318, 700}";
}
);
layerId = "FFFA8D72-12AC-4CE0-B2CA-57A29829F4DA";
paths = (
{
closed = 1;
nodes = (
"227 0 LINE",
"225 420 LINE",
"189 420 LINE",
"441 0 LINE",
"619 0 LINE",
"619 700 LINE",
"431 700 LINE",
"432 280 LINE",
"468 280 LINE",
"217 700 LINE",
"39 700 LINE",
"39 0 LINE"
);
}
);
width = 658;
},
{
anchors = (
{
name = bottom;
position = "{236, 0}";
},
{
name = top;
position = "{240, 710}";
}
);
hints = (
{
place = "{91, -2147483648}";
type = Stem;
},
{
place = "{366, -2147483648}";
type = Stem;
}
);
layerId = "DCBE1F7B-116A-43E0-B7B4-8657BA77D8B5";
paths = (
{
closed = 1;
nodes = (
"113 0 LINE",
"113 657 LINE",
"110 657 LINE",
"365 0 LINE",
"388 0 LINE",
"388 700 LINE",
"366 700 LINE",
"366 43 LINE",
"369 43 LINE",
"113 700 LINE",
"91 700 LINE",
"91 0 LINE"
);
}
);
width = 479;
},
{
anchors = (
{
name = bottom;
position = "{338, 0}";
},
{
name = top;
position = "{332, 700}";
}
);
associatedMasterId = "4E2227F3-52E4-4048-A8EE-327B486EF0A4";
hints = (
{
place = "{80, -2147483648}";
type = Stem;
},
{
place = "{496, -2147483648}";
type = Stem;
}
);
layerId = "AF700569-CAED-4344-924C-FF7EDA896D2F";
name = "{100,500}";
paths = (
{
closed = 1;
nodes = (
"180 0 LINE",
"179 551 LINE",
"160 550 LINE",
"496 0 LINE",
"591 0 LINE",
"591 700 LINE",
"491 700 LINE",
"492 149 LINE",
"511 150 LINE",
"176 700 LINE",
"80 700 LINE",
"80 0 LINE"
);
}
);
width = 672;
},
{
anchors = (
{
name = bottom;
position = "{254, 0}";
},
{
name = top;
position = "{250, 705}";
}
);
associatedMasterId = "4E2227F3-52E4-4048-A8EE-327B486EF0A4";
hints = (
{
place = "{60, -2147483648}";
type = Stem;
},
{
place = "{343, -2147483648}";
type = Stem;
}
);
layerId = "42C43E0D-C6E2-494E-A0C1-A4C56C6C4E84";
name = "{100,300}";
paths = (
{
closed = 1;
nodes = (
"160 0 LINE",
"159 496 LINE",
"149 496 LINE",
"333 0 LINE",
"442 0 LINE",
"442 700 LINE",
"343 700 LINE",
"343 204 LINE",
"353 204 LINE",
"168 700 LINE",
"60 700 LINE",
"60 0 LINE"
);
}
);
width = 502;
}
);
leftKerningGroup = H;
rightKerningGroup = H;
unicode = 004E;
},
{
glyphname = Eng;
layers = (
{
components = (
{
name = N;
}
);
hints = (
{
origin = "{0, 4}";
target = "{0, 3}";
type = Stem;
},
{
horizontal = 1;
origin = "{0, 9}";
target = "{0, 8}";
type = Stem;
}
);
layerId = "262880E7-CFE1-4BDA-902E-E24798F3240A";
paths = (
{
closed = 1;
nodes = (
"534 -139 OFFCURVE",
"567 -87 OFFCURVE",
"567 -2 CURVE SMOOTH",
"567 572 LINE",
"545 572 LINE",
"545 -2 LINE SMOOTH",
"545 -74 OFFCURVE",
"521 -118 OFFCURVE",
"448 -118 CURVE",
"448 -139 LINE"
);
}
);
width = 684;
},
{
components = (
{
name = N;
}
);
layerId = "FFFA8D72-12AC-4CE0-B2CA-57A29829F4DA";
paths = (
{
closed = 1;
nodes = (
"558 -209 OFFCURVE",
"619 -163 OFFCURVE",
"619 29 CURVE SMOOTH",
"619 520 LINE",
"431 520 LINE",
"431 26 LINE SMOOTH",
"431 -38 OFFCURVE",
"407 -52 OFFCURVE",
"312 -44 CURVE",
"312 -201 LINE"
);
}
);
width = 658;
},
{
components = (
{
name = N;
}
);
layerId = "DCBE1F7B-116A-43E0-B7B4-8657BA77D8B5";
paths = (
{
closed = 1;
nodes = (
"387 -133 OFFCURVE",
"388 -81 OFFCURVE",
"388 4 CURVE SMOOTH",
"388 578 LINE",
"366 578 LINE",
"366 4 LINE SMOOTH",
"366 -68 OFFCURVE",
"372 -112 OFFCURVE",
"298 -112 CURVE",
"298 -133 LINE"
);
}
);
width = 479;
},
{
components = (
{
name = N;
}
);
layerId = "4E2227F3-52E4-4048-A8EE-327B486EF0A4";
paths = (
{
closed = 1;
nodes = (
"500 -220 OFFCURVE",
"502 -130 OFFCURVE",
"502 19 CURVE SMOOTH",
"502 210 LINE",
"296 210 LINE",
"296 19 LINE SMOOTH",
"296 -29 OFFCURVE",
"301 -59 OFFCURVE",
"230 -51 CURVE",
"231 -211 LINE"
);
}
);
width = 528;
}
);
leftMetricsKey = "=N";
rightMetricsKey = "=N";
unicode = 014A;
},
{
glyphname = O;
layers = (
{
anchors = (
{
name = bottom;
position = "{311, 0}";
},
{
name = center;
position = "{311, 350}";
},
{
name = ogonek;
position = "{560, 10}";
},
{
name = top;
position = "{310, 700}";
},
{
name = topleft;
position = "{20, 700}";
},
{
name = topright;
position = "{602, 700}";
}
);
hints = (
{
place = "{90, -2147483648}";
type = Stem;
},
{
horizontal = 1;
origin = "{0, 6}";
target = "{0, 13}";
type = Stem;
},
{
place = "{510, -2147483648}";
type = Stem;
},
{
horizontal = 1;
place = "{-7, -2147483648}";
type = Stem;
}
);
layerId = "262880E7-CFE1-4BDA-902E-E24798F3240A";
paths = (
{
closed = 1;
nodes = (
"443 -7 OFFCURVE",
"532 80 OFFCURVE",
"532 210 CURVE SMOOTH",
"532 489 LINE SMOOTH",
"532 620 OFFCURVE",
"443 708 OFFCURVE",
"310 708 CURVE SMOOTH",
"178 708 OFFCURVE",
"90 620 OFFCURVE",
"90 489 CURVE SMOOTH",
"90 210 LINE SMOOTH",
"90 80 OFFCURVE",
"178 -7 OFFCURVE",
"310 -7 CURVE SMOOTH"
);
},
{
closed = 1;
nodes = (
"191 13 OFFCURVE",
"112 91 OFFCURVE",
"112 209 CURVE SMOOTH",
"112 490 LINE SMOOTH",
"112 608 OFFCURVE",
"191 687 OFFCURVE",
"310 687 CURVE SMOOTH",
"430 687 OFFCURVE",
"510 608 OFFCURVE",
"510 490 CURVE SMOOTH",
"510 209 LINE SMOOTH",
"510 91 OFFCURVE",
"430 13 OFFCURVE",
"310 13 CURVE SMOOTH"
);
}
);
width = 622;
},
{
anchors = (
{
name = bottom;
position = "{242, 0}";
},
{
name = center;
position = "{242, 350}";
},
{
name = ogonek;
position = "{436, 10}";
},
{
name = top;
position = "{242, 700}";
},
{
name = topleft;
position = "{20, 700}";
},
{
name = topright;
position = "{383, 700}";
}
);
layerId = "4E2227F3-52E4-4048-A8EE-327B486EF0A4";
paths = (
{
closed = 1;
nodes = (
"376 -8 OFFCURVE",
"464 75 OFFCURVE",
"464 206 CURVE SMOOTH",
"464 494 LINE SMOOTH",
"464 625 OFFCURVE",
"376 708 OFFCURVE",
"242 708 CURVE SMOOTH",
"107 708 OFFCURVE",
"20 625 OFFCURVE",
"20 494 CURVE SMOOTH",
"20 206 LINE SMOOTH",
"20 75 OFFCURVE",
"107 -8 OFFCURVE",
"242 -8 CURVE SMOOTH"
);
},
{
closed = 1;
nodes = (
"220 153 OFFCURVE",
"208 171 OFFCURVE",
"208 198 CURVE SMOOTH",
"208 502 LINE SMOOTH",
"208 529 OFFCURVE",
"220 547 OFFCURVE",
"242 547 CURVE SMOOTH",
"264 547 OFFCURVE",
"276 529 OFFCURVE",
"276 502 CURVE SMOOTH",
"276 198 LINE SMOOTH",
"276 171 OFFCURVE",
"264 153 OFFCURVE",
"242 153 CURVE SMOOTH"
);
}
);
width = 484;
},
{
anchors = (
{
name = bottom;
position = "{311, 0}";
},
{
name = center;
position = "{311, 350}";
},
{
name = ogonek;
position = "{559, 10}";
},
{
name = top;
position = "{310, 700}";
},
{
name = topleft;
position = "{20, 700}";
},
{
name = topright;
position = "{479, 700}";
}
);
guideLines = (
{
position = "{310, 613}";
},
{
position = "{307, 360}";
},
{
position = "{310, 87}";
}
);
layerId = "FFFA8D72-12AC-4CE0-B2CA-57A29829F4DA";
paths = (
{
closed = 1;
nodes = (
"479 -12 OFFCURVE",
"591 95 OFFCURVE",
"591 256 CURVE SMOOTH",
"591 444 LINE SMOOTH",
"591 602 OFFCURVE",
"479 708 OFFCURVE",
"310 708 CURVE SMOOTH",
"142 708 OFFCURVE",
"30 602 OFFCURVE",
"30 444 CURVE SMOOTH",
"30 256 LINE SMOOTH",
"30 95 OFFCURVE",
"142 -12 OFFCURVE",
"310 -12 CURVE SMOOTH"
);
},
{
closed = 1;
nodes = (
"255 149 OFFCURVE",
"218 189 OFFCURVE",
"218 250 CURVE SMOOTH",
"218 446 LINE SMOOTH",
"218 507 OFFCURVE",
"255 547 OFFCURVE",
"310 547 CURVE SMOOTH",
"366 547 OFFCURVE",
"403 507 OFFCURVE",
"403 446 CURVE SMOOTH",
"403 250 LINE SMOOTH",
"403 189 OFFCURVE",
"366 149 OFFCURVE",
"310 149 CURVE SMOOTH"
);
}
);
width = 621;
},
{
anchors = (
{
name = bottom;
position = "{222, 0}";
},
{
name = center;
position = "{222, 350}";
},
{
name = ogonek;
position = "{400, 10}";
},
{
name = top;
position = "{221, 699}";
},
{
name = topleft;
position = "{20, 700}";
},
{
name = topright;
position = "{316, 700}";
}
);
layerId = "DCBE1F7B-116A-43E0-B7B4-8657BA77D8B5";
paths = (
{
closed = 1;
nodes = (
"311 -8 OFFCURVE",
"374 56 OFFCURVE",
"374 150 CURVE SMOOTH",
"374 549 LINE SMOOTH",
"374 643 OFFCURVE",
"311 708 OFFCURVE",
"221 708 CURVE SMOOTH",
"132 708 OFFCURVE",
"70 643 OFFCURVE",
"70 549 CURVE SMOOTH",
"70 150 LINE SMOOTH",
"70 56 OFFCURVE",
"132 -8 OFFCURVE",
"221 -8 CURVE SMOOTH"
);
},
{
closed = 1;
nodes = (
"145 13 OFFCURVE",
"92 69 OFFCURVE",
"92 149 CURVE SMOOTH",
"92 550 LINE SMOOTH",
"92 631 OFFCURVE",
"145 687 OFFCURVE",
"221 687 CURVE SMOOTH",
"298 687 OFFCURVE",
"352 631 OFFCURVE",
"352 550 CURVE SMOOTH",
"352 149 LINE SMOOTH",
"352 69 OFFCURVE",
"298 13 OFFCURVE",
"221 13 CURVE SMOOTH"
);
}
);
width = 444;
}
);
leftKerningGroup = O;
rightKerningGroup = O;
unicode = 004F;
},
{
color = 3;
glyphname = Oslash;
layers = (
{
components = (
{
name = O;
}
);
hints = (
{
place = "{91, 22}";
type = Stem;
},
{
horizontal = 1;
origin = "{0, 1}";
target = "{0, 0}";
type = Stem;
},
{
place = "{511, -83}";
type = Stem;
},
{
horizontal = 1;
origin = "{0, 3}";
target = "{0, 2}";
type = Stem;
}
);
layerId = "262880E7-CFE1-4BDA-902E-E24798F3240A";
paths = (
{
closed = 1;
nodes = (
"547 700 LINE",
"528 712 LINE",
"75 -1 LINE",
"93 -13 LINE"
);
},
{
closed = 1;
nodes = (
"547 700 LINE",
"528 712 LINE",
"75 -1 LINE",
"93 -13 LINE"
);
}
);
width = 622;
},
{
components = (
{
alignment = -1;
name = O;
}
);
layerId = "FFFA8D72-12AC-4CE0-B2CA-57A29829F4DA";
paths = (
{
closed = 1;
nodes = (
"626 657 LINE",
"490 759 LINE",
"346 560 LINE",
"491 470 LINE"
);
},
{
closed = 1;
nodes = (
"267 128 LINE",
"136 235 LINE",
"-5 43 LINE",
"131 -59 LINE"
);
}
);
width = 621;
},
{
components = (
{
alignment = -1;
name = O;
}
);
layerId = "DCBE1F7B-116A-43E0-B7B4-8657BA77D8B5";
paths = (
{
closed = 1;
nodes = (
"378 716 LINE",
"358 725 LINE",
"66 -17 LINE",
"86 -26 LINE"
);
},
{
closed = 1;
nodes = (
"378 716 LINE",
"358 725 LINE",
"66 -17 LINE",
"86 -26 LINE"
);
}
);
width = 444;
},
{
components = (
{
alignment = -1;
name = O;
}
);
layerId = "4E2227F3-52E4-4048-A8EE-327B486EF0A4";
paths = (
{
closed = 1;
nodes = (
"484 696 LINE",
"373 765 LINE",
"258 563 LINE",
"370 504 LINE"
);
},
{
closed = 1;
nodes = (
"219 130 LINE",
"112 199 LINE",
"0 4 LINE",
"107 -65 LINE"
);
}
);
width = 484;
},
{
associatedMasterId = "FFFA8D72-12AC-4CE0-B2CA-57A29829F4DA";
components = (
{
alignment = -1;
name = O;
transform = "{1, 0, 0, 1, 7, 0}";
},
{
alignment = -1;
name = slashlongcomb;
transform = "{1, 0, 0, 1, 47, 0}";
}
);
layerId = "160CDC3E-1151-4942-8EC5-A5A167ED0AB4";
name = "100,300}";
width = 503;
},
{
associatedMasterId = "FFFA8D72-12AC-4CE0-B2CA-57A29829F4DA";
components = (
{
alignment = -1;
name = O;
transform = "{1, 0, 0, 1, 8, 0}";
},
{
name = slashlongcomb;
transform = "{1, 0, 0, 1, 62, 0}";
}
);
layerId = "ED17B6D4-A8AE-40B6-9381-1DD3D326EE5F";
name = "100,500}";
width = 630;
},
{
associatedMasterId = "4E2227F3-52E4-4048-A8EE-327B486EF0A4";
components = (
{
alignment = -1;
name = O;
},
{
name = slashlongcomb;
transform = "{1, 0, 0, 1, 31, 0}";
}
);
layerId = "14CE8F98-CD3D-4C0E-8035-32DE8822C244";
name = "141,500}";
width = 484;
},
{
associatedMasterId = "4E2227F3-52E4-4048-A8EE-327B486EF0A4";
components = (
{
alignment = -1;
name = O;
},
{
name = slashlongcomb;
transform = "{1, 0, 0, 1, 31, 0}";
}
);
layerId = "6FE7FD38-9064-4D6E-BB7C-2BCA961CD2F9";
name = "141,300} Nov 21 17, 02:18";
width = 484;
},
{
associatedMasterId = "262880E7-CFE1-4BDA-902E-E24798F3240A";
components = (
{
alignment = -1;
name = O;
transform = "{1, 0, 0, 1, -1, 0}";
}
);
hints = (
{
place = "{0, 0}";
type = Stem;
},
{
horizontal = 1;
origin = "{0, 1}";
target = "{0, 0}";
type = Stem;
},
{
place = "{0, 0}";
type = Stem;
},
{
horizontal = 1;
origin = "{0, 3}";
target = "{0, 2}";
type = Stem;
}
);
layerId = "291953B8-65EF-4DC8-B712-E33321808A17";
name = "{141,300}";
paths = (
{
closed = 1;
nodes = (
"453 702 LINE",
"368 754 LINE",
"291 587 LINE",
"377 542 LINE"
);
},
{
closed = 1;
nodes = (
"181 120 LINE",
"99 172 LINE",
"18 -2 LINE",
"100 -54 LINE"
);
}
);
width = 554;
},
{
associatedMasterId = "262880E7-CFE1-4BDA-902E-E24798F3240A";
components = (
{
name = O;
transform = "{1, 0, 0, 1, -7, 0}";
}
);
hints = (
{
place = "{25.765, 6.229}";
type = Stem;
},
{
horizontal = 1;
origin = "{0, 1}";
target = "{0, 0}";
type = Stem;
},
{
place = "{144.681, -23.5}";
type = Stem;
},
{
horizontal = 1;
origin = "{0, 3}";
target = "{0, 2}";
type = Stem;
}
);
layerId = "F7282477-4A70-44B3-BBB0-0D87BA4DCF18";
name = "{141,500}";
paths = (
{
closed = 1;
nodes = (
"597 669 LINE",
"494 746 LINE",
"384 582 LINE",
"493 514 LINE"
);
},
{
closed = 1;
nodes = (
"220 113 LINE",
"121 193 LINE",
"11 31 LINE",
"113 -46 LINE"
);
}
);
width = 614;
},
{
associatedMasterId = "262880E7-CFE1-4BDA-902E-E24798F3240A";
components = (
{
alignment = -1;
name = O;
transform = "{1, 0, 0, 1, 3, 0}";
}
);
hints = (
{
place = "{0, 0}";
type = Stem;
},
{
horizontal = 1;
origin = "{0, 1}";
target = "{0, 0}";
type = Stem;
},
{
place = "{537.445, 44.622}";
type = Stem;
},
{
horizontal = 1;
origin = "{0, 3}";
target = "{0, 2}";
type = Stem;
}
);
layerId = "EFCE410B-2600-4718-8F66-7C1D172ABBE4";
name = "{140,300}";
paths = (
{
closed = 1;
nodes = (
"456 702 LINE",
"374 754 LINE",
"18 -9 LINE",
"104 -54 LINE"
);
},
{
closed = 1;
nodes = (
"456 702 LINE",
"374 754 LINE",
"18 -9 LINE",
"104 -54 LINE"
);
}
);
width = 636;
},
{
associatedMasterId = "262880E7-CFE1-4BDA-902E-E24798F3240A";
components = (
{
name = O;
transform = "{1, 0, 0, 1, 1, 0}";
}
);
hints = (
{
place = "{144.23, -23.118}";
type = Stem;
},
{
horizontal = 1;
origin = "{0, 1}";
target = "{0, 0}";
type = Stem;
},
{
place = "{513.975, 66.731}";
type = Stem;
},
{
horizontal = 1;
origin = "{0, 3}";
target = "{0, 2}";
type = Stem;
}
);
layerId = "8ED7EBD4-09EB-478E-8AFE-15594E6D6A6D";
name = "{140,500}";
paths = (
{
closed = 1;
nodes = (
"605 669 LINE",
"502 746 LINE",
"12 21 LINE",
"121 -46 LINE"
);
},
{
closed = 1;
nodes = (
"605 669 LINE",
"502 746 LINE",
"12 21 LINE",
"121 -46 LINE"
);
}
);
width = 622;
}
);
unicode = 00D8;
},
{
glyphname = OE;
layers = (
{
anchors = (
{
name = top;
position = "{470, 700}";
}
);
hints = (
{
place = "{90, 22}";
type = Stem;
},
{
horizontal = 1;
origin = "{0, 6}";
target = "{1, 6}";
type = Stem;
},
{
origin = "{1, 9}";
target = "{0, 3}";
type = Stem;
},
{
horizontal = 1;
origin = "{0, 13}";
target = "{1, 13}";
type = Stem;
},
{
horizontal = 1;
place = "{340, 21}";
type = Stem;
},
{
horizontal = 1;
place = "{0, 21}";
type = Stem;
},
{
origin = "{1, 10}";
target = "{0, 2}";
type = Stem;
},
{
horizontal = 1;
place = "{700, -21}";
type = Stem;
}
);
layerId = "262880E7-CFE1-4BDA-902E-E24798F3240A";
paths = (
{
closed = 1;
nodes = (
"411 -7 OFFCURVE",
"490 77 OFFCURVE",
"490 190 CURVE SMOOTH",
"490 509 LINE SMOOTH",
"490 623 OFFCURVE",
"411 708 OFFCURVE",
"290 708 CURVE SMOOTH",
"169 708 OFFCURVE",
"90 623 OFFCURVE",
"90 509 CURVE SMOOTH",
"90 190 LINE SMOOTH",
"90 77 OFFCURVE",
"169 -7 OFFCURVE",
"290 -7 CURVE SMOOTH"
);
},
{
closed = 1;
nodes = (
"183 13 OFFCURVE",
"112 89 OFFCURVE",
"112 189 CURVE SMOOTH",
"112 510 LINE SMOOTH",
"112 610 OFFCURVE",
"183 687 OFFCURVE",
"290 687 CURVE SMOOTH",
"398 687 OFFCURVE",
"470 610 OFFCURVE",
"470 510 CURVE SMOOTH",
"470 189 LINE SMOOTH",
"470 89 OFFCURVE",
"398 13 OFFCURVE",
"290 13 CURVE SMOOTH"
);
},
{
closed = 1;
nodes = (
"732 340 LINE",
"732 361 LINE",
"481 361 LINE",
"481 340 LINE"
);
},
{
closed = 1;
nodes = (
"841 0 LINE",
"841 21 LINE",
"492 21 LINE",
"492 679 LINE",
"841 679 LINE",
"841 700 LINE",
"470 700 LINE",
"470 0 LINE"
);
}
);
width = 913;
},
{
anchors = (
{
name = top;
position = "{487, 700}";
}
);
layerId = "FFFA8D72-12AC-4CE0-B2CA-57A29829F4DA";
paths = (
{
closed = 1;
nodes = (
"388 -12 OFFCURVE",
"521 87 OFFCURVE",
"521 236 CURVE SMOOTH",
"521 464 LINE SMOOTH",
"521 613 OFFCURVE",
"388 708 OFFCURVE",
"260 708 CURVE SMOOTH",
"138 708 OFFCURVE",
"30 602 OFFCURVE",
"30 444 CURVE SMOOTH",
"30 256 LINE SMOOTH",
"30 95 OFFCURVE",
"138 -12 OFFCURVE",
"260 -12 CURVE SMOOTH"
);
},
{
closed = 1;
nodes = (
"255 149 OFFCURVE",
"218 189 OFFCURVE",
"218 250 CURVE SMOOTH",
"218 446 LINE SMOOTH",
"218 507 OFFCURVE",
"255 547 OFFCURVE",
"310 547 CURVE SMOOTH",
"366 547 OFFCURVE",
"403 507 OFFCURVE",
"403 446 CURVE SMOOTH",
"403 250 LINE SMOOTH",
"403 189 OFFCURVE",
"366 149 OFFCURVE",
"310 149 CURVE SMOOTH"
);
},
{
closed = 1;
nodes = (
"799 275 LINE",
"799 435 LINE",
"479 435 LINE",
"479 275 LINE"
);
},
{
closed = 1;
nodes = (
"913 0 LINE",
"913 161 LINE",
"591 161 LINE",
"591 539 LINE",
"913 539 LINE",
"913 700 LINE",
"403 700 LINE",
"403 0 LINE"
);
}
);
width = 937;
},
{
anchors = (
{
name = top;
position = "{370, 700}";
}
);
layerId = "DCBE1F7B-116A-43E0-B7B4-8657BA77D8B5";
paths = (
{
closed = 1;
nodes = (
"311 -8 OFFCURVE",
"372 56 OFFCURVE",
"372 150 CURVE SMOOTH",
"372 549 LINE SMOOTH",
"372 643 OFFCURVE",
"311 708 OFFCURVE",
"221 708 CURVE SMOOTH",
"132 708 OFFCURVE",
"70 643 OFFCURVE",
"70 549 CURVE SMOOTH",
"70 150 LINE SMOOTH",
"70 56 OFFCURVE",
"132 -8 OFFCURVE",
"221 -8 CURVE SMOOTH"
);
},
{
closed = 1;
nodes = (
"145 13 OFFCURVE",
"92 69 OFFCURVE",
"92 149 CURVE SMOOTH",
"92 550 LINE SMOOTH",
"92 631 OFFCURVE",
"145 687 OFFCURVE",
"221 687 CURVE SMOOTH",
"298 687 OFFCURVE",
"352 631 OFFCURVE",
"352 550 CURVE SMOOTH",
"352 149 LINE SMOOTH",
"352 69 OFFCURVE",
"298 13 OFFCURVE",
"221 13 CURVE SMOOTH"
);
},
{
closed = 1;
nodes = (
"551 340 LINE",
"551 361 LINE",
"363 361 LINE",
"363 340 LINE"
);
},
{
closed = 1;
nodes = (
"634 0 LINE",
"634 21 LINE",
"374 21 LINE",
"374 679 LINE",
"634 679 LINE",
"634 700 LINE",
"352 700 LINE",
"352 0 LINE"
);
}
);
width = 684;
},
{
anchors = (
{
name = top;
position = "{362, 700}";
}
);
layerId = "4E2227F3-52E4-4048-A8EE-327B486EF0A4";
paths = (
{
closed = 1;
nodes = (
"296 -8 OFFCURVE",
"354 75 OFFCURVE",
"354 206 CURVE SMOOTH",
"354 494 LINE SMOOTH",
"354 625 OFFCURVE",
"296 708 OFFCURVE",
"192 708 CURVE SMOOTH",
"107 708 OFFCURVE",
"20 625 OFFCURVE",
"20 494 CURVE SMOOTH",
"20 206 LINE SMOOTH",
"20 75 OFFCURVE",
"107 -8 OFFCURVE",
"192 -8 CURVE SMOOTH"
);
},
{
closed = 1;
nodes = (
"220 153 OFFCURVE",
"208 171 OFFCURVE",
"208 198 CURVE SMOOTH",
"208 502 LINE SMOOTH",
"208 529 OFFCURVE",
"220 547 OFFCURVE",
"242 547 CURVE SMOOTH",
"264 547 OFFCURVE",
"276 529 OFFCURVE",
"276 502 CURVE SMOOTH",
"276 198 LINE SMOOTH",
"276 171 OFFCURVE",
"264 153 OFFCURVE",
"242 153 CURVE SMOOTH"
);
},
{
closed = 1;
nodes = (
"584 270 LINE",
"584 431 LINE",
"352 431 LINE",
"352 270 LINE"
);
},
{
closed = 1;
nodes = (
"676 0 LINE",
"676 161 LINE",
"464 161 LINE",
"464 539 LINE",
"676 539 LINE",
"676 700 LINE",
"276 700 LINE",
"276 0 LINE"
);
}
);
width = 694;
}
);
leftKerningGroup = O;
leftMetricsKey = "=O";
rightMetricsKey = "=E";
unicode = 0152;
},
{
glyphname = P;
layers = (
{
hints = (
{
horizontal = 1;
origin = "{0, 17}";
target = "{0, 2}";
type = Stem;
},
{
origin = "{0, 5}";
target = "{0, 14}";
type = Stem;
},
{
horizontal = 1;
origin = "{0, 11}";
target = "{0, 8}";
type = Stem;
},
{
origin = "{0, 18}";
target = "{0, 1}";
type = Stem;
}
);
layerId = "262880E7-CFE1-4BDA-902E-E24798F3240A";
paths = (
{
closed = 1;
nodes = (
"130 0 LINE",
"130 681 LINE",
"368 681 LINE SMOOTH",
"460 681 OFFCURVE",
"522 617 OFFCURVE",
"522 520 CURVE SMOOTH",
"522 425 OFFCURVE",
"460 361 OFFCURVE",
"368 361 CURVE SMOOTH",
"125 361 LINE",
"125 340 LINE",
"366 340 LINE SMOOTH",
"473 340 OFFCURVE",
"544 411 OFFCURVE",
"544 520 CURVE SMOOTH",
"544 629 OFFCURVE",
"473 702 OFFCURVE",
"366 702 CURVE SMOOTH",
"108 702 LINE",
"108 0 LINE"
);
}
);
width = 588;
},
{
layerId = "4E2227F3-52E4-4048-A8EE-327B486EF0A4";
paths = (
{
closed = 1;
nodes = (
"212 0 LINE",
"212 539 LINE",
"231 539 LINE SMOOTH",
"260 539 OFFCURVE",
"281 517 OFFCURVE",
"281 471 CURVE SMOOTH",
"281 426 OFFCURVE",
"260 405 OFFCURVE",
"231 405 CURVE SMOOTH",
"196 405 LINE",
"196 260 LINE",
"274 260 LINE SMOOTH",
"390 260 OFFCURVE",
"469 345 OFFCURVE",
"469 475 CURVE SMOOTH",
"469 608 OFFCURVE",
"386 700 OFFCURVE",
"264 700 CURVE SMOOTH",
"24 700 LINE",
"24 0 LINE"
);
}
);
width = 481;
},
{
layerId = "FFFA8D72-12AC-4CE0-B2CA-57A29829F4DA";
paths = (
{
closed = 1;
nodes = (
"224 0 LINE",
"224 539 LINE",
"313 539 LINE SMOOTH",
"362 539 OFFCURVE",
"395 510 OFFCURVE",
"395 466 CURVE SMOOTH",
"395 423 OFFCURVE",
"362 395 OFFCURVE",
"313 395 CURVE SMOOTH",
"207 395 LINE",
"207 245 LINE",
"335 245 LINE SMOOTH",
"483 245 OFFCURVE",
"582 335 OFFCURVE",
"582 470 CURVE SMOOTH",
"582 608 OFFCURVE",
"487 700 OFFCURVE",
"344 700 CURVE SMOOTH",
"36 700 LINE",
"36 0 LINE"
);
}
);
width = 600;
},
{
layerId = "DCBE1F7B-116A-43E0-B7B4-8657BA77D8B5";
paths = (
{
closed = 1;
nodes = (
"113 0 LINE",
"113 681 LINE",
"239 681 LINE SMOOTH",
"313 681 OFFCURVE",
"362 617 OFFCURVE",
"362 520 CURVE SMOOTH",
"362 425 OFFCURVE",
"313 361 OFFCURVE",
"239 361 CURVE SMOOTH",
"109 361 LINE",
"109 340 LINE",
"239 340 LINE SMOOTH",
"326 340 OFFCURVE",
"384 412 OFFCURVE",
"384 520 CURVE SMOOTH",
"384 629 OFFCURVE",
"326 702 OFFCURVE",
"239 702 CURVE SMOOTH",
"91 702 LINE",
"91 0 LINE"
);
}
);
width = 426;
}
);
leftKerningGroup = H;
rightKerningGroup = P;
unicode = 0050;
},
{
glyphname = Thorn;
layers = (
{
hints = (
{
horizontal = 1;
place = "{460, -21}";
type = Stem;
},
{
place = "{472, 22}";
type = Stem;
},
{
horizontal = 1;
place = "{98, 21}";
type = Stem;
},
{
origin = "{0, 2}";
target = "{0, 1}";
type = Stem;
}
);
layerId = "262880E7-CFE1-4BDA-902E-E24798F3240A";
paths = (
{
closed = 1;
nodes = (
"130 0 LINE",
"130 700 LINE",
"108 700 LINE",
"108 0 LINE"
);
},
{
closed = 1;
nodes = (
"336 169 LINE SMOOTH",
"443 169 OFFCURVE",
"514 240 OFFCURVE",
"514 349 CURVE SMOOTH",
"514 458 OFFCURVE",
"443 531 OFFCURVE",
"336 531 CURVE SMOOTH",
"130 531 LINE",
"130 510 LINE",
"338 510 LINE SMOOTH",
"430 510 OFFCURVE",
"492 446 OFFCURVE",
"492 349 CURVE SMOOTH",
"492 254 OFFCURVE",
"430 190 OFFCURVE",
"338 190 CURVE SMOOTH",
"130 190 LINE",
"130 169 LINE"
);
}
);
width = 558;
},
{
layerId = "FFFA8D72-12AC-4CE0-B2CA-57A29829F4DA";
paths = (
{
closed = 1;
nodes = (
"224 0 LINE",
"224 700 LINE",
"36 700 LINE",
"36 0 LINE"
);
},
{
closed = 1;
nodes = (
"325 127 LINE SMOOTH",
"461 127 OFFCURVE",
"572 215 OFFCURVE",
"572 348 CURVE SMOOTH",
"572 481 OFFCURVE",
"476 573 OFFCURVE",
"334 573 CURVE SMOOTH",
"224 573 LINE",
"224 412 LINE",
"303 412 LINE SMOOTH",
"351 412 OFFCURVE",
"385 390 OFFCURVE",
"385 344 CURVE SMOOTH",
"385 299 OFFCURVE",
"351 278 OFFCURVE",
"303 278 CURVE SMOOTH",
"224 278 LINE",
"224 127 LINE"
);
}
);
width = 590;
},
{
layerId = "DCBE1F7B-116A-43E0-B7B4-8657BA77D8B5";
paths = (
{
closed = 1;
nodes = (
"113 0 LINE",
"113 700 LINE",
"91 700 LINE",
"91 0 LINE"
);
},
{
closed = 1;
nodes = (
"239 171 LINE SMOOTH",
"326 171 OFFCURVE",
"384 243 OFFCURVE",
"384 351 CURVE SMOOTH",
"384 460 OFFCURVE",
"326 533 OFFCURVE",
"239 533 CURVE SMOOTH",
"113 533 LINE",
"113 512 LINE",
"239 512 LINE SMOOTH",
"313 512 OFFCURVE",
"362 448 OFFCURVE",
"362 351 CURVE SMOOTH",
"362 256 OFFCURVE",
"313 192 OFFCURVE",
"239 192 CURVE SMOOTH",
"113 192 LINE",
"113 171 LINE"
);
}
);
width = 426;
},
{
layerId = "4E2227F3-52E4-4048-A8EE-327B486EF0A4";
paths = (
{
closed = 1;
nodes = (
"212 0 LINE",
"212 700 LINE",
"24 700 LINE",
"24 0 LINE"
);
},
{
closed = 1;
nodes = (
"273 129 LINE SMOOTH",
"389 129 OFFCURVE",
"468 215 OFFCURVE",
"468 346 CURVE SMOOTH",
"468 479 OFFCURVE",
"385 571 OFFCURVE",
"263 571 CURVE SMOOTH",
"212 571 LINE",
"212 410 LINE",
"230 410 LINE SMOOTH",
"259 410 OFFCURVE",
"280 388 OFFCURVE",
"280 342 CURVE SMOOTH",
"280 297 OFFCURVE",
"259 276 OFFCURVE",
"230 276 CURVE SMOOTH",
"212 276 LINE",
"212 129 LINE"
);
}
);
width = 480;
}
);
leftMetricsKey = "=P";
rightKerningGroup = B;
rightMetricsKey = "=P";
unicode = 00DE;
},
{
glyphname = Q;
layers = (
{
hints = (
{
horizontal = 1;
place = "{708, -21}";
type = Stem;
},
{
place = "{70, 22}";
type = Stem;
},
{
place = "{472, 22}";
type = Stem;
},
{
horizontal = 1;
place = "{-8, -2147483648}";
type = Stem;
},
{
origin = "{1, 3}";
target = "{1, 0}";
type = Stem;
},
{
horizontal = 1;
origin = "{0, 13}";
target = "{2, 13}";
type = Stem;
}
);
layerId = "262880E7-CFE1-4BDA-902E-E24798F3240A";
paths = (
{
closed = 1;
nodes = (
"409 -8 OFFCURVE",
"494 76 OFFCURVE",
"494 201 CURVE SMOOTH",
"494 499 LINE SMOOTH",
"494 624 OFFCURVE",
"409 708 OFFCURVE",
"282 708 CURVE SMOOTH",
"155 708 OFFCURVE",
"70 624 OFFCURVE",
"70 499 CURVE SMOOTH",
"70 201 LINE SMOOTH",
"70 76 OFFCURVE",
"155 -8 OFFCURVE",
"282 -8 CURVE SMOOTH"
);
},
{
closed = 1;
nodes = (
"293 -127 LINE",
"293 0 LINE",
"271 0 LINE",
"271 -127 LINE"
);
},
{
closed = 1;
nodes = (
"168 13 OFFCURVE",
"92 88 OFFCURVE",
"92 200 CURVE SMOOTH",
"92 500 LINE SMOOTH",
"92 612 OFFCURVE",
"168 687 OFFCURVE",
"282 687 CURVE SMOOTH",
"396 687 OFFCURVE",
"472 612 OFFCURVE",
"472 500 CURVE SMOOTH",
"472 200 LINE SMOOTH",
"472 88 OFFCURVE",
"396 13 OFFCURVE",
"282 13 CURVE SMOOTH"
);
}
);
width = 564;
},
{
layerId = "4E2227F3-52E4-4048-A8EE-327B486EF0A4";
paths = (
{
closed = 1;
nodes = (
"367 -8 OFFCURVE",
"453 81 OFFCURVE",
"453 215 CURVE SMOOTH",
"453 485 LINE SMOOTH",
"453 619 OFFCURVE",
"367 708 OFFCURVE",
"236 708 CURVE SMOOTH",
"106 708 OFFCURVE",
"20 619 OFFCURVE",
"20 485 CURVE SMOOTH",
"20 215 LINE SMOOTH",
"20 81 OFFCURVE",
"106 -8 OFFCURVE",
"236 -8 CURVE SMOOTH"
);
},
{
closed = 1;
nodes = (
"330 -87 LINE",
"330 113 LINE",
"142 113 LINE",
"142 -87 LINE"
);
},
{
closed = 1;
nodes = (
"219 153 OFFCURVE",
"208 170 OFFCURVE",
"208 195 CURVE SMOOTH",
"208 505 LINE SMOOTH",
"208 530 OFFCURVE",
"219 547 OFFCURVE",
"236 547 CURVE SMOOTH",
"254 547 OFFCURVE",
"265 530 OFFCURVE",
"265 505 CURVE SMOOTH",
"265 195 LINE SMOOTH",
"265 170 OFFCURVE",
"254 153 OFFCURVE",
"236 153 CURVE SMOOTH"
);
}
);
width = 473;
},
{
layerId = "FFFA8D72-12AC-4CE0-B2CA-57A29829F4DA";
paths = (
{
closed = 1;
nodes = (
"466 -8 OFFCURVE",
"575 93 OFFCURVE",
"575 245 CURVE SMOOTH",
"575 440 LINE SMOOTH",
"575 601 OFFCURVE",
"466 708 OFFCURVE",
"302 708 CURVE SMOOTH",
"139 708 OFFCURVE",
"30 601 OFFCURVE",
"30 440 CURVE SMOOTH",
"30 245 LINE SMOOTH",
"30 93 OFFCURVE",
"139 -8 OFFCURVE",
"302 -8 CURVE SMOOTH"
);
},
{
closed = 1;
nodes = (
"397 -87 LINE",
"397 113 LINE",
"209 113 LINE",
"209 -87 LINE"
);
},
{
closed = 1;
nodes = (
"252 153 OFFCURVE",
"218 192 OFFCURVE",
"218 250 CURVE SMOOTH",
"218 450 LINE SMOOTH",
"218 508 OFFCURVE",
"252 547 OFFCURVE",
"302 547 CURVE SMOOTH",
"353 547 OFFCURVE",
"387 508 OFFCURVE",
"387 450 CURVE SMOOTH",
"387 250 LINE SMOOTH",
"387 192 OFFCURVE",
"353 153 OFFCURVE",
"302 153 CURVE SMOOTH"
);
}
);
width = 605;
},
{
layerId = "DCBE1F7B-116A-43E0-B7B4-8657BA77D8B5";
paths = (
{
closed = 1;
nodes = (
"302 -8 OFFCURVE",
"361 57 OFFCURVE",
"361 151 CURVE SMOOTH",
"361 549 LINE SMOOTH",
"361 643 OFFCURVE",
"302 708 OFFCURVE",
"216 708 CURVE SMOOTH",
"130 708 OFFCURVE",
"70 643 OFFCURVE",
"70 549 CURVE SMOOTH",
"70 151 LINE SMOOTH",
"70 57 OFFCURVE",
"130 -8 OFFCURVE",
"216 -8 CURVE SMOOTH"
);
},
{
closed = 1;
nodes = (
"227 -127 LINE",
"227 0 LINE",
"204 0 LINE",
"204 -127 LINE"
);
},
{
closed = 1;
nodes = (
"143 13 OFFCURVE",
"92 69 OFFCURVE",
"92 150 CURVE SMOOTH",
"92 550 LINE SMOOTH",
"92 631 OFFCURVE",
"143 687 OFFCURVE",
"216 687 CURVE SMOOTH",
"289 687 OFFCURVE",
"339 631 OFFCURVE",
"339 550 CURVE SMOOTH",
"339 150 LINE SMOOTH",
"339 69 OFFCURVE",
"289 13 OFFCURVE",
"216 13 CURVE SMOOTH"
);
}
);
width = 431;
}
);
leftKerningGroup = O;
rightKerningGroup = O;
unicode = 0051;
},
{
glyphname = R;
layers = (
{
anchors = (
{
name = bottom;
position = "{321, 0}";
},
{
name = top;
position = "{307, 700}";
}
);
hints = (
{
horizontal = 1;
origin = "{0, 18}";
target = "{0, 1}";
type = Stem;
},
{
horizontal = 1;
origin = "{0, 10}";
target = "{0, 9}";
type = Stem;
},
{
origin = "{0, 19}";
target = "{0, 0}";
type = Stem;
},
{
place = "{458, 0}";
type = Stem;
},
{
place = "{445, 0}";
type = Stem;
},
{
origin = "{0, 5}";
target = "{0, 14}";
type = Stem;
}
);
layerId = "262880E7-CFE1-4BDA-902E-E24798F3240A";
paths = (
{
closed = 1;
nodes = (
"139 0 LINE",
"139 679 LINE",
"367 679 LINE SMOOTH",
"459 679 OFFCURVE",
"521 615 OFFCURVE",
"521 520 CURVE SMOOTH",
"521 427 OFFCURVE",
"459 363 OFFCURVE",
"367 363 CURVE SMOOTH",
"134 363 LINE",
"134 342 LINE",
"365 342 LINE SMOOTH",
"472 342 OFFCURVE",
"543 413 OFFCURVE",
"543 520 CURVE SMOOTH",
"543 627 OFFCURVE",
"472 700 OFFCURVE",
"365 700 CURVE SMOOTH",
"117 700 LINE",
"117 0 LINE"
);
},
{
closed = 1;
nodes = (
"556 0 LINE",
"383 355 LINE",
"365 347 LINE",
"535 0 LINE"
);
}
);
width = 611;
},
{
anchors = (
{
name = bottom;
position = "{245, 0}";
},
{
name = top;
position = "{233, 700}";
}
);
layerId = "4E2227F3-52E4-4048-A8EE-327B486EF0A4";
paths = (
{
closed = 1;
nodes = (
"214 0 LINE",
"214 539 LINE",
"233 539 LINE SMOOTH",
"262 539 OFFCURVE",
"283 518 OFFCURVE",
"283 475 CURVE SMOOTH",
"283 434 OFFCURVE",
"262 412 OFFCURVE",
"233 412 CURVE SMOOTH",
"198 412 LINE",
"198 269 LINE",
"276 269 LINE SMOOTH",
"392 269 OFFCURVE",
"471 352 OFFCURVE",
"471 477 CURVE SMOOTH",
"471 608 OFFCURVE",
"388 700 OFFCURVE",
"266 700 CURVE SMOOTH",
"26 700 LINE",
"26 0 LINE"
);
},
{
closed = 1;
nodes = (
"480 0 LINE",
"381 349 LINE",
"202 349 LINE",
"286 0 LINE"
);
}
);
width = 490;
},
{
anchors = (
{
name = bottom;
position = "{292, 0}";
},
{
name = top;
position = "{278, 700}";
}
);
layerId = "FFFA8D72-12AC-4CE0-B2CA-57A29829F4DA";
paths = (
{
closed = 1;
nodes = (
"227 0 LINE",
"227 539 LINE",
"326 539 LINE SMOOTH",
"369 539 OFFCURVE",
"398 513 OFFCURVE",
"398 475 CURVE SMOOTH",
"398 437 OFFCURVE",
"369 412 OFFCURVE",
"326 412 CURVE SMOOTH",
"210 412 LINE",
"210 269 LINE",
"357 269 LINE SMOOTH",
"494 269 OFFCURVE",
"585 352 OFFCURVE",
"585 477 CURVE SMOOTH",
"585 611 OFFCURVE",
"494 700 OFFCURVE",
"357 700 CURVE SMOOTH",
"39 700 LINE",
"39 0 LINE"
);
},
{
closed = 1;
nodes = (
"595 0 LINE",
"428 349 LINE",
"243 349 LINE",
"395 0 LINE"
);
}
);
width = 615;
},
{
anchors = (
{
name = bottom;
position = "{230, 0}";
},
{
name = top;
position = "{220, 700}";
}
);
layerId = "DCBE1F7B-116A-43E0-B7B4-8657BA77D8B5";
paths = (
{
closed = 1;
nodes = (
"113 0 LINE",
"113 679 LINE",
"239 679 LINE SMOOTH",
"313 679 OFFCURVE",
"362 615 OFFCURVE",
"362 520 CURVE SMOOTH",
"362 426 OFFCURVE",
"313 363 OFFCURVE",
"239 363 CURVE SMOOTH",
"109 363 LINE",
"109 342 LINE",
"239 342 LINE SMOOTH",
"326 342 OFFCURVE",
"384 413 OFFCURVE",
"384 520 CURVE SMOOTH",
"384 628 OFFCURVE",
"326 700 OFFCURVE",
"239 700 CURVE SMOOTH",
"91 700 LINE",
"91 0 LINE"
);
},
{
closed = 1;
nodes = (
"389 0 LINE",
"258 353 LINE",
"239 345 LINE",
"367 0 LINE"
);
}
);
width = 424;
},
{
anchors = (
{
name = bottom;
position = "{292, 0}";
},
{
name = top;
position = "{278, 700}";
}
);
associatedMasterId = "FFFA8D72-12AC-4CE0-B2CA-57A29829F4DA";
layerId = "D13203D4-6148-4CCE-A56D-F97AB41F30AE";
name = Maybe;
paths = (
{
closed = 1;
nodes = (
"227 0 LINE",
"227 539 LINE",
"326 539 LINE SMOOTH",
"369 539 OFFCURVE",
"398 513 OFFCURVE",
"398 475 CURVE SMOOTH",
"398 437 OFFCURVE",
"369 412 OFFCURVE",
"326 412 CURVE SMOOTH",
"210 412 LINE",
"210 269 LINE",
"357 269 LINE SMOOTH",
"494 269 OFFCURVE",
"585 352 OFFCURVE",
"585 477 CURVE SMOOTH",
"585 611 OFFCURVE",
"494 700 OFFCURVE",
"357 700 CURVE SMOOTH",
"39 700 LINE",
"39 0 LINE"
);
},
{
closed = 1;
nodes = (
"593 0 LINE",
"442 349 LINE",
"257 349 LINE",
"393 0 LINE"
);
}
);
width = 615;
}
);
rightKerningGroup = R;
unicode = 0052;
},
{
glyphname = S;
layers = (
{
anchors = (
{
name = bottom;
position = "{286, -8}";
},
{
name = top;
position = "{281, 700}";
}
);
hints = (
{
horizontal = 1;
origin = "{0, 20}";
target = "{0, 11}";
type = Stem;
},
{
origin = "{0, 14}";
target = "{0, 17}";
type = Stem;
},
{
horizontal = 1;
origin = "{0, 41}";
target = "{0, 32}";
type = Stem;
},
{
origin = "{0, 37}";
target = "{0, 36}";
type = Stem;
}
);
layerId = "262880E7-CFE1-4BDA-902E-E24798F3240A";
paths = (
{
closed = 1;
nodes = (
"437 -8 OFFCURVE",
"511 63 OFFCURVE",
"511 163 CURVE SMOOTH",
"511 261 OFFCURVE",
"439 314 OFFCURVE",
"294 375 CURVE SMOOTH",
"165 429 OFFCURVE",
"101 456 OFFCURVE",
"101 548 CURVE SMOOTH",
"101 639 OFFCURVE",
"165 687 OFFCURVE",
"280 687 CURVE SMOOTH",
"411 687 OFFCURVE",
"482 625 OFFCURVE",
"482 533 CURVE SMOOTH",
"482 500 LINE",
"504 500 LINE",
"504 535 LINE SMOOTH",
"504 639 OFFCURVE",
"427 708 OFFCURVE",
"282 708 CURVE SMOOTH",
"152 708 OFFCURVE",
"80 652 OFFCURVE",
"80 546 CURVE SMOOTH",
"80 443 OFFCURVE",
"148 413 OFFCURVE",
"279 356 CURVE",
"432 289 OFFCURVE",
"489 245 OFFCURVE",
"489 161 CURVE SMOOTH",
"489 69 OFFCURVE",
"421 13 OFFCURVE",
"295 13 CURVE SMOOTH",
"162 13 OFFCURVE",
"84 74 OFFCURVE",
"84 166 CURVE SMOOTH",
"84 210 LINE",
"64 210 LINE",
"64 164 LINE SMOOTH",
"64 60 OFFCURVE",
"150 -8 OFFCURVE",
"293 -8 CURVE SMOOTH"
);
}
);
width = 577;
},
{
anchors = (
{
name = bottom;
position = "{235, -8}";
},
{
name = top;
position = "{231, 700}";
}
);
layerId = "4E2227F3-52E4-4048-A8EE-327B486EF0A4";
paths = (
{
closed = 1;
nodes = (
"362 -8 OFFCURVE",
"449 68 OFFCURVE",
"449 191 CURVE SMOOTH",
"449 294 OFFCURVE",
"388 341 OFFCURVE",
"283 418 CURVE SMOOTH",
"219 465 OFFCURVE",
"203 483 OFFCURVE",
"203 510 CURVE SMOOTH",
"203 532 OFFCURVE",
"214 547 OFFCURVE",
"231 547 CURVE SMOOTH",
"248 547 OFFCURVE",
"260 533 OFFCURVE",
"260 513 CURVE SMOOTH",
"260 472 LINE",
"445 472 LINE",
"445 509 LINE SMOOTH",
"445 628 OFFCURVE",
"360 708 OFFCURVE",
"231 708 CURVE SMOOTH",
"103 708 OFFCURVE",
"18 628 OFFCURVE",
"18 509 CURVE SMOOTH",
"18 386 OFFCURVE",
"110 321 OFFCURVE",
"181 271 CURVE SMOOTH",
"246 225 OFFCURVE",
"264 209 OFFCURVE",
"264 185 CURVE SMOOTH",
"264 166 OFFCURVE",
"252 153 OFFCURVE",
"236 153 CURVE SMOOTH",
"220 153 OFFCURVE",
"208 167 OFFCURVE",
"208 189 CURVE SMOOTH",
"208 226 LINE",
"22 226 LINE",
"22 180 LINE SMOOTH",
"22 70 OFFCURVE",
"106 -8 OFFCURVE",
"235 -8 CURVE SMOOTH"
);
}
);
width = 463;
},
{
anchors = (
{
name = bottom;
position = "{303, -8}";
},
{
name = top;
position = "{300, 700}";
}
);
layerId = "FFFA8D72-12AC-4CE0-B2CA-57A29829F4DA";
paths = (
{
closed = 1;
nodes = (
"465 -8 OFFCURVE",
"575 72 OFFCURVE",
"575 208 CURVE SMOOTH",
"575 359 OFFCURVE",
"427 392 OFFCURVE",
"358 414 CURVE SMOOTH",
"254 447 OFFCURVE",
"217 462 OFFCURVE",
"217 498 CURVE SMOOTH",
"217 528 OFFCURVE",
"243 547 OFFCURVE",
"286 547 CURVE SMOOTH",
"351 547 OFFCURVE",
"386 504 OFFCURVE",
"386 468 CURVE SMOOTH",
"386 452 LINE",
"571 452 LINE",
"571 476 LINE SMOOTH",
"571 615 OFFCURVE",
"450 708 OFFCURVE",
"293 708 CURVE SMOOTH",
"144 708 OFFCURVE",
"32 625 OFFCURVE",
"32 496 CURVE SMOOTH",
"32 352 OFFCURVE",
"172 299 OFFCURVE",
"265 271 CURVE SMOOTH",
"338 249 OFFCURVE",
"387 241 OFFCURVE",
"387 203 CURVE SMOOTH",
"387 184 OFFCURVE",
"374 153 OFFCURVE",
"318 153 CURVE SMOOTH",
"248 153 OFFCURVE",
"210 190 OFFCURVE",
"210 224 CURVE SMOOTH",
"210 245 LINE",
"25 245 LINE",
"25 216 LINE SMOOTH",
"25 80 OFFCURVE",
"134 -8 OFFCURVE",
"304 -8 CURVE SMOOTH"
);
}
);
width = 602;
},
{
anchors = (
{
name = bottom;
position = "{197, -8}";
},
{
name = top;
position = "{191, 700}";
}
);
layerId = "DCBE1F7B-116A-43E0-B7B4-8657BA77D8B5";
paths = (
{
closed = 1;
nodes = (
"283 -8 OFFCURVE",
"345 60 OFFCURVE",
"345 166 CURVE SMOOTH",
"345 257 OFFCURVE",
"300 294 OFFCURVE",
"200 369 CURVE SMOOTH",
"113 434 OFFCURVE",
"72 469 OFFCURVE",
"72 549 CURVE SMOOTH",
"72 640 OFFCURVE",
"124 688 OFFCURVE",
"191 688 CURVE SMOOTH",
"266 688 OFFCURVE",
"317 627 OFFCURVE",
"317 534 CURVE SMOOTH",
"317 500 LINE",
"339 500 LINE",
"339 535 LINE SMOOTH",
"339 639 OFFCURVE",
"280 708 OFFCURVE",
"191 708 CURVE SMOOTH",
"111 708 OFFCURVE",
"50 652 OFFCURVE",
"50 551 CURVE SMOOTH",
"50 453 OFFCURVE",
"106 409 OFFCURVE",
"188 347 CURVE SMOOTH",
"266 288 OFFCURVE",
"323 250 OFFCURVE",
"323 159 CURVE SMOOTH",
"323 70 OFFCURVE",
"268 12 OFFCURVE",
"196 12 CURVE SMOOTH",
"123 12 OFFCURVE",
"71 72 OFFCURVE",
"71 165 CURVE SMOOTH",
"71 192 LINE",
"50 192 LINE",
"50 164 LINE SMOOTH",
"50 60 OFFCURVE",
"111 -8 OFFCURVE",
"197 -8 CURVE SMOOTH"
);
}
);
width = 397;
}
);
leftKerningGroup = S;
rightKerningGroup = S;
unicode = 0053;
},
{
color = 3;
glyphname = Schwa;
layers = (
{
anchors = (
{
name = top;
position = "{242, 699}";
}
);
layerId = "DCBE1F7B-116A-43E0-B7B4-8657BA77D8B5";
paths = (
{
closed = 1;
nodes = (
"153 708 OFFCURVE",
"80 642 OFFCURVE",
"66 548 CURVE",
"88 549 LINE",
"103 632 OFFCURVE",
"166 687 OFFCURVE",
"248 687 CURVE SMOOTH",
"343 687 OFFCURVE",
"410 614 OFFCURVE",
"410 511 CURVE SMOOTH",
"410 457 OFFCURVE",
"410 403 OFFCURVE",
"410 350 CURVE SMOOTH",
"410 296 OFFCURVE",
"410 241 OFFCURVE",
"410 187 CURVE SMOOTH",
"410 84 OFFCURVE",
"343 10 OFFCURVE",
"248 10 CURVE SMOOTH",
"152 10 OFFCURVE",
"85 84 OFFCURVE",
"85 187 CURVE SMOOTH",
"85 236 OFFCURVE",
"85 333 OFFCURVE",
"85 335 CURVE",
"75 328 LINE",
"419 328 LINE",
"419 350 LINE",
"63 350 LINE",
"63 235 OFFCURVE",
"63 239 OFFCURVE",
"63 187 CURVE SMOOTH",
"63 73 OFFCURVE",
"139 -11 OFFCURVE",
"248 -11 CURVE SMOOTH",
"355 -11 OFFCURVE",
"432 72 OFFCURVE",
"432 187 CURVE SMOOTH",
"432 241 OFFCURVE",
"432 296 OFFCURVE",
"432 350 CURVE SMOOTH",
"432 403 OFFCURVE",
"432 456 OFFCURVE",
"432 510 CURVE SMOOTH",
"432 624 OFFCURVE",
"356 708 OFFCURVE",
"248 708 CURVE SMOOTH"
);
}
);
width = 502;
},
{
anchors = (
{
name = top;
position = "{279, 718}";
}
);
layerId = "4E2227F3-52E4-4048-A8EE-327B486EF0A4";
paths = (
{
closed = 1;
nodes = (
"113 708 OFFCURVE",
"27 626 OFFCURVE",
"21 477 CURVE",
"204 466 LINE",
"208 508 OFFCURVE",
"234 546 OFFCURVE",
"278 546 CURVE SMOOTH",
"320 546 OFFCURVE",
"350 511 OFFCURVE",
"350 461 CURVE SMOOTH",
"350 420 OFFCURVE",
"350 400 OFFCURVE",
"350 359 CURVE SMOOTH",
"350 323 OFFCURVE",
"350 238 OFFCURVE",
"350 236 CURVE SMOOTH",
"350 185 OFFCURVE",
"320 150 OFFCURVE",
"278 150 CURVE SMOOTH",
"235 150 OFFCURVE",
"205 186 OFFCURVE",
"205 236 CURVE SMOOTH",
"205 271 OFFCURVE",
"205 285 OFFCURVE",
"205 315 CURVE",
"142 279 LINE",
"401 279 LINE",
"401 400 LINE",
"18 400 LINE",
"18 375 OFFCURVE",
"18 295 OFFCURVE",
"18 222 CURVE SMOOTH",
"18 84 OFFCURVE",
"114 -11 OFFCURVE",
"278 -11 CURVE SMOOTH",
"441 -11 OFFCURVE",
"538 84 OFFCURVE",
"538 222 CURVE SMOOTH",
"538 261 OFFCURVE",
"538 319 OFFCURVE",
"538 359 CURVE SMOOTH",
"538 404 OFFCURVE",
"538 429 OFFCURVE",
"538 475 CURVE SMOOTH",
"538 619 OFFCURVE",
"441 708 OFFCURVE",
"278 708 CURVE SMOOTH"
);
}
);
width = 558;
},
{
anchors = (
{
name = top;
position = "{301, 603}";
}
);
associatedMasterId = "4E2227F3-52E4-4048-A8EE-327B486EF0A4";
hints = (
{
horizontal = 1;
origin = "{0, 27}";
target = "{0, 26}";
type = Stem;
},
{
origin = "{0, 24}";
target = "{0, 28}";
type = Stem;
},
{
origin = "{0, 40}";
target = "{0, 12}";
type = Stem;
},
{
horizontal = 1;
origin = "{0, 46}";
target = "{0, 6}";
type = Stem;
},
{
horizontal = 1;
origin = "{0, 34}";
target = "{0, 18}";
type = Stem;
}
);
layerId = "2A2B9E74-0281-441B-9A83-648CC11D66AE";
name = "{100,500}";
paths = (
{
closed = 1;
nodes = (
"188 613 OFFCURVE",
"106 563 OFFCURVE",
"66 484 CURVE",
"144 430 LINE",
"171 487 OFFCURVE",
"222 525 OFFCURVE",
"289 526 CURVE SMOOTH",
"373 527 OFFCURVE",
"425 484 OFFCURVE",
"443 421 CURVE SMOOTH",
"452 396 OFFCURVE",
"455 358 OFFCURVE",
"455 302 CURVE SMOOTH",
"455 252 OFFCURVE",
"453 210 OFFCURVE",
"446 183 CURVE SMOOTH",
"430 120 OFFCURVE",
"381 77 OFFCURVE",
"306 77 CURVE SMOOTH",
"230 77 OFFCURVE",
"178 121 OFFCURVE",
"163 186 CURVE SMOOTH",
"157 210 OFFCURVE",
"155 253 OFFCURVE",
"155 295 CURVE",
"116 251 LINE",
"486 251 LINE",
"486 337 LINE",
"55 337 LINE",
"54 274 OFFCURVE",
"54 236 OFFCURVE",
"60 199 CURVE SMOOTH",
"80 75 OFFCURVE",
"166 -10 OFFCURVE",
"307 -10 CURVE SMOOTH",
"425 -10 OFFCURVE",
"512 59 OFFCURVE",
"541 161 CURVE SMOOTH",
"551 199 OFFCURVE",
"554 239 OFFCURVE",
"554 298 CURVE SMOOTH",
"554 360 OFFCURVE",
"550 406 OFFCURVE",
"536 448 CURVE SMOOTH",
"502 549 OFFCURVE",
"418 612 OFFCURVE",
"299 612 CURVE SMOOTH"
);
}
);
width = 616;
},
{
anchors = (
{
name = top;
position = "{259, 708}";
}
);
associatedMasterId = "4E2227F3-52E4-4048-A8EE-327B486EF0A4";
hints = (
{
horizontal = 1;
origin = "{0, 27}";
target = "{0, 26}";
type = Stem;
},
{
origin = "{0, 24}";
target = "{0, 28}";
type = Stem;
},
{
origin = "{0, 40}";
target = "{0, 12}";
type = Stem;
},
{
horizontal = 1;
origin = "{0, 46}";
target = "{0, 6}";
type = Stem;
},
{
horizontal = 1;
origin = "{0, 34}";
target = "{0, 18}";
type = Stem;
}
);
layerId = "08201EB5-B49F-440A-802B-CA47CCD12539";
name = "{100,300}";
paths = (
{
closed = 1;
nodes = (
"134 708 OFFCURVE",
"55 634 OFFCURVE",
"45 515 CURVE",
"150 510 LINE",
"159 574 OFFCURVE",
"198 621 OFFCURVE",
"262 621 CURVE SMOOTH",
"332 621 OFFCURVE",
"382 566 OFFCURVE",
"382 488 CURVE SMOOTH",
"382 440 OFFCURVE",
"382 402 OFFCURVE",
"382 354 CURVE SMOOTH",
"382 309 OFFCURVE",
"382 240 OFFCURVE",
"382 210 CURVE SMOOTH",
"382 131 OFFCURVE",
"332 76 OFFCURVE",
"262 76 CURVE SMOOTH",
"191 76 OFFCURVE",
"141 132 OFFCURVE",
"141 210 CURVE SMOOTH",
"141 252 OFFCURVE",
"141 310 OFFCURVE",
"141 326 CURVE",
"106 291 LINE",
"411 291 LINE",
"411 383 LINE",
"42 383 LINE",
"42 311 OFFCURVE",
"42 265 OFFCURVE",
"42 203 CURVE SMOOTH",
"42 78 OFFCURVE",
"127 -11 OFFCURVE",
"262 -11 CURVE SMOOTH",
"395 -11 OFFCURVE",
"482 78 OFFCURVE",
"482 203 CURVE SMOOTH",
"482 250 OFFCURVE",
"482 307 OFFCURVE",
"482 354 CURVE SMOOTH",
"482 403 OFFCURVE",
"482 443 OFFCURVE",
"482 494 CURVE SMOOTH",
"482 622 OFFCURVE",
"396 708 OFFCURVE",
"262 708 CURVE SMOOTH"
);
}
);
width = 529;
},
{
anchors = (
{
name = top;
position = "{325, 661}";
}
);
associatedMasterId = "4E2227F3-52E4-4048-A8EE-327B486EF0A4";
hints = (
{
horizontal = 1;
origin = "{0, 27}";
target = "{0, 26}";
type = Stem;
},
{
origin = "{0, 24}";
target = "{0, 28}";
type = Stem;
},
{
origin = "{0, 40}";
target = "{0, 12}";
type = Stem;
},
{
horizontal = 1;
origin = "{0, 46}";
target = "{0, 6}";
type = Stem;
},
{
horizontal = 1;
origin = "{0, 34}";
target = "{0, 18}";
type = Stem;
}
);
layerId = "2A2CF652-FDA6-4CD5-BE40-6F49EDC401C9";
name = "{144,500}";
paths = (
{
closed = 1;
nodes = (
"197 672 OFFCURVE",
"106 624 OFFCURVE",
"55 540 CURVE",
"150 455 LINE",
"179 510 OFFCURVE",
"228 547 OFFCURVE",
"304 548 CURVE SMOOTH",
"387 548 OFFCURVE",
"436 511 OFFCURVE",
"457 453 CURVE SMOOTH",
"468 425 OFFCURVE",
"473 387 OFFCURVE",
"473 331 CURVE SMOOTH",
"473 283 OFFCURVE",
"470 240 OFFCURVE",
"461 211 CURVE SMOOTH",
"444 152 OFFCURVE",
"400 114 OFFCURVE",
"331 114 CURVE SMOOTH",
"259 114 OFFCURVE",
"211 154 OFFCURVE",
"195 215 CURVE SMOOTH",
"188 241 OFFCURVE",
"186 284 OFFCURVE",
"186 325 CURVE",
"130 263 LINE",
"516 263 LINE",
"516 385 LINE",
"42 385 LINE",
"40 334 OFFCURVE",
"40 285 OFFCURVE",
"46 242 CURVE SMOOTH",
"68 92 OFFCURVE",
"164 -11 OFFCURVE",
"332 -11 CURVE SMOOTH",
"465 -11 OFFCURVE",
"564 66 OFFCURVE",
"599 183 CURVE SMOOTH",
"611 224 OFFCURVE",
"615 267 OFFCURVE",
"615 326 CURVE SMOOTH",
"615 391 OFFCURVE",
"609 441 OFFCURVE",
"591 489 CURVE SMOOTH",
"549 603 OFFCURVE",
"453 671 OFFCURVE",
"319 671 CURVE SMOOTH"
);
}
);
width = 661;
},
{
anchors = (
{
name = top;
position = "{262, 500}";
}
);
hints = (
{
horizontal = 1;
origin = "{0, 27}";
target = "{0, 26}";
type = Stem;
},
{
origin = "{0, 24}";
target = "{0, 28}";
type = Stem;
},
{
origin = "{0, 40}";
target = "{0, 12}";
type = Stem;
},
{
horizontal = 1;
origin = "{0, 46}";
target = "{0, 6}";
type = Stem;
},
{
horizontal = 1;
origin = "{0, 34}";
target = "{0, 18}";
type = Stem;
}
);
layerId = "262880E7-CFE1-4BDA-902E-E24798F3240A";
paths = (
{
closed = 1;
nodes = (
"174 508 OFFCURVE",
"109 456 OFFCURVE",
"89 384 CURVE",
"111 383 LINE",
"130 444 OFFCURVE",
"186 487 OFFCURVE",
"265 487 CURVE SMOOTH",
"350 487 OFFCURVE",
"407 437 OFFCURVE",
"421 365 CURVE SMOOTH",
"425 344 OFFCURVE",
"425 307 OFFCURVE",
"425 250 CURVE SMOOTH",
"425 198 OFFCURVE",
"425 157 OFFCURVE",
"421 135 CURVE SMOOTH",
"408 64 OFFCURVE",
"350 13 OFFCURVE",
"265 13 CURVE SMOOTH",
"180 13 OFFCURVE",
"122 64 OFFCURVE",
"108 135 CURVE SMOOTH",
"104 155 OFFCURVE",
"103 198 OFFCURVE",
"103 242 CURVE",
"94 233 LINE",
"435 233 LINE",
"435 253 LINE",
"81 253 LINE",
"81 167 OFFCURVE",
"81 150 OFFCURVE",
"87 123 CURVE SMOOTH",
"104 46 OFFCURVE",
"172 -8 OFFCURVE",
"265 -8 CURVE SMOOTH",
"357 -8 OFFCURVE",
"422 46 OFFCURVE",
"440 123 CURVE SMOOTH",
"447 155 OFFCURVE",
"447 190 OFFCURVE",
"447 249 CURVE SMOOTH",
"447 305 OFFCURVE",
"448 344 OFFCURVE",
"440 377 CURVE SMOOTH",
"421 454 OFFCURVE",
"357 508 OFFCURVE",
"265 508 CURVE SMOOTH"
);
}
);
width = 537;
},
{
anchors = (
{
name = top;
position = "{348, 719}";
}
);
guideLines = (
{
position = "{798, 79}";
},
{
position = "{1456, 267}";
},
{
position = "{1198, 193}";
},
{
position = "{1586, 306}";
},
{
position = "{915, 113}";
}
);
layerId = "FFFA8D72-12AC-4CE0-B2CA-57A29829F4DA";
paths = (
{
closed = 1;
nodes = (
"206 731 OFFCURVE",
"105 684 OFFCURVE",
"43 596 CURVE",
"165 480 LINE",
"197 534 OFFCURVE",
"244 568 OFFCURVE",
"318 569 CURVE SMOOTH",
"401 570 OFFCURVE",
"447 538 OFFCURVE",
"470 485 CURVE SMOOTH",
"484 454 OFFCURVE",
"490 416 OFFCURVE",
"490 360 CURVE SMOOTH",
"490 313 OFFCURVE",
"486 269 OFFCURVE",
"476 238 CURVE SMOOTH",
"458 183 OFFCURVE",
"418 150 OFFCURVE",
"355 150 CURVE SMOOTH",
"288 150 OFFCURVE",
"243 186 OFFCURVE",
"227 243 CURVE SMOOTH",
"219 271 OFFCURVE",
"216 315 OFFCURVE",
"216 354 CURVE",
"144 293 LINE",
"545 293 LINE",
"545 420 LINE",
"28 420 LINE",
"26 382 OFFCURVE",
"25 333 OFFCURVE",
"32 284 CURVE SMOOTH",
"56 108 OFFCURVE",
"162 -12 OFFCURVE",
"356 -12 CURVE SMOOTH",
"504 -12 OFFCURVE",
"615 73 OFFCURVE",
"657 204 CURVE SMOOTH",
"671 248 OFFCURVE",
"676 295 OFFCURVE",
"676 354 CURVE SMOOTH",
"676 422 OFFCURVE",
"667 475 OFFCURVE",
"646 529 CURVE SMOOTH",
"596 657 OFFCURVE",
"488 729 OFFCURVE",
"339 730 CURVE SMOOTH"
);
}
);
width = 706;
},
{
anchors = (
{
name = top;
position = "{274, 716}";
}
);
associatedMasterId = "4E2227F3-52E4-4048-A8EE-327B486EF0A4";
hints = (
{
horizontal = 1;
origin = "{0, 27}";
target = "{0, 26}";
type = Stem;
},
{
origin = "{0, 24}";
target = "{0, 28}";
type = Stem;
},
{
origin = "{0, 40}";
target = "{0, 12}";
type = Stem;
},
{
horizontal = 1;
origin = "{0, 46}";
target = "{0, 6}";
type = Stem;
},
{
horizontal = 1;
origin = "{0, 34}";
target = "{0, 18}";
type = Stem;
}
);
layerId = "6A71C6C0-6498-4E03-A0EC-57F8322562B8";
name = "{166,300}";
paths = (
{
closed = 1;
nodes = (
"118 708 OFFCURVE",
"34 628 OFFCURVE",
"27 487 CURVE",
"189 477 LINE",
"194 525 OFFCURVE",
"225 565 OFFCURVE",
"274 565 CURVE SMOOTH",
"323 565 OFFCURVE",
"358 525 OFFCURVE",
"358 468 CURVE SMOOTH",
"358 425 OFFCURVE",
"358 408 OFFCURVE",
"358 358 CURVE SMOOTH",
"358 320 OFFCURVE",
"358 239 OFFCURVE",
"358 230 CURVE SMOOTH",
"358 172 OFFCURVE",
"323 132 OFFCURVE",
"274 132 CURVE SMOOTH",
"224 132 OFFCURVE",
"189 173 OFFCURVE",
"189 230 CURVE SMOOTH",
"189 266 OFFCURVE",
"189 291 OFFCURVE",
"189 318 CURVE",
"133 276 LINE",
"404 276 LINE",
"404 403 LINE",
"24 403 LINE",
"24 366 OFFCURVE",
"24 288 OFFCURVE",
"24 217 CURVE SMOOTH",
"24 83 OFFCURVE",
"117 -11 OFFCURVE",
"274 -11 CURVE SMOOTH",
"430 -11 OFFCURVE",
"524 83 OFFCURVE",
"524 217 CURVE SMOOTH",
"524 258 OFFCURVE",
"524 316 OFFCURVE",
"524 358 CURVE SMOOTH",
"524 404 OFFCURVE",
"524 433 OFFCURVE",
"524 480 CURVE SMOOTH",
"524 620 OFFCURVE",
"430 708 OFFCURVE",
"274 708 CURVE SMOOTH"
);
}
);
width = 551;
},
{
anchors = (
{
name = top;
position = "{315, 719}";
}
);
associatedMasterId = "262880E7-CFE1-4BDA-902E-E24798F3240A";
hints = (
{
horizontal = 1;
origin = "{0, 27}";
target = "{0, 26}";
type = Stem;
},
{
origin = "{0, 24}";
target = "{0, 28}";
type = Stem;
},
{
origin = "{0, 40}";
target = "{0, 12}";
type = Stem;
},
{
horizontal = 1;
origin = "{0, 46}";
target = "{0, 6}";
type = Stem;
},
{
horizontal = 1;
origin = "{0, 34}";
target = "{0, 18}";
type = Stem;
}
);
layerId = "77539BFB-0A83-4960-9558-E507C43AA1DE";
name = "{188,400}";
paths = (
{
closed = 1;
nodes = (
"161 708 OFFCURVE",
"67 644 OFFCURVE",
"33 526 CURVE",
"186 462 LINE",
"204 510 OFFCURVE",
"240 546 OFFCURVE",
"299 547 CURVE SMOOTH",
"362 548 OFFCURVE",
"399 514 OFFCURVE",
"411 462 CURVE SMOOTH",
"419 426 OFFCURVE",
"421 408 OFFCURVE",
"421 360 CURVE SMOOTH",
"421 318 OFFCURVE",
"419 254 OFFCURVE",
"414 237 CURVE SMOOTH",
"405 184 OFFCURVE",
"370 150 OFFCURVE",
"318 150 CURVE SMOOTH",
"263 150 OFFCURVE",
"225 186 OFFCURVE",
"217 240 CURVE SMOOTH",
"213 271 OFFCURVE",
"212 310 OFFCURVE",
"212 345 CURVE",
"144 296 LINE",
"474 296 LINE",
"474 420 LINE",
"24 420 LINE",
"22 360 OFFCURVE",
"23 306 OFFCURVE",
"29 257 CURVE SMOOTH",
"48 89 OFFCURVE",
"123 -12 OFFCURVE",
"318 -12 CURVE SMOOTH",
"489 -12 OFFCURVE",
"569 72 OFFCURVE",
"597 218 CURVE SMOOTH",
"605 259 OFFCURVE",
"608 306 OFFCURVE",
"608 357 CURVE SMOOTH",
"608 405 OFFCURVE",
"603 449 OFFCURVE",
"594 488 CURVE SMOOTH",
"561 627 OFFCURVE",
"468 708 OFFCURVE",
"310 708 CURVE SMOOTH"
);
}
);
width = 633;
}
);
leftKerningGroup = o;
leftMetricsKey = "=|C";
rightKerningGroup = e;
rightMetricsKey = "=O";
unicode = 018F;
},
{
glyphname = T;
layers = (
{
anchors = (
{
name = bottom;
position = "{279, 0}";
},
{
name = top;
position = "{274, 700}";
}
);
hints = (
{
horizontal = 1;
origin = "{1, 2}";
target = "{1, 3}";
type = Stem;
},
{
origin = "{0, 3}";
target = "{0, 0}";
type = Stem;
}
);
layerId = "262880E7-CFE1-4BDA-902E-E24798F3240A";
paths = (
{
closed = 1;
nodes = (
"285 0 LINE",
"285 689 LINE",
"263 689 LINE",
"263 0 LINE"
);
},
{
closed = 1;
nodes = (
"504 679 LINE",
"504 700 LINE",
"54 700 LINE",
"54 679 LINE"
);
}
);
width = 558;
},
{
anchors = (
{
name = bottom;
position = "{243, 0}";
},
{
name = top;
position = "{252, 700}";
}
);
layerId = "4E2227F3-52E4-4048-A8EE-327B486EF0A4";
paths = (
{
closed = 1;
nodes = (
"342 0 LINE",
"342 689 LINE",
"154 689 LINE",
"154 0 LINE"
);
},
{
closed = 1;
nodes = (
"481 539 LINE",
"481 700 LINE",
"18 700 LINE",
"18 539 LINE"
);
}
);
width = 499;
},
{
anchors = (
{
name = bottom;
position = "{294, 0}";
},
{
name = top;
position = "{295, 700}";
}
);
layerId = "FFFA8D72-12AC-4CE0-B2CA-57A29829F4DA";
paths = (
{
closed = 1;
nodes = (
"389 0 LINE",
"389 689 LINE",
"201 689 LINE",
"201 0 LINE"
);
},
{
closed = 1;
nodes = (
"577 538 LINE",
"577 700 LINE",
"18 700 LINE",
"18 538 LINE"
);
}
);
width = 595;
},
{
anchors = (
{
name = bottom;
position = "{195, -4}";
},
{
name = top;
position = "{192, 700}";
}
);
layerId = "DCBE1F7B-116A-43E0-B7B4-8657BA77D8B5";
paths = (
{
closed = 1;
nodes = (
"202 0 LINE",
"202 689 LINE",
"180 689 LINE",
"180 0 LINE"
);
},
{
closed = 1;
nodes = (
"351 679 LINE",
"351 700 LINE",
"40 700 LINE",
"40 679 LINE"
);
}
);
width = 391;
}
);
leftKerningGroup = T;
rightKerningGroup = T;
unicode = 0054;
},
{
glyphname = U;
layers = (
{
anchors = (
{
name = bottom;
position = "{332, 0}";
},
{
name = ogonek;
position = "{595, 10}";
},
{
name = top;
position = "{330, 700}";
},
{
name = topright;
position = "{641, 700}";
}
);
hints = (
{
origin = "{0, 5}";
target = "{0, 2}";
type = Stem;
},
{
origin = "{0, 14}";
target = "{0, 11}";
type = Stem;
},
{
horizontal = 1;
origin = "{0, 17}";
target = "{0, 8}";
type = Stem;
}
);
layerId = "262880E7-CFE1-4BDA-902E-E24798F3240A";
paths = (
{
closed = 1;
nodes = (
"464 -8 OFFCURVE",
"553 77 OFFCURVE",
"553 205 CURVE SMOOTH",
"553 700 LINE",
"531 700 LINE",
"531 202 LINE SMOOTH",
"531 89 OFFCURVE",
"451 13 OFFCURVE",
"330 13 CURVE SMOOTH",
"210 13 OFFCURVE",
"130 89 OFFCURVE",
"130 202 CURVE SMOOTH",
"130 700 LINE",
"108 700 LINE",
"108 205 LINE SMOOTH",
"108 77 OFFCURVE",
"197 -8 OFFCURVE",
"330 -8 CURVE SMOOTH"
);
}
);
width = 661;
},
{
anchors = (
{
name = bottom;
position = "{241, 0}";
},
{
name = ogonek;
position = "{433, 10}";
},
{
name = top;
position = "{241, 700}";
},
{
name = topright;
position = "{461, 700}";
}
);
layerId = "4E2227F3-52E4-4048-A8EE-327B486EF0A4";
paths = (
{
closed = 1;
nodes = (
"371 -8 OFFCURVE",
"457 78 OFFCURVE",
"457 208 CURVE SMOOTH",
"457 700 LINE",
"269 700 LINE",
"269 190 LINE SMOOTH",
"269 168 OFFCURVE",
"258 153 OFFCURVE",
"241 153 CURVE SMOOTH",
"223 153 OFFCURVE",
"212 168 OFFCURVE",
"212 190 CURVE SMOOTH",
"212 700 LINE",
"24 700 LINE",
"24 208 LINE SMOOTH",
"24 78 OFFCURVE",
"110 -8 OFFCURVE",
"241 -8 CURVE SMOOTH"
);
}
);
width = 481;
},
{
anchors = (
{
name = bottom;
position = "{310, 0}";
},
{
name = ogonek;
position = "{555, 10}";
},
{
name = top;
position = "{309, 700}";
},
{
name = topright;
position = "{597, 700}";
}
);
layerId = "FFFA8D72-12AC-4CE0-B2CA-57A29829F4DA";
paths = (
{
closed = 1;
nodes = (
"473 -8 OFFCURVE",
"582 92 OFFCURVE",
"582 243 CURVE SMOOTH",
"582 700 LINE",
"394 700 LINE",
"394 243 LINE SMOOTH",
"394 189 OFFCURVE",
"360 153 OFFCURVE",
"309 153 CURVE SMOOTH",
"257 153 OFFCURVE",
"223 189 OFFCURVE",
"223 243 CURVE SMOOTH",
"223 700 LINE",
"35 700 LINE",
"35 243 LINE SMOOTH",
"35 92 OFFCURVE",
"145 -8 OFFCURVE",
"309 -8 CURVE SMOOTH"
);
}
);
width = 617;
},
{
anchors = (
{
name = bottom;
position = "{238, 0}";
},
{
name = ogonek;
position = "{427, 10}";
},
{
name = top;
position = "{236, 700}";
},
{
name = topright;
position = "{421, 700}";
}
);
layerId = "DCBE1F7B-116A-43E0-B7B4-8657BA77D8B5";
paths = (
{
closed = 1;
nodes = (
"328 -8 OFFCURVE",
"390 65 OFFCURVE",
"390 175 CURVE SMOOTH",
"390 700 LINE",
"368 700 LINE",
"368 172 LINE SMOOTH",
"368 77 OFFCURVE",
"315 13 OFFCURVE",
"236 13 CURVE SMOOTH",
"158 13 OFFCURVE",
"106 77 OFFCURVE",
"106 172 CURVE SMOOTH",
"106 700 LINE",
"84 700 LINE",
"84 175 LINE SMOOTH",
"84 65 OFFCURVE",
"145 -8 OFFCURVE",
"236 -8 CURVE SMOOTH"
);
}
);
width = 474;
}
);
leftKerningGroup = U;
rightKerningGroup = U;
unicode = 0055;
},
{
glyphname = V;
layers = (
{
hints = (
{
origin = "{0, 6}";
target = "{0, 0}";
type = Stem;
},
{
origin = "{0, 5}";
target = "{0, 4}";
type = Stem;
},
{
origin = "{0, 2}";
target = "{0, 1}";
type = Stem;
}
);
layerId = "262880E7-CFE1-4BDA-902E-E24798F3240A";
paths = (
{
closed = 1;
nodes = (
"293 0 LINE",
"527 700 LINE",
"506 700 LINE",
"282 33 LINE",
"60 700 LINE",
"38 700 LINE",
"271 0 LINE"
);
}
);
width = 565;
},
{
layerId = "4E2227F3-52E4-4048-A8EE-327B486EF0A4";
paths = (
{
closed = 1;
nodes = (
"361 0 LINE",
"509 700 LINE",
"311 700 LINE",
"265 305 LINE",
"215 700 LINE",
"12 700 LINE",
"158 0 LINE"
);
}
);
width = 521;
},
{
layerId = "FFFA8D72-12AC-4CE0-B2CA-57A29829F4DA";
paths = (
{
closed = 1;
nodes = (
"419 0 LINE",
"627 700 LINE",
"429 700 LINE",
"326 252 LINE",
"220 700 LINE",
"18 700 LINE",
"224 0 LINE"
);
}
);
width = 645;
},
{
layerId = "DCBE1F7B-116A-43E0-B7B4-8657BA77D8B5";
paths = (
{
closed = 1;
nodes = (
"214 0 LINE",
"363 700 LINE",
"341 700 LINE",
"203 42 LINE",
"65 700 LINE",
"42 700 LINE",
"192 0 LINE"
);
}
);
width = 405;
}
);
leftKerningGroup = V;
rightKerningGroup = V;
unicode = 0056;
},
{
color = 3;
glyphname = W;
layers = (
{
anchors = (
{
name = top;
position = "{438, 700}";
}
);
hints = (
{
origin = "{0, 11}";
target = "{0, 10}";
type = Stem;
},
{
origin = "{0, 12}";
target = "{0, 0}";
type = Stem;
},
{
origin = "{0, 8}";
target = "{0, 7}";
type = Stem;
},
{
origin = "{0, 2}";
target = "{0, 3}";
type = Stem;
},
{
origin = "{0, 5}";
target = "{0, 4}";
type = Stem;
}
);
layerId = "262880E7-CFE1-4BDA-902E-E24798F3240A";
paths = (
{
closed = 1;
nodes = (
"256 0 LINE",
"437 666 LINE",
"618 0 LINE",
"640 0 LINE",
"851 700 LINE",
"829 700 LINE",
"630 40 LINE",
"447 700 LINE",
"425 700 LINE",
"246 40 LINE",
"50 700 LINE",
"28 700 LINE",
"234 0 LINE"
);
}
);
width = 879;
},
{
anchors = (
{
name = top;
position = "{355, 700}";
}
);
layerId = "4E2227F3-52E4-4048-A8EE-327B486EF0A4";
paths = (
{
closed = 1;
nodes = (
"321 0 LINE",
"360 362 LINE",
"408 0 LINE",
"574 0 LINE",
"708 700 LINE",
"518 700 LINE",
"485 353 LINE",
"437 700 LINE",
"287 700 LINE",
"245 353 LINE",
"206 700 LINE",
"12 700 LINE",
"154 0 LINE"
);
}
);
width = 720;
},
{
anchors = (
{
name = top;
position = "{469, 700}";
}
);
hints = (
{
place = "{-23.609, 0}";
type = Stem;
}
);
layerId = "FFFA8D72-12AC-4CE0-B2CA-57A29829F4DA";
paths = (
{
closed = 1;
nodes = (
"401 0 LINE",
"469 372 LINE",
"547 0 LINE",
"734 0 LINE",
"919 700 LINE",
"718 700 LINE",
"637 348 LINE",
"556 700 LINE",
"383 700 LINE",
"310 348 LINE",
"219 700 LINE",
"18 700 LINE",
"225 0 LINE"
);
}
);
width = 937;
},
{
anchors = (
{
name = top;
position = "{292, 700}";
}
);
layerId = "DCBE1F7B-116A-43E0-B7B4-8657BA77D8B5";
paths = (
{
closed = 1;
nodes = (
"188 0 LINE",
"292 656 LINE",
"395 0 LINE",
"418 0 LINE",
"544 700 LINE",
"520 700 LINE",
"408 40 LINE",
"303 700 LINE",
"280 700 LINE",
"178 40 LINE",
"56 700 LINE",
"33 700 LINE",
"166 0 LINE"
);
}
);
width = 577;
},
{
anchors = (
{
name = top;
position = "{341, 700}";
}
);
associatedMasterId = "4E2227F3-52E4-4048-A8EE-327B486EF0A4";
layerId = "D22352A1-5D91-4C5D-8547-45DDB8692B1B";
name = "{150,300}";
paths = (
{
closed = 1;
nodes = (
"295 0 LINE",
"349 381 LINE",
"410 0 LINE",
"548 0 LINE",
"680 700 LINE",
"529 700 LINE",
"477 331 LINE",
"416 700 LINE",
"285 700 LINE",
"230 331 LINE",
"172 700 LINE",
"17 700 LINE",
"157 0 LINE"
);
}
);
width = 697;
},
{
anchors = (
{
name = top;
position = "{438, 700}";
}
);
associatedMasterId = "4E2227F3-52E4-4048-A8EE-327B486EF0A4";
hints = (
{
origin = "{0, 11}";
target = "{0, 10}";
type = Stem;
},
{
origin = "{0, 12}";
target = "{0, 0}";
type = Stem;
},
{
origin = "{0, 8}";
target = "{0, 7}";
type = Stem;
},
{
origin = "{0, 2}";
target = "{0, 3}";
type = Stem;
},
{
origin = "{0, 5}";
target = "{0, 4}";
type = Stem;
}
);
layerId = "57C718F0-B010-4458-8453-AE0C9B5C9C77";
name = "{150,500}";
paths = (
{
closed = 1;
nodes = (
"344 0 LINE",
"438 440 LINE",
"540 0 LINE",
"689 0 LINE",
"856 700 LINE",
"704 700 LINE",
"615 287 LINE",
"515 700 LINE",
"363 700 LINE",
"272 287 LINE",
"179 700 LINE",
"20 700 LINE",
"203 0 LINE"
);
}
);
width = 877;
}
);
leftKerningGroup = V;
rightKerningGroup = V;
unicode = 0057;
},
{
glyphname = X;
layers = (
{
hints = (
{
origin = "{0, 11}";
target = "{0, 0}";
type = Stem;
},
{
origin = "{0, 2}";
target = "{0, 3}";
type = Stem;
}
);
layerId = "262880E7-CFE1-4BDA-902E-E24798F3240A";
paths = (
{
closed = 1;
nodes = (
"63 0 LINE",
"280 332 LINE",
"496 0 LINE",
"521 0 LINE",
"290 349 LINE",
"521 700 LINE",
"496 700 LINE",
"280 367 LINE",
"63 700 LINE",
"38 700 LINE",
"269 350 LINE",
"38 0 LINE"
);
}
);
width = 559;
},
{
layerId = "4E2227F3-52E4-4048-A8EE-327B486EF0A4";
paths = (
{
closed = 1;
nodes = (
"203 0 LINE",
"252 162 LINE",
"301 0 LINE",
"491 0 LINE",
"351 350 LINE",
"491 700 LINE",
"300 700 LINE",
"252 537 LINE",
"204 700 LINE",
"12 700 LINE",
"152 350 LINE",
"12 0 LINE"
);
}
);
width = 503;
},
{
layerId = "FFFA8D72-12AC-4CE0-B2CA-57A29829F4DA";
paths = (
{
closed = 1;
nodes = (
"222 0 LINE",
"330 206 LINE",
"438 0 LINE",
"641 0 LINE",
"448 350 LINE",
"641 700 LINE",
"437 700 LINE",
"330 493 LINE",
"223 700 LINE",
"18 700 LINE",
"212 350 LINE",
"18 0 LINE"
);
}
);
width = 659;
},
{
layerId = "DCBE1F7B-116A-43E0-B7B4-8657BA77D8B5";
paths = (
{
closed = 1;
nodes = (
"67 0 LINE",
"203 330 LINE",
"338 0 LINE",
"363 0 LINE",
"213 349 LINE",
"363 700 LINE",
"338 700 LINE",
"203 369 LINE",
"67 700 LINE",
"42 700 LINE",
"191 350 LINE",
"42 0 LINE"
);
}
);
width = 405;
}
);
leftKerningGroup = X;
rightKerningGroup = X;
unicode = 0058;
},
{
glyphname = Y;
layers = (
{
anchors = (
{
name = bottom;
position = "{266, 0}";
},
{
name = top;
position = "{266, 699}";
},
{
name = topleft;
position = "{20, 700}";
}
);
hints = (
{
origin = "{0, 8}";
target = "{0, 0}";
type = Stem;
}
);
layerId = "262880E7-CFE1-4BDA-902E-E24798F3240A";
paths = (
{
closed = 1;
nodes = (
"277 0 LINE",
"277 339 LINE",
"494 700 LINE",
"472 700 LINE",
"266 358 LINE",
"60 700 LINE",
"38 700 LINE",
"255 339 LINE",
"255 0 LINE"
);
}
);
width = 532;
},
{
anchors = (
{
name = bottom;
position = "{254, 0}";
},
{
name = top;
position = "{254, 700}";
},
{
name = topleft;
position = "{20, 700}";
}
);
layerId = "4E2227F3-52E4-4048-A8EE-327B486EF0A4";
paths = (
{
closed = 1;
nodes = (
"347 2 LINE",
"347 251 LINE",
"496 700 LINE",
"298 700 LINE",
"254 471 LINE",
"210 700 LINE",
"12 700 LINE",
"159 251 LINE",
"159 2 LINE"
);
}
);
width = 508;
},
{
anchors = (
{
name = bottom;
position = "{326, 0}";
},
{
name = top;
position = "{325, 700}";
},
{
name = topleft;
position = "{20, 700}";
}
);
layerId = "FFFA8D72-12AC-4CE0-B2CA-57A29829F4DA";
paths = (
{
closed = 1;
nodes = (
"418 2 LINE",
"418 241 LINE",
"633 700 LINE",
"428 700 LINE",
"325 441 LINE",
"222 700 LINE",
"18 700 LINE",
"231 241 LINE",
"231 2 LINE"
);
}
);
width = 651;
},
{
anchors = (
{
name = bottom;
position = "{195, 0}";
},
{
name = top;
position = "{195, 700}";
},
{
name = topleft;
position = "{20, 700}";
}
);
layerId = "DCBE1F7B-116A-43E0-B7B4-8657BA77D8B5";
paths = (
{
closed = 1;
nodes = (
"206 0 LINE",
"206 339 LINE",
"347 700 LINE",
"324 700 LINE",
"195 358 LINE",
"65 700 LINE",
"42 700 LINE",
"184 339 LINE",
"184 0 LINE"
);
}
);
width = 389;
}
);
leftKerningGroup = Y;
rightKerningGroup = Y;
unicode = 0059;
},
{
glyphname = Z;
layers = (
{
anchors = (
{
name = top;
position = "{261, 700}";
}
);
hints = (
{
horizontal = 1;
origin = "{0, 5}";
target = "{0, 9}";
type = Stem;
},
{
horizontal = 1;
origin = "{0, 0}";
target = "{0, 9}";
type = Stem;
}
);
layerId = "262880E7-CFE1-4BDA-902E-E24798F3240A";
paths = (
{
closed = 1;
nodes = (
"480 0 LINE",
"480 21 LINE",
"79 21 LINE",
"480 679 LINE",
"480 700 LINE",
"54 700 LINE",
"54 679 LINE",
"456 679 LINE",
"54 21 LINE",
"54 0 LINE"
);
}
);
width = 543;
},
{
anchors = (
{
name = top;
position = "{210, 700}";
}
);
layerId = "4E2227F3-52E4-4048-A8EE-327B486EF0A4";
paths = (
{
closed = 1;
nodes = (
"410 0 LINE",
"410 161 LINE",
"208 161 LINE",
"410 539 LINE",
"410 700 LINE",
"12 700 LINE",
"12 539 LINE",
"212 539 LINE",
"12 161 LINE",
"12 0 LINE"
);
}
);
width = 424;
},
{
anchors = (
{
name = top;
position = "{284, 700}";
}
);
layerId = "FFFA8D72-12AC-4CE0-B2CA-57A29829F4DA";
paths = (
{
closed = 1;
nodes = (
"535 0 LINE",
"535 161 LINE",
"230 161 LINE",
"535 530 LINE",
"535 700 LINE",
"24 700 LINE",
"24 539 LINE",
"327 539 LINE",
"24 170 LINE",
"24 0 LINE"
);
}
);
width = 562;
},
{
anchors = (
{
name = top;
position = "{191, 700}";
}
);
layerId = "DCBE1F7B-116A-43E0-B7B4-8657BA77D8B5";
paths = (
{
closed = 1;
nodes = (
"334 0 LINE",
"334 21 LINE",
"67 21 LINE",
"334 679 LINE",
"334 700 LINE",
"42 700 LINE",
"42 679 LINE",
"310 679 LINE",
"42 21 LINE",
"42 0 LINE"
);
}
);
width = 383;
}
);
leftKerningGroup = Z;
rightKerningGroup = Z;
unicode = 005A;
},
{
color = 3;
glyphname = a;
layers = (
{
anchors = (
{
name = bottom;
position = "{194, 0}";
},
{
name = ogonek;
position = "{349, 0}";
},
{
name = top;
position = "{194, 500}";
}
);
layerId = "DCBE1F7B-116A-43E0-B7B4-8657BA77D8B5";
paths = (
{
closed = 1;
nodes = (
"325 0 LINE",
"325 342 LINE SMOOTH",
"325 442 OFFCURVE",
"281 508 OFFCURVE",
"195 508 CURVE SMOOTH",
"126 508 OFFCURVE",
"65 461 OFFCURVE",
"62 388 CURVE",
"85 385 LINE",
"85 446 OFFCURVE",
"137 487 OFFCURVE",
"194 487 CURVE SMOOTH",
"266 487 OFFCURVE",
"303 430 OFFCURVE",
"303 345 CURVE SMOOTH",
"303 0 LINE"
);
},
{
closed = 1;
nodes = (
"249 -8 OFFCURVE",
"318 37 OFFCURVE",
"318 142 CURVE",
"318 283 LINE",
"206 283 LINE SMOOTH",
"117 283 OFFCURVE",
"52 236 OFFCURVE",
"52 126 CURVE SMOOTH",
"52 18 OFFCURVE",
"116 -8 OFFCURVE",
"173 -8 CURVE SMOOTH"
);
},
{
closed = 1;
nodes = (
"119 13 OFFCURVE",
"74 45 OFFCURVE",
"74 127 CURVE SMOOTH",
"74 219 OFFCURVE",
"130 262 OFFCURVE",
"208 262 CURVE SMOOTH",
"303 262 LINE",
"303 142 LINE SMOOTH",
"303 52 OFFCURVE",
"239 13 OFFCURVE",
"176 13 CURVE SMOOTH"
);
}
);
width = 388;
},
{
anchors = (
{
name = bottom;
position = "{234, 0}";
},
{
name = ogonek;
position = "{382, 0}";
},
{
name = top;
position = "{234, 520}";
}
);
layerId = "4E2227F3-52E4-4048-A8EE-327B486EF0A4";
paths = (
{
closed = 1;
nodes = (
"449 0 LINE",
"449 360 LINE SMOOTH",
"449 461 OFFCURVE",
"362 528 OFFCURVE",
"232 528 CURVE SMOOTH",
"105 528 OFFCURVE",
"17 457 OFFCURVE",
"17 337 CURVE",
"206 335 LINE",
"206 355 OFFCURVE",
"217 367 OFFCURVE",
"232 367 CURVE SMOOTH",
"249 367 OFFCURVE",
"261 355 OFFCURVE",
"261 337 CURVE SMOOTH",
"261 0 LINE"
);
},
{
closed = 1;
nodes = (
"263 -6 OFFCURVE",
"290 75 OFFCURVE",
"290 213 CURVE SMOOTH",
"290 309 LINE",
"221 309 LINE SMOOTH",
"95 309 OFFCURVE",
"12 297 OFFCURVE",
"12 151 CURVE SMOOTH",
"12 7 OFFCURVE",
"96 -9 OFFCURVE",
"153 -8 CURVE SMOOTH"
);
},
{
closed = 1;
nodes = (
"216 127 OFFCURVE",
"204 136 OFFCURVE",
"204 155 CURVE SMOOTH",
"204 172 OFFCURVE",
"216 187 OFFCURVE",
"235 187 CURVE SMOOTH",
"261 187 LINE",
"261 154 LINE SMOOTH",
"261 137 OFFCURVE",
"243 127 OFFCURVE",
"229 127 CURVE SMOOTH"
);
}
);
width = 467;
},
{
anchors = (
{
name = bottom;
position = "{249, 0}";
},
{
name = ogonek;
position = "{404, 0}";
},
{
name = top;
position = "{249, 500}";
}
);
hints = (
{
horizontal = 1;
origin = "{2, 5}";
target = "{1, 4}";
type = Stem;
},
{
horizontal = 1;
origin = "{1, 10}";
target = "{2, 10}";
type = Stem;
},
{
origin = "{1, 7}";
target = "{2, 2}";
type = Stem;
},
{
origin = "{0, 15}";
target = "{0, 0}";
type = Stem;
},
{
horizontal = 1;
origin = "{0, 4}";
target = "{0, 11}";
type = Stem;
}
);
layerId = "262880E7-CFE1-4BDA-902E-E24798F3240A";
paths = (
{
closed = 1;
nodes = (
"417 0 LINE",
"417 342 LINE SMOOTH",
"417 442 OFFCURVE",
"368 508 OFFCURVE",
"252 508 CURVE SMOOTH",
"158 508 OFFCURVE",
"93 462 OFFCURVE",
"83 392 CURVE",
"105 388 LINE",
"112 449 OFFCURVE",
"168 487 OFFCURVE",
"249 487 CURVE SMOOTH",
"355 487 OFFCURVE",
"395 425 OFFCURVE",
"395 345 CURVE SMOOTH",
"395 0 LINE"
);
},
{
closed = 1;
nodes = (
"316 -8 OFFCURVE",
"412 37 OFFCURVE",
"412 142 CURVE SMOOTH",
"412 282 LINE",
"265 282 LINE SMOOTH",
"138 282 OFFCURVE",
"60 224 OFFCURVE",
"60 128 CURVE SMOOTH",
"60 26 OFFCURVE",
"144 -8 OFFCURVE",
"222 -8 CURVE SMOOTH"
);
},
{
closed = 1;
nodes = (
"144 13 OFFCURVE",
"82 49 OFFCURVE",
"82 129 CURVE SMOOTH",
"82 213 OFFCURVE",
"157 261 OFFCURVE",
"262 261 CURVE SMOOTH",
"395 261 LINE",
"395 142 LINE SMOOTH",
"395 52 OFFCURVE",
"305 13 OFFCURVE",
"221 13 CURVE SMOOTH"
);
}
);
width = 498;
},
{
anchors = (
{
name = bottom;
position = "{270, 0}";
},
{
name = ogonek;
position = "{438, 0}";
},
{
name = top;
position = "{270, 520}";
}
);
layerId = "FFFA8D72-12AC-4CE0-B2CA-57A29829F4DA";
paths = (
{
closed = 1;
nodes = (
"507 0 LINE",
"507 355 LINE SMOOTH",
"507 451 OFFCURVE",
"398 528 OFFCURVE",
"259 528 CURVE SMOOTH",
"120 528 OFFCURVE",
"19 452 OFFCURVE",
"18 356 CURVE",
"206 332 LINE",
"207 352 OFFCURVE",
"230 367 OFFCURVE",
"262 367 CURVE SMOOTH",
"297 367 OFFCURVE",
"319 348 OFFCURVE",
"319 320 CURVE SMOOTH",
"319 0 LINE"
);
},
{
closed = 1;
nodes = (
"307 -8 OFFCURVE",
"337 56 OFFCURVE",
"337 190 CURVE SMOOTH",
"337 297 LINE",
"221 297 LINE SMOOTH",
"83 297 OFFCURVE",
"12 239 OFFCURVE",
"12 139 CURVE SMOOTH",
"12 41 OFFCURVE",
"81 -8 OFFCURVE",
"188 -8 CURVE SMOOTH"
);
},
{
closed = 1;
nodes = (
"215 122 OFFCURVE",
"201 140 OFFCURVE",
"201 162 CURVE SMOOTH",
"201 190 OFFCURVE",
"223 203 OFFCURVE",
"264 203 CURVE SMOOTH",
"319 203 LINE",
"319 185 LINE SMOOTH",
"319 145 OFFCURVE",
"288 122 OFFCURVE",
"246 122 CURVE SMOOTH"
);
}
);
width = 540;
},
{
anchors = (
{
name = bottom;
position = "{214, 0}";
},
{
name = ogonek;
position = "{365, 0}";
},
{
name = top;
position = "{217, 517}";
}
);
associatedMasterId = "FFFA8D72-12AC-4CE0-B2CA-57A29829F4DA";
background = {
paths = (
{
closed = 1;
nodes = (
"385 0 LINE",
"385 350 LINE SMOOTH",
"385 451 OFFCURVE",
"315 517 OFFCURVE",
"217 517 CURVE SMOOTH",
"122 517 OFFCURVE",
"52 454 OFFCURVE",
"50 362 CURVE",
"156 362 LINE",
"156 403 OFFCURVE",
"180 431 OFFCURVE",
"215 431 CURVE SMOOTH",
"255 431 OFFCURVE",
"285 395 OFFCURVE",
"285 341 CURVE SMOOTH",
"285 0 LINE"
);
},
{
closed = 1;
nodes = (
"263 -8 OFFCURVE",
"321 42 OFFCURVE",
"321 177 CURVE",
"321 309 LINE",
"225 309 LINE SMOOTH",
"120 309 OFFCURVE",
"33 266 OFFCURVE",
"33 141 CURVE SMOOTH",
"33 15 OFFCURVE",
"121 -8 OFFCURVE",
"178 -8 CURVE SMOOTH"
);
},
{
closed = 1;
nodes = (
"164 79 OFFCURVE",
"136 100 OFFCURVE",
"136 149 CURVE SMOOTH",
"136 204 OFFCURVE",
"172 230 OFFCURVE",
"222 230 CURVE SMOOTH",
"285 230 LINE",
"285 161 LINE SMOOTH",
"285 107 OFFCURVE",
"242 79 OFFCURVE",
"200 79 CURVE SMOOTH"
);
}
);
};
layerId = "018758E2-A88A-4CB4-AAF3-687FDBC090D8";
name = "{100,300}";
paths = (
{
closed = 1;
nodes = (
"385 0 LINE",
"385 350 LINE SMOOTH",
"385 451 OFFCURVE",
"315 517 OFFCURVE",
"217 517 CURVE SMOOTH",
"122 517 OFFCURVE",
"52 454 OFFCURVE",
"50 362 CURVE",
"156 362 LINE",
"156 403 OFFCURVE",
"180 431 OFFCURVE",
"215 431 CURVE SMOOTH",
"255 431 OFFCURVE",
"285 395 OFFCURVE",
"285 341 CURVE SMOOTH",
"285 0 LINE"
);
},
{
closed = 1;
nodes = (
"263 -8 OFFCURVE",
"321 42 OFFCURVE",
"321 177 CURVE",
"321 309 LINE",
"225 309 LINE SMOOTH",
"120 309 OFFCURVE",
"33 266 OFFCURVE",
"33 141 CURVE SMOOTH",
"33 15 OFFCURVE",
"121 -8 OFFCURVE",
"178 -8 CURVE SMOOTH"
);
},
{
closed = 1;
nodes = (
"164 79 OFFCURVE",
"136 100 OFFCURVE",
"136 149 CURVE SMOOTH",
"136 204 OFFCURVE",
"172 230 OFFCURVE",
"222 230 CURVE SMOOTH",
"285 230 LINE",
"285 161 LINE SMOOTH",
"285 107 OFFCURVE",
"242 79 OFFCURVE",
"200 79 CURVE SMOOTH"
);
}
);
width = 427;
},
{
anchors = (
{
name = bottom;
position = "{259, 0}";
},
{
name = ogonek;
position = "{420, 0}";
},
{
name = top;
position = "{256, 517}";
}
);
associatedMasterId = "FFFA8D72-12AC-4CE0-B2CA-57A29829F4DA";
layerId = "BAE5EEA3-611C-40EA-B886-6100A765A59D";
name = "{100,500}";
paths = (
{
closed = 1;
nodes = (
"459 0 LINE",
"459 348 LINE SMOOTH",
"459 446 OFFCURVE",
"382 517 OFFCURVE",
"256 517 CURVE SMOOTH",
"140 517 OFFCURVE",
"58 457 OFFCURVE",
"52 375 CURVE",
"158 362 LINE",
"162 404 OFFCURVE",
"197 431 OFFCURVE",
"259 431 CURVE SMOOTH",
"328 431 OFFCURVE",
"359 397 OFFCURVE",
"359 341 CURVE SMOOTH",
"359 0 LINE"
);
},
{
closed = 1;
nodes = (
"327 -8 OFFCURVE",
"403 63 OFFCURVE",
"403 182 CURVE SMOOTH",
"403 311 LINE",
"244 311 LINE SMOOTH",
"112 311 OFFCURVE",
"37 247 OFFCURVE",
"37 144 CURVE SMOOTH",
"37 37 OFFCURVE",
"118 -8 OFFCURVE",
"208 -8 CURVE SMOOTH"
);
},
{
closed = 1;
nodes = (
"178 76 OFFCURVE",
"137 100 OFFCURVE",
"137 149 CURVE SMOOTH",
"137 204 OFFCURVE",
"187 234 OFFCURVE",
"263 234 CURVE SMOOTH",
"359 234 LINE",
"359 174 LINE SMOOTH",
"359 116 OFFCURVE",
"298 76 OFFCURVE",
"230 76 CURVE SMOOTH"
);
}
);
width = 518;
}
);
leftKerningGroup = a;
rightKerningGroup = b;
unicode = 0061;
},
{
color = 3;
glyphname = ae;
layers = (
{
hints = (
{
horizontal = 1;
origin = "{1, 5}";
target = "{0, 43}";
type = Stem;
},
{
horizontal = 1;
origin = "{0, 49}";
target = "{1, 10}";
type = Stem;
},
{
origin = "{0, 46}";
target = "{1, 2}";
type = Stem;
},
{
origin = "{1, 7}";
target = "{0, 15}";
type = Stem;
},
{
horizontal = 1;
origin = "{0, 31}";
target = "{0, 38}";
type = Stem;
},
{
origin = "{0, 34}";
target = "{0, 35}";
type = Stem;
},
{
origin = "{1, 6}";
target = "{0, 18}";
type = Stem;
},
{
origin = "{2, 11}";
target = "{0, 19}";
type = Stem;
},
{
horizontal = 1;
origin = "{0, 19}";
target = "{0, 0}";
type = Stem;
},
{
horizontal = 1;
origin = "{0, 25}";
target = "{2, 5}";
type = Stem;
},
{
horizontal = 1;
origin = "{0, 5}";
target = "{0, 12}";
type = Stem;
},
{
origin = "{0, 9}";
target = "{0, 8}";
type = Stem;
}
);
layerId = "262880E7-CFE1-4BDA-902E-E24798F3240A";
paths = (
{
closed = 1;
nodes = (
"304 -8 OFFCURVE",
"387 26 OFFCURVE",
"407 95 CURVE",
"426 26 OFFCURVE",
"490 -8 OFFCURVE",
"572 -8 CURVE SMOOTH",
"660 -8 OFFCURVE",
"724 44 OFFCURVE",
"743 118 CURVE",
"721 117 LINE",
"703 56 OFFCURVE",
"648 13 OFFCURVE",
"572 13 CURVE SMOOTH",
"490 13 OFFCURVE",
"417 56 OFFCURVE",
"417 142 CURVE",
"417 180 OFFCURVE",
"417 217 OFFCURVE",
"417 255 CURVE",
"751 255 LINE",
"751 341 OFFCURVE",
"751 350 OFFCURVE",
"745 377 CURVE SMOOTH",
"728 454 OFFCURVE",
"662 508 OFFCURVE",
"572 508 CURVE SMOOTH",
"493 508 OFFCURVE",
"434 466 OFFCURVE",
"410 403 CURVE",
"392 468 OFFCURVE",
"343 508 OFFCURVE",
"252 508 CURVE SMOOTH",
"158 508 OFFCURVE",
"93 462 OFFCURVE",
"83 392 CURVE",
"105 388 LINE",
"112 449 OFFCURVE",
"168 487 OFFCURVE",
"249 487 CURVE SMOOTH",
"355 487 OFFCURVE",
"395 425 OFFCURVE",
"395 345 CURVE SMOOTH",
"395 276 LINE",
"265 276 LINE SMOOTH",
"138 276 OFFCURVE",
"60 224 OFFCURVE",
"60 128 CURVE SMOOTH",
"60 26 OFFCURVE",
"144 -8 OFFCURVE",
"222 -8 CURVE SMOOTH"
);
},
{
closed = 1;
nodes = (
"144 13 OFFCURVE",
"82 49 OFFCURVE",
"82 129 CURVE SMOOTH",
"82 213 OFFCURVE",
"157 255 OFFCURVE",
"262 255 CURVE SMOOTH",
"395 255 LINE",
"395 142 LINE",
"395 52 OFFCURVE",
"305 13 OFFCURVE",
"221 13 CURVE SMOOTH"
);
},
{
closed = 1;
nodes = (
"417 316 OFFCURVE",
"418 347 OFFCURVE",
"421 365 CURVE SMOOTH",
"433 436 OFFCURVE",
"490 487 OFFCURVE",
"572 487 CURVE SMOOTH",
"654 487 OFFCURVE",
"712 436 OFFCURVE",
"725 365 CURVE SMOOTH",
"728 348 OFFCURVE",
"729 313 OFFCURVE",
"729 276 CURVE",
"417 276 LINE"
);
}
);
width = 829;
},
{
layerId = "FFFA8D72-12AC-4CE0-B2CA-57A29829F4DA";
paths = (
{
closed = 1;
nodes = (
"316 -8 OFFCURVE",
"389 34 OFFCURVE",
"415 83 CURVE",
"436 34 OFFCURVE",
"506 -8 OFFCURVE",
"598 -8 CURVE SMOOTH",
"679 -8 OFFCURVE",
"748 24 OFFCURVE",
"803 81 CURVE",
"716 187 LINE",
"695 162 OFFCURVE",
"657 149 OFFCURVE",
"609 149 CURVE SMOOTH",
"565 149 OFFCURVE",
"529 160 OFFCURVE",
"516 193 CURVE SMOOTH",
"513 201 OFFCURVE",
"512 206 OFFCURVE",
"512 208 CURVE",
"827 208 LINE",
"827 302 OFFCURVE",
"818 344 OFFCURVE",
"808 372 CURVE SMOOTH",
"773 469 OFFCURVE",
"671 528 OFFCURVE",
"580 528 CURVE SMOOTH",
"503 528 OFFCURVE",
"444 485 OFFCURVE",
"423 450 CURVE",
"394 492 OFFCURVE",
"325 528 OFFCURVE",
"244 528 CURVE SMOOTH",
"127 528 OFFCURVE",
"17 452 OFFCURVE",
"17 356 CURVE",
"205 332 LINE",
"206 352 OFFCURVE",
"229 367 OFFCURVE",
"261 367 CURVE SMOOTH",
"296 367 OFFCURVE",
"318 348 OFFCURVE",
"318 320 CURVE SMOOTH",
"318 305 LINE",
"220 305 LINE SMOOTH",
"81 305 OFFCURVE",
"12 242 OFFCURVE",
"12 150 CURVE SMOOTH",
"12 50 OFFCURVE",
"94 -8 OFFCURVE",
"214 -8 CURVE SMOOTH"
);
},
{
closed = 1;
nodes = (
"213 120 OFFCURVE",
"200 144 OFFCURVE",
"200 164 CURVE SMOOTH",
"200 190 OFFCURVE",
"222 208 OFFCURVE",
"263 208 CURVE SMOOTH",
"318 208 LINE",
"318 184 LINE SMOOTH",
"318 147 OFFCURVE",
"285 120 OFFCURVE",
"248 120 CURVE SMOOTH"
);
},
{
closed = 1;
nodes = (
"511 313 OFFCURVE",
"513 320 OFFCURVE",
"516 327 CURVE",
"525 351 OFFCURVE",
"545 367 OFFCURVE",
"572 367 CURVE SMOOTH",
"600 367 OFFCURVE",
"618 351 OFFCURVE",
"628 327 CURVE SMOOTH",
"631 320 OFFCURVE",
"633 313 OFFCURVE",
"634 305 CURVE",
"510 305 LINE"
);
}
);
width = 844;
},
{
layerId = "DCBE1F7B-116A-43E0-B7B4-8657BA77D8B5";
paths = (
{
closed = 1;
nodes = (
"234 -8 OFFCURVE",
"291 21 OFFCURVE",
"311 87 CURVE",
"327 30 OFFCURVE",
"375 -8 OFFCURVE",
"438 -8 CURVE SMOOTH",
"509 -8 OFFCURVE",
"561 40 OFFCURVE",
"571 109 CURVE",
"549 108 LINE",
"539 51 OFFCURVE",
"496 13 OFFCURVE",
"438 13 CURVE SMOOTH",
"372 13 OFFCURVE",
"326 63 OFFCURVE",
"326 135 CURVE SMOOTH",
"326 175 OFFCURVE",
"326 214 OFFCURVE",
"326 254 CURVE",
"573 254 LINE",
"573 291 OFFCURVE",
"573 328 OFFCURVE",
"573 365 CURVE SMOOTH",
"573 448 OFFCURVE",
"518 508 OFFCURVE",
"438 508 CURVE SMOOTH",
"379 508 OFFCURVE",
"333 474 OFFCURVE",
"314 422 CURVE",
"295 476 OFFCURVE",
"255 508 OFFCURVE",
"195 508 CURVE SMOOTH",
"126 508 OFFCURVE",
"65 461 OFFCURVE",
"62 388 CURVE",
"85 385 LINE",
"85 446 OFFCURVE",
"137 487 OFFCURVE",
"194 487 CURVE SMOOTH",
"266 487 OFFCURVE",
"303 430 OFFCURVE",
"303 345 CURVE SMOOTH",
"303 274 LINE",
"206 274 LINE SMOOTH",
"117 274 OFFCURVE",
"52 236 OFFCURVE",
"52 126 CURVE SMOOTH",
"52 18 OFFCURVE",
"116 -8 OFFCURVE",
"173 -8 CURVE SMOOTH"
);
},
{
closed = 1;
nodes = (
"119 13 OFFCURVE",
"74 45 OFFCURVE",
"74 127 CURVE SMOOTH",
"74 219 OFFCURVE",
"130 253 OFFCURVE",
"208 253 CURVE SMOOTH",
"303 253 LINE",
"303 142 LINE SMOOTH",
"303 52 OFFCURVE",
"239 13 OFFCURVE",
"176 13 CURVE SMOOTH"
);
},
{
closed = 1;
nodes = (
"326 304 OFFCURVE",
"326 334 OFFCURVE",
"326 365 CURVE SMOOTH",
"326 437 OFFCURVE",
"372 487 OFFCURVE",
"438 487 CURVE SMOOTH",
"505 487 OFFCURVE",
"551 437 OFFCURVE",
"551 365 CURVE SMOOTH",
"551 334 OFFCURVE",
"551 304 OFFCURVE",
"551 273 CURVE",
"326 273 LINE"
);
}
);
width = 629;
},
{
layerId = "4E2227F3-52E4-4048-A8EE-327B486EF0A4";
paths = (
{
closed = 1;
nodes = (
"277 -8 OFFCURVE",
"348 22 OFFCURVE",
"354 47 CURVE",
"358 23 OFFCURVE",
"413 -8 OFFCURVE",
"499 -8 CURVE SMOOTH",
"622 -8 OFFCURVE",
"688 55 OFFCURVE",
"691 171 CURVE",
"508 182 LINE",
"508 176 OFFCURVE",
"502 153 OFFCURVE",
"483 153 CURVE SMOOTH",
"469 153 OFFCURVE",
"460 166 OFFCURVE",
"460 185 CURVE SMOOTH",
"460 194 OFFCURVE",
"460 189 OFFCURVE",
"460 198 CURVE",
"693 198 LINE",
"693 244 OFFCURVE",
"693 304 OFFCURVE",
"693 350 CURVE SMOOTH",
"693 456 OFFCURVE",
"614 528 OFFCURVE",
"490 528 CURVE SMOOTH",
"431 528 OFFCURVE",
"387 512 OFFCURVE",
"354 489 CURVE",
"316 514 OFFCURVE",
"280 528 OFFCURVE",
"227 528 CURVE SMOOTH",
"108 528 OFFCURVE",
"17 459 OFFCURVE",
"17 341 CURVE",
"206 337 LINE",
"206 355 OFFCURVE",
"217 367 OFFCURVE",
"233 367 CURVE SMOOTH",
"249 367 OFFCURVE",
"261 355 OFFCURVE",
"261 337 CURVE SMOOTH",
"261 305 LINE",
"221 305 LINE SMOOTH",
"96 305 OFFCURVE",
"12 289 OFFCURVE",
"12 153 CURVE SMOOTH",
"12 3 OFFCURVE",
"115 -8 OFFCURVE",
"179 -8 CURVE SMOOTH"
);
},
{
closed = 1;
nodes = (
"216 125 OFFCURVE",
"204 134 OFFCURVE",
"204 158 CURVE SMOOTH",
"204 183 OFFCURVE",
"216 198 OFFCURVE",
"235 198 CURVE SMOOTH",
"261 198 LINE",
"261 152 LINE SMOOTH",
"261 135 OFFCURVE",
"243 125 OFFCURVE",
"229 125 CURVE SMOOTH"
);
},
{
closed = 1;
nodes = (
"460 315 OFFCURVE",
"460 325 OFFCURVE",
"460 335 CURVE SMOOTH",
"460 354 OFFCURVE",
"469 367 OFFCURVE",
"483 367 CURVE SMOOTH",
"496 367 OFFCURVE",
"505 354 OFFCURVE",
"505 335 CURVE SMOOTH",
"505 325 OFFCURVE",
"505 315 OFFCURVE",
"505 305 CURVE",
"460 305 LINE"
);
}
);
width = 709;
},
{
associatedMasterId = "262880E7-CFE1-4BDA-902E-E24798F3240A";
hints = (
{
horizontal = 1;
origin = "{1, 5}";
target = "{0, 43}";
type = Stem;
},
{
horizontal = 1;
origin = "{0, 49}";
target = "{1, 10}";
type = Stem;
},
{
origin = "{0, 46}";
target = "{1, 2}";
type = Stem;
},
{
origin = "{1, 7}";
target = "{0, 15}";
type = Stem;
},
{
horizontal = 1;
origin = "{0, 31}";
target = "{0, 38}";
type = Stem;
},
{
origin = "{0, 34}";
target = "{0, 35}";
type = Stem;
},
{
origin = "{1, 6}";
target = "{0, 18}";
type = Stem;
},
{
origin = "{2, 11}";
target = "{0, 19}";
type = Stem;
},
{
horizontal = 1;
place = "{215, 0}";
type = Stem;
},
{
horizontal = 1;
origin = "{0, 25}";
target = "{2, 5}";
type = Stem;
},
{
horizontal = 1;
origin = "{0, 5}";
target = "{0, 12}";
type = Stem;
},
{
origin = "{0, 9}";
target = "{0, 8}";
type = Stem;
}
);
layerId = "E7B60026-6285-4AF7-81D0-E2C0967E1F1B";
name = "{100,500}";
paths = (
{
closed = 1;
nodes = (
"307 -8 OFFCURVE",
"379 24 OFFCURVE",
"410 74 CURVE",
"437 28 OFFCURVE",
"500 -8 OFFCURVE",
"576 -8 CURVE SMOOTH",
"679 -8 OFFCURVE",
"752 50 OFFCURVE",
"777 111 CURVE",
"707 156 LINE",
"686 111 OFFCURVE",
"652 86 OFFCURVE",
"590 86 CURVE SMOOTH",
"523 86 OFFCURVE",
"469 115 OFFCURVE",
"463 176 CURVE",
"462 195 OFFCURVE",
"461 194 OFFCURVE",
"461 215 CURVE",
"784 215 LINE",
"784 305 OFFCURVE",
"780 347 OFFCURVE",
"772 375 CURVE SMOOTH",
"747 463 OFFCURVE",
"664 517 OFFCURVE",
"574 517 CURVE SMOOTH",
"499 517 OFFCURVE",
"437 470 OFFCURVE",
"416 430 CURVE",
"396 474 OFFCURVE",
"332 517 OFFCURVE",
"251 517 CURVE SMOOTH",
"142 517 OFFCURVE",
"57 457 OFFCURVE",
"52 375 CURVE",
"152 362 LINE",
"156 404 OFFCURVE",
"196 431 OFFCURVE",
"254 431 CURVE SMOOTH",
"327 431 OFFCURVE",
"359 389 OFFCURVE",
"359 333 CURVE SMOOTH",
"359 299 LINE",
"244 299 LINE SMOOTH",
"111 299 OFFCURVE",
"37 233 OFFCURVE",
"37 135 CURVE SMOOTH",
"37 31 OFFCURVE",
"121 -8 OFFCURVE",
"222 -8 CURVE SMOOTH"
);
},
{
closed = 1;
nodes = (
"176 71 OFFCURVE",
"137 99 OFFCURVE",
"137 143 CURVE SMOOTH",
"137 193 OFFCURVE",
"187 215 OFFCURVE",
"262 215 CURVE SMOOTH",
"359 215 LINE",
"359 170 LINE",
"359 102 OFFCURVE",
"296 71 OFFCURVE",
"234 71 CURVE SMOOTH"
);
},
{
closed = 1;
nodes = (
"461 319 OFFCURVE",
"462 334 OFFCURVE",
"465 347 CURVE SMOOTH",
"476 396 OFFCURVE",
"516 431 OFFCURVE",
"572 431 CURVE SMOOTH",
"629 431 OFFCURVE",
"669 395 OFFCURVE",
"680 347 CURVE SMOOTH",
"683 335 OFFCURVE",
"684 317 OFFCURVE",
"685 299 CURVE",
"460 299 LINE"
);
}
);
width = 834;
},
{
associatedMasterId = "262880E7-CFE1-4BDA-902E-E24798F3240A";
layerId = "29303AE9-139B-4911-9A39-4D32E7983952";
name = "{100,300}";
paths = (
{
closed = 1;
nodes = (
"254 -8 OFFCURVE",
"317 25 OFFCURVE",
"331 64 CURVE",
"341 31 OFFCURVE",
"392 -8 OFFCURVE",
"466 -8 CURVE SMOOTH",
"561 -8 OFFCURVE",
"620 47 OFFCURVE",
"627 138 CURVE",
"530 150 LINE",
"524 116 OFFCURVE",
"498 85 OFFCURVE",
"459 85 CURVE SMOOTH",
"417 85 OFFCURVE",
"388 118 OFFCURVE",
"388 158 CURVE SMOOTH",
"388 174 OFFCURVE",
"388 188 OFFCURVE",
"388 214 CURVE",
"629 214 LINE",
"629 255 OFFCURVE",
"629 317 OFFCURVE",
"629 358 CURVE SMOOTH",
"629 452 OFFCURVE",
"562 517 OFFCURVE",
"462 517 CURVE SMOOTH",
"403 517 OFFCURVE",
"358 492 OFFCURVE",
"332 453 CURVE",
"304 494 OFFCURVE",
"266 517 OFFCURVE",
"210 517 CURVE SMOOTH",
"117 517 OFFCURVE",
"42 460 OFFCURVE",
"41 366 CURVE",
"141 363 LINE",
"141 404 OFFCURVE",
"174 431 OFFCURVE",
"212 431 CURVE SMOOTH",
"258 431 OFFCURVE",
"283 395 OFFCURVE",
"283 341 CURVE SMOOTH",
"283 298 LINE",
"213 298 LINE SMOOTH",
"107 298 OFFCURVE",
"33 261 OFFCURVE",
"33 139 CURVE SMOOTH",
"33 11 OFFCURVE",
"115 -8 OFFCURVE",
"175 -8 CURVE SMOOTH"
);
},
{
closed = 1;
nodes = (
"164 72 OFFCURVE",
"134 94 OFFCURVE",
"134 141 CURVE SMOOTH",
"134 188 OFFCURVE",
"170 213 OFFCURVE",
"220 213 CURVE SMOOTH",
"283 213 LINE",
"283 147 LINE SMOOTH",
"283 98 OFFCURVE",
"241 72 OFFCURVE",
"200 72 CURVE SMOOTH"
);
},
{
closed = 1;
nodes = (
"388 319 OFFCURVE",
"388 330 OFFCURVE",
"388 351 CURVE SMOOTH",
"388 398 OFFCURVE",
"417 431 OFFCURVE",
"459 431 CURVE SMOOTH",
"500 431 OFFCURVE",
"529 398 OFFCURVE",
"529 351 CURVE SMOOTH",
"529 330 OFFCURVE",
"529 319 OFFCURVE",
"529 298 CURVE",
"388 298 LINE"
);
}
);
width = 666;
}
);
leftKerningGroup = a;
leftMetricsKey = "=a";
rightKerningGroup = e;
rightMetricsKey = "=e";
unicode = 00E6;
},
{
glyphname = b;
layers = (
{
components = (
{
name = b.bowl;
transform = "{1, 0, 0, 1, 102, 0}";
}
);
hints = (
{
origin = "{0, 2}";
target = "{0, 1}";
type = Stem;
},
{
horizontal = 1;
place = "{508, -21}";
type = Stem;
},
{
origin = "{0, 3}";
target = "{0, 0}";
type = Stem;
},
{
place = "{429, 22}";
type = Stem;
},
{
horizontal = 1;
place = "{0, -2147483648}";
type = Stem;
}
);
layerId = "262880E7-CFE1-4BDA-902E-E24798F3240A";
paths = (
{
closed = 1;
nodes = (
"121 0 LINE",
"121 700 LINE",
"99 700 LINE",
"99 0 LINE"
);
}
);
width = 532;
},
{
components = (
{
name = b.bowl;
transform = "{1, 0, 0, 1, 175, 0}";
}
);
layerId = "4E2227F3-52E4-4048-A8EE-327B486EF0A4";
paths = (
{
closed = 1;
nodes = (
"210 0 LINE",
"210 700 LINE",
"22 700 LINE",
"22 0 LINE"
);
}
);
width = 460;
},
{
components = (
{
name = b.bowl;
transform = "{1, 0, 0, 1, 183, 0}";
}
);
layerId = "FFFA8D72-12AC-4CE0-B2CA-57A29829F4DA";
paths = (
{
closed = 1;
nodes = (
"224 0 LINE",
"224 700 LINE",
"36 700 LINE",
"36 0 LINE"
);
}
);
width = 579;
},
{
components = (
{
name = b.bowl;
transform = "{1, 0, 0, 1, 84, 0}";
}
);
layerId = "DCBE1F7B-116A-43E0-B7B4-8657BA77D8B5";
paths = (
{
closed = 1;
nodes = (
"99 0 LINE",
"99 700 LINE",
"77 700 LINE",
"77 0 LINE"
);
}
);
width = 407;
}
);
leftKerningGroup = b;
rightKerningGroup = n;
unicode = 0062;
},
{
color = 3;
glyphname = c;
layers = (
{
anchors = (
{
name = bottom;
position = "{255, -8}";
},
{
name = top;
position = "{267, 500}";
}
);
hints = (
{
origin = "{0, 43}";
target = "{0, 18}";
type = Stem;
},
{
horizontal = 1;
origin = "{0, 49}";
target = "{0, 12}";
type = Stem;
},
{
horizontal = 1;
origin = "{0, 37}";
target = "{0, 24}";
type = Stem;
},
{
origin = "{0, 30}";
target = "{0, 31}";
type = Stem;
}
);
layerId = "262880E7-CFE1-4BDA-902E-E24798F3240A";
paths = (
{
closed = 1;
nodes = (
"360 -8 OFFCURVE",
"430 45 OFFCURVE",
"444 113 CURVE SMOOTH",
"447 124 OFFCURVE",
"447 129 OFFCURVE",
"448 137 CURVE",
"427 139 LINE",
"425 131 OFFCURVE",
"426 131 OFFCURVE",
"425 125 CURVE SMOOTH",
"415 64 OFFCURVE",
"352 13 OFFCURVE",
"267 13 CURVE SMOOTH",
"182 13 OFFCURVE",
"125 63 OFFCURVE",
"111 135 CURVE SMOOTH",
"107 156 OFFCURVE",
"103 193 OFFCURVE",
"103 250 CURVE SMOOTH",
"103 302 OFFCURVE",
"107 343 OFFCURVE",
"111 365 CURVE SMOOTH",
"124 436 OFFCURVE",
"182 487 OFFCURVE",
"267 487 CURVE SMOOTH",
"352 487 OFFCURVE",
"412 436 OFFCURVE",
"424 375 CURVE SMOOTH",
"426 369 OFFCURVE",
"427 361 OFFCURVE",
"428 352 CURVE",
"450 353 LINE",
"449 363 OFFCURVE",
"447 376 OFFCURVE",
"444 387 CURVE SMOOTH",
"428 454 OFFCURVE",
"360 508 OFFCURVE",
"267 508 CURVE SMOOTH",
"175 508 OFFCURVE",
"110 454 OFFCURVE",
"92 377 CURVE SMOOTH",
"85 345 OFFCURVE",
"81 310 OFFCURVE",
"81 251 CURVE SMOOTH",
"81 195 OFFCURVE",
"84 156 OFFCURVE",
"92 123 CURVE SMOOTH",
"111 46 OFFCURVE",
"175 -8 OFFCURVE",
"267 -8 CURVE SMOOTH"
);
}
);
width = 508;
},
{
anchors = (
{
name = bottom;
position = "{229, -8}";
},
{
name = top;
position = "{229, 520}";
}
);
layerId = "4E2227F3-52E4-4048-A8EE-327B486EF0A4";
paths = (
{
closed = 1;
nodes = (
"363 -8 OFFCURVE",
"439 57 OFFCURVE",
"439 170 CURVE SMOOTH",
"439 181 OFFCURVE",
"439 197 OFFCURVE",
"439 213 CURVE",
"251 215 LINE",
"251 205 OFFCURVE",
"251 195 OFFCURVE",
"251 185 CURVE SMOOTH",
"251 166 OFFCURVE",
"242 153 OFFCURVE",
"229 153 CURVE SMOOTH",
"215 153 OFFCURVE",
"206 166 OFFCURVE",
"206 185 CURVE SMOOTH",
"206 210 OFFCURVE",
"206 235 OFFCURVE",
"206 260 CURVE SMOOTH",
"206 285 OFFCURVE",
"206 310 OFFCURVE",
"206 335 CURVE SMOOTH",
"206 354 OFFCURVE",
"215 367 OFFCURVE",
"229 367 CURVE SMOOTH",
"242 367 OFFCURVE",
"251 354 OFFCURVE",
"251 335 CURVE SMOOTH",
"251 325 OFFCURVE",
"251 316 OFFCURVE",
"251 306 CURVE",
"439 313 LINE",
"439 327 OFFCURVE",
"439 340 OFFCURVE",
"439 350 CURVE SMOOTH",
"439 456 OFFCURVE",
"363 528 OFFCURVE",
"229 528 CURVE SMOOTH",
"95 528 OFFCURVE",
"18 456 OFFCURVE",
"18 350 CURVE SMOOTH",
"18 327 OFFCURVE",
"18 283 OFFCURVE",
"18 260 CURVE SMOOTH",
"18 237 OFFCURVE",
"18 193 OFFCURVE",
"18 170 CURVE SMOOTH",
"18 57 OFFCURVE",
"95 -8 OFFCURVE",
"229 -8 CURVE SMOOTH"
);
}
);
width = 455;
},
{
anchors = (
{
name = bottom;
position = "{278, -8}";
},
{
name = top;
position = "{278, 520}";
}
);
layerId = "FFFA8D72-12AC-4CE0-B2CA-57A29829F4DA";
paths = (
{
closed = 1;
nodes = (
"391 -8 OFFCURVE",
"486 45 OFFCURVE",
"521 144 CURVE SMOOTH",
"528 164 OFFCURVE",
"529 185 OFFCURVE",
"529 189 CURVE",
"344 219 LINE",
"343 208 OFFCURVE",
"342 202 OFFCURVE",
"341 199 CURVE SMOOTH",
"330 167 OFFCURVE",
"308 153 OFFCURVE",
"281 153 CURVE SMOOTH",
"253 153 OFFCURVE",
"234 167 OFFCURVE",
"223 193 CURVE SMOOTH",
"216 211 OFFCURVE",
"212 234 OFFCURVE",
"212 262 CURVE SMOOTH",
"212 291 OFFCURVE",
"216 314 OFFCURVE",
"224 331 CURVE SMOOTH",
"235 355 OFFCURVE",
"254 367 OFFCURVE",
"281 367 CURVE SMOOTH",
"311 367 OFFCURVE",
"334 349 OFFCURVE",
"341 327 CURVE SMOOTH",
"344 318 OFFCURVE",
"346 305 OFFCURVE",
"347 298 CURVE",
"531 327 LINE",
"531 329 OFFCURVE",
"532 349 OFFCURVE",
"521 379 CURVE SMOOTH",
"491 462 OFFCURVE",
"399 528 OFFCURVE",
"282 528 CURVE SMOOTH",
"170 528 OFFCURVE",
"79 471 OFFCURVE",
"42 376 CURVE SMOOTH",
"31 348 OFFCURVE",
"22 310 OFFCURVE",
"22 263 CURVE SMOOTH",
"22 225 OFFCURVE",
"28 185 OFFCURVE",
"42 149 CURVE SMOOTH",
"80 51 OFFCURVE",
"169 -8 OFFCURVE",
"282 -8 CURVE SMOOTH"
);
}
);
width = 549;
},
{
anchors = (
{
name = bottom;
position = "{197, -8}";
},
{
name = top;
position = "{197, 500}";
}
);
layerId = "DCBE1F7B-116A-43E0-B7B4-8657BA77D8B5";
paths = (
{
closed = 1;
nodes = (
"277 -8 OFFCURVE",
"332 52 OFFCURVE",
"332 115 CURVE SMOOTH",
"332 117 OFFCURVE",
"332 125 OFFCURVE",
"332 127 CURVE",
"310 127 LINE",
"310 125 OFFCURVE",
"310 117 OFFCURVE",
"310 115 CURVE SMOOTH",
"310 63 OFFCURVE",
"264 13 OFFCURVE",
"197 13 CURVE SMOOTH",
"131 13 OFFCURVE",
"85 63 OFFCURVE",
"85 135 CURVE SMOOTH",
"85 173 OFFCURVE",
"85 212 OFFCURVE",
"85 250 CURVE SMOOTH",
"85 288 OFFCURVE",
"85 327 OFFCURVE",
"85 365 CURVE SMOOTH",
"85 437 OFFCURVE",
"131 487 OFFCURVE",
"197 487 CURVE SMOOTH",
"264 487 OFFCURVE",
"310 437 OFFCURVE",
"310 385 CURVE SMOOTH",
"310 383 OFFCURVE",
"310 375 OFFCURVE",
"310 373 CURVE",
"332 373 LINE",
"332 374 OFFCURVE",
"332 384 OFFCURVE",
"332 385 CURVE SMOOTH",
"332 448 OFFCURVE",
"277 508 OFFCURVE",
"197 508 CURVE SMOOTH",
"118 508 OFFCURVE",
"63 448 OFFCURVE",
"63 365 CURVE SMOOTH",
"63 327 OFFCURVE",
"63 288 OFFCURVE",
"63 250 CURVE SMOOTH",
"63 212 OFFCURVE",
"63 173 OFFCURVE",
"63 135 CURVE SMOOTH",
"63 52 OFFCURVE",
"118 -8 OFFCURVE",
"197 -8 CURVE SMOOTH"
);
}
);
width = 380;
},
{
anchors = (
{
name = top;
position = "{260, 528}";
}
);
associatedMasterId = "FFFA8D72-12AC-4CE0-B2CA-57A29829F4DA";
layerId = "0E7C393E-0635-473F-B31A-CAEFC4379571";
name = "Feb 24 17, 16:06";
paths = (
{
closed = 1;
nodes = (
"372 -8 OFFCURVE",
"454 49 OFFCURVE",
"490 144 CURVE SMOOTH",
"497 163 OFFCURVE",
"502 183 OFFCURVE",
"505 204 CURVE",
"319 219 LINE",
"317 206 OFFCURVE",
"314 195 OFFCURVE",
"310 185 CURVE SMOOTH",
"302 165 OFFCURVE",
"285 153 OFFCURVE",
"260 153 CURVE SMOOTH",
"235 153 OFFCURVE",
"219 165 OFFCURVE",
"210 185 CURVE SMOOTH",
"201 205 OFFCURVE",
"198 232 OFFCURVE",
"198 262 CURVE SMOOTH",
"198 298 OFFCURVE",
"200 316 OFFCURVE",
"210 336 CURVE SMOOTH",
"220 355 OFFCURVE",
"235 367 OFFCURVE",
"260 367 CURVE SMOOTH",
"285 367 OFFCURVE",
"300 355 OFFCURVE",
"310 336 CURVE SMOOTH",
"316 324 OFFCURVE",
"319 309 OFFCURVE",
"321 295 CURVE",
"507 315 LINE",
"503 338 OFFCURVE",
"498 360 OFFCURVE",
"490 381 CURVE SMOOTH",
"454 476 OFFCURVE",
"372 528 OFFCURVE",
"260 528 CURVE SMOOTH",
"148 528 OFFCURVE",
"66 476 OFFCURVE",
"30 381 CURVE SMOOTH",
"17 346 OFFCURVE",
"10 307 OFFCURVE",
"10 263 CURVE SMOOTH",
"10 219 OFFCURVE",
"17 179 OFFCURVE",
"30 144 CURVE SMOOTH",
"66 49 OFFCURVE",
"148 -8 OFFCURVE",
"260 -8 CURVE SMOOTH"
);
}
);
width = 515;
},
{
anchors = (
{
name = top;
position = "{223, 532}";
}
);
associatedMasterId = "4E2227F3-52E4-4048-A8EE-327B486EF0A4";
layerId = "A66C9DAC-E233-43FD-8EF1-F60ACA1546F6";
name = "Mar 6 17, 05:00";
paths = (
{
closed = 1;
nodes = (
"359 -8 OFFCURVE",
"435 57 OFFCURVE",
"435 170 CURVE SMOOTH",
"435 180 OFFCURVE",
"435 194 OFFCURVE",
"435 209 CURVE",
"247 214 LINE",
"246 184 OFFCURVE",
"245 171 OFFCURVE",
"241 163 CURVE SMOOTH",
"238 157 OFFCURVE",
"231 153 OFFCURVE",
"223 153 CURVE SMOOTH",
"215 153 OFFCURVE",
"207 157 OFFCURVE",
"204 163 CURVE SMOOTH",
"198 174 OFFCURVE",
"198 194 OFFCURVE",
"198 260 CURVE SMOOTH",
"198 332 OFFCURVE",
"197 348 OFFCURVE",
"204 360 CURVE SMOOTH",
"208 366 OFFCURVE",
"214 371 OFFCURVE",
"223 371 CURVE SMOOTH",
"231 371 OFFCURVE",
"238 366 OFFCURVE",
"241 360 CURVE SMOOTH",
"245 351 OFFCURVE",
"247 340 OFFCURVE",
"247 305 CURVE",
"435 311 LINE",
"435 326 OFFCURVE",
"435 340 OFFCURVE",
"435 350 CURVE SMOOTH",
"435 456 OFFCURVE",
"359 532 OFFCURVE",
"223 532 CURVE SMOOTH",
"87 532 OFFCURVE",
"10 456 OFFCURVE",
"10 350 CURVE SMOOTH",
"10 327 OFFCURVE",
"10 283 OFFCURVE",
"10 260 CURVE SMOOTH",
"10 237 OFFCURVE",
"10 193 OFFCURVE",
"10 170 CURVE SMOOTH",
"10 57 OFFCURVE",
"87 -8 OFFCURVE",
"223 -8 CURVE SMOOTH"
);
}
);
width = 443;
},
{
anchors = (
{
name = bottom;
position = "{254, -8}";
},
{
name = top;
position = "{254, 520}";
}
);
associatedMasterId = "4E2227F3-52E4-4048-A8EE-327B486EF0A4";
layerId = "A708B374-6D5B-4775-AA6A-F8146B244141";
name = "{188,400}";
paths = (
{
closed = 1;
nodes = (
"379 -8 OFFCURVE",
"465 53 OFFCURVE",
"481 163 CURVE SMOOTH",
"483 175 OFFCURVE",
"484 188 OFFCURVE",
"484 201 CURVE",
"298 217 LINE",
"297 207 OFFCURVE",
"296 197 OFFCURVE",
"294 188 CURVE SMOOTH",
"290 168 OFFCURVE",
"280 153 OFFCURVE",
"255 153 CURVE SMOOTH",
"234 153 OFFCURVE",
"222 165 OFFCURVE",
"216 186 CURVE SMOOTH",
"210 205 OFFCURVE",
"209 231 OFFCURVE",
"209 261 CURVE SMOOTH",
"209 288 OFFCURVE",
"210 313 OFFCURVE",
"215 332 CURVE SMOOTH",
"221 354 OFFCURVE",
"233 367 OFFCURVE",
"255 367 CURVE SMOOTH",
"276 367 OFFCURVE",
"289 355 OFFCURVE",
"295 335 CURVE SMOOTH",
"298 326 OFFCURVE",
"299 315 OFFCURVE",
"299 302 CURVE",
"485 320 LINE",
"485 337 OFFCURVE",
"483 353 OFFCURVE",
"480 368 CURVE SMOOTH",
"460 467 OFFCURVE",
"374 528 OFFCURVE",
"256 528 CURVE SMOOTH",
"133 528 OFFCURVE",
"49 464 OFFCURVE",
"30 363 CURVE SMOOTH",
"25 338 OFFCURVE",
"20 297 OFFCURVE",
"20 262 CURVE SMOOTH",
"20 231 OFFCURVE",
"23 189 OFFCURVE",
"30 160 CURVE SMOOTH",
"49 54 OFFCURVE",
"132 -8 OFFCURVE",
"256 -8 CURVE SMOOTH"
);
}
);
width = 502;
},
{
anchors = (
{
name = bottom;
position = "{285, -8}";
},
{
name = top;
position = "{282, 528}";
}
);
associatedMasterId = "FFFA8D72-12AC-4CE0-B2CA-57A29829F4DA";
layerId = "25481B12-31C4-41DE-BA37-A1D24E36589F";
name = "Apr 20 17, 01:36";
paths = (
{
closed = 1;
nodes = (
"391 -8 OFFCURVE",
"485 46 OFFCURVE",
"521 144 CURVE SMOOTH",
"528 164 OFFCURVE",
"529 185 OFFCURVE",
"529 189 CURVE",
"344 219 LINE",
"343 208 OFFCURVE",
"342 202 OFFCURVE",
"341 199 CURVE SMOOTH",
"331 167 OFFCURVE",
"308 153 OFFCURVE",
"284 153 CURVE SMOOTH",
"259 153 OFFCURVE",
"236 169 OFFCURVE",
"227 193 CURVE SMOOTH",
"220 211 OFFCURVE",
"217 234 OFFCURVE",
"217 262 CURVE SMOOTH",
"217 288 OFFCURVE",
"220 310 OFFCURVE",
"227 327 CURVE SMOOTH",
"237 351 OFFCURVE",
"260 367 OFFCURVE",
"284 367 CURVE SMOOTH",
"311 367 OFFCURVE",
"334 349 OFFCURVE",
"341 327 CURVE SMOOTH",
"344 318 OFFCURVE",
"346 305 OFFCURVE",
"347 298 CURVE",
"531 327 LINE",
"531 329 OFFCURVE",
"532 349 OFFCURVE",
"521 379 CURVE SMOOTH",
"491 462 OFFCURVE",
"399 528 OFFCURVE",
"285 528 CURVE SMOOTH",
"175 528 OFFCURVE",
"84 471 OFFCURVE",
"47 376 CURVE SMOOTH",
"36 348 OFFCURVE",
"27 310 OFFCURVE",
"27 263 CURVE SMOOTH",
"27 225 OFFCURVE",
"33 185 OFFCURVE",
"47 149 CURVE SMOOTH",
"85 51 OFFCURVE",
"174 -8 OFFCURVE",
"285 -8 CURVE SMOOTH"
);
}
);
visible = 1;
width = 555;
},
{
anchors = (
{
name = bottom;
position = "{270, -8}";
},
{
name = top;
position = "{273, 517}";
}
);
associatedMasterId = "FFFA8D72-12AC-4CE0-B2CA-57A29829F4DA";
hints = (
{
origin = "{0, 43}";
target = "{0, 18}";
type = Stem;
},
{
horizontal = 1;
origin = "{0, 49}";
target = "{0, 12}";
type = Stem;
},
{
horizontal = 1;
origin = "{0, 37}";
target = "{0, 24}";
type = Stem;
},
{
origin = "{0, 30}";
target = "{0, 31}";
type = Stem;
}
);
layerId = "1EE1D46F-5D19-4979-A3CF-98CB5FD660B9";
name = "1005GOOD";
paths = (
{
closed = 1;
nodes = (
"380 -8 OFFCURVE",
"444 34 OFFCURVE",
"478 125 CURVE SMOOTH",
"481 134 OFFCURVE",
"483 143 OFFCURVE",
"486 152 CURVE",
"388 169 LINE",
"387 166 OFFCURVE",
"386 161 OFFCURVE",
"384 157 CURVE SMOOTH",
"364 109 OFFCURVE",
"326 78 OFFCURVE",
"271 78 CURVE SMOOTH",
"221 78 OFFCURVE",
"182 108 OFFCURVE",
"167 159 CURVE SMOOTH",
"159 188 OFFCURVE",
"154 223 OFFCURVE",
"154 255 CURVE SMOOTH",
"154 288 OFFCURVE",
"159 323 OFFCURVE",
"167 349 CURVE SMOOTH",
"184 401 OFFCURVE",
"222 431 OFFCURVE",
"273 431 CURVE SMOOTH",
"327 431 OFFCURVE",
"367 402 OFFCURVE",
"384 353 CURVE SMOOTH",
"386 350 OFFCURVE",
"388 343 OFFCURVE",
"389 334 CURVE",
"487 350 LINE",
"484 362 OFFCURVE",
"482 374 OFFCURVE",
"478 385 CURVE SMOOTH",
"444 476 OFFCURVE",
"380 517 OFFCURVE",
"271 517 CURVE SMOOTH",
"175 517 OFFCURVE",
"101 466 OFFCURVE",
"72 378 CURVE SMOOTH",
"61 344 OFFCURVE",
"54 299 OFFCURVE",
"54 256 CURVE SMOOTH",
"54 214 OFFCURVE",
"61 169 OFFCURVE",
"72 134 CURVE SMOOTH",
"101 45 OFFCURVE",
"175 -8 OFFCURVE",
"270 -8 CURVE SMOOTH"
);
}
);
width = 527;
},
{
anchors = (
{
name = bottom;
position = "{270, -8}";
},
{
name = top;
position = "{273, 517}";
}
);
associatedMasterId = "FFFA8D72-12AC-4CE0-B2CA-57A29829F4DA";
hints = (
{
origin = "{0, 43}";
target = "{0, 18}";
type = Stem;
},
{
horizontal = 1;
origin = "{0, 49}";
target = "{0, 12}";
type = Stem;
},
{
horizontal = 1;
origin = "{0, 37}";
target = "{0, 24}";
type = Stem;
},
{
origin = "{0, 30}";
target = "{0, 31}";
type = Stem;
}
);
layerId = "23FE8C9D-6308-4DBC-91C0-B125E6231B14";
name = "For VF";
paths = (
{
closed = 1;
nodes = (
"380 -8 OFFCURVE",
"444 34 OFFCURVE",
"478 125 CURVE SMOOTH",
"481 134 OFFCURVE",
"483 143 OFFCURVE",
"486 152 CURVE",
"388 169 LINE",
"387 166 OFFCURVE",
"386 161 OFFCURVE",
"384 157 CURVE SMOOTH",
"364 109 OFFCURVE",
"326 78 OFFCURVE",
"271 78 CURVE SMOOTH",
"221 78 OFFCURVE",
"182 108 OFFCURVE",
"167 159 CURVE SMOOTH",
"159 188 OFFCURVE",
"154 223 OFFCURVE",
"154 255 CURVE SMOOTH",
"154 288 OFFCURVE",
"159 323 OFFCURVE",
"167 349 CURVE SMOOTH",
"184 401 OFFCURVE",
"222 431 OFFCURVE",
"273 431 CURVE SMOOTH",
"327 431 OFFCURVE",
"367 402 OFFCURVE",
"384 353 CURVE SMOOTH",
"386 350 OFFCURVE",
"388 343 OFFCURVE",
"389 334 CURVE",
"487 350 LINE",
"484 362 OFFCURVE",
"482 374 OFFCURVE",
"478 385 CURVE SMOOTH",
"444 476 OFFCURVE",
"380 517 OFFCURVE",
"271 517 CURVE SMOOTH",
"175 517 OFFCURVE",
"101 466 OFFCURVE",
"72 378 CURVE SMOOTH",
"61 344 OFFCURVE",
"54 299 OFFCURVE",
"54 256 CURVE SMOOTH",
"54 214 OFFCURVE",
"61 169 OFFCURVE",
"72 134 CURVE SMOOTH",
"101 45 OFFCURVE",
"175 -8 OFFCURVE",
"270 -8 CURVE SMOOTH"
);
}
);
width = 527;
}
);
leftKerningGroup = o;
rightKerningGroup = c;
unicode = 0063;
},
{
glyphname = eth;
layers = (
{
hints = (
{
horizontal = 1;
place = "{508, -2147483648}";
type = Stem;
},
{
origin = "{0, 25}";
target = "{0, 22}";
type = Stem;
},
{
origin = "{0, 15}";
target = "{0, 5}";
type = Stem;
},
{
horizontal = 1;
place = "{-8, -2147483648}";
type = Stem;
}
);
layerId = "262880E7-CFE1-4BDA-902E-E24798F3240A";
paths = (
{
closed = 1;
nodes = (
"348 -8 OFFCURVE",
"414 46 OFFCURVE",
"431 123 CURVE SMOOTH",
"438 155 OFFCURVE",
"436 191 OFFCURVE",
"436 250 CURVE SMOOTH",
"436 290 OFFCURVE",
"437 321 OFFCURVE",
"435 348 CURVE SMOOTH",
"422 562 OFFCURVE",
"301 642 OFFCURVE",
"227 700 CURVE",
"195 700 LINE",
"281 634 OFFCURVE",
"387 539 OFFCURVE",
"402 427 CURVE",
"409 430 LINE",
"380 478 OFFCURVE",
"325 508 OFFCURVE",
"258 508 CURVE SMOOTH",
"169 508 OFFCURVE",
"105 454 OFFCURVE",
"88 377 CURVE SMOOTH",
"80 345 OFFCURVE",
"81 310 OFFCURVE",
"81 251 CURVE SMOOTH",
"81 195 OFFCURVE",
"80 156 OFFCURVE",
"88 123 CURVE SMOOTH",
"106 46 OFFCURVE",
"168 -8 OFFCURVE",
"258 -8 CURVE SMOOTH"
);
},
{
closed = 1;
nodes = (
"176 13 OFFCURVE",
"120 63 OFFCURVE",
"107 135 CURVE SMOOTH",
"103 156 OFFCURVE",
"103 193 OFFCURVE",
"103 250 CURVE SMOOTH",
"103 302 OFFCURVE",
"103 343 OFFCURVE",
"107 365 CURVE SMOOTH",
"120 436 OFFCURVE",
"176 487 OFFCURVE",
"258 487 CURVE SMOOTH",
"340 487 OFFCURVE",
"398 436 OFFCURVE",
"411 365 CURVE SMOOTH",
"415 344 OFFCURVE",
"414 307 OFFCURVE",
"414 250 CURVE SMOOTH",
"414 198 OFFCURVE",
"415 157 OFFCURVE",
"411 135 CURVE SMOOTH",
"398 64 OFFCURVE",
"340 13 OFFCURVE",
"258 13 CURVE SMOOTH"
);
},
{
closed = 1;
nodes = (
"401 634 LINE",
"395 653 LINE",
"208 589 LINE",
"214 570 LINE"
);
}
);
width = 517;
},
{
layerId = "FFFA8D72-12AC-4CE0-B2CA-57A29829F4DA";
paths = (
{
closed = 1;
nodes = (
"386 -8 OFFCURVE",
"473 49 OFFCURVE",
"510 129 CURVE SMOOTH",
"522 155 OFFCURVE",
"530 189 OFFCURVE",
"530 228 CURVE SMOOTH",
"530 279 OFFCURVE",
"524 328 OFFCURVE",
"512 373 CURVE SMOOTH",
"489 463 OFFCURVE",
"435 551 OFFCURVE",
"322 700 CURVE",
"121 700 LINE",
"206 608 OFFCURVE",
"264 539 OFFCURVE",
"317 420 CURVE",
"327 422 LINE",
"315 463 OFFCURVE",
"171 446 OFFCURVE",
"121 415 CURVE SMOOTH",
"86 393 OFFCURVE",
"59 362 OFFCURVE",
"42 325 CURVE SMOOTH",
"29 296 OFFCURVE",
"22 263 OFFCURVE",
"22 227 CURVE SMOOTH",
"22 192 OFFCURVE",
"28 160 OFFCURVE",
"42 129 CURVE SMOOTH",
"80 45 OFFCURVE",
"168 -8 OFFCURVE",
"276 -8 CURVE SMOOTH"
);
},
{
closed = 1;
nodes = (
"254 132 OFFCURVE",
"236 145 OFFCURVE",
"225 167 CURVE SMOOTH",
"217 183 OFFCURVE",
"212 199 OFFCURVE",
"212 222 CURVE SMOOTH",
"212 243 OFFCURVE",
"216 258 OFFCURVE",
"224 274 CURVE SMOOTH",
"235 296 OFFCURVE",
"254 307 OFFCURVE",
"276 307 CURVE SMOOTH",
"298 307 OFFCURVE",
"315 296 OFFCURVE",
"327 274 CURVE SMOOTH",
"335 259 OFFCURVE",
"340 243 OFFCURVE",
"340 222 CURVE SMOOTH",
"340 199 OFFCURVE",
"335 182 OFFCURVE",
"327 167 CURVE SMOOTH",
"315 145 OFFCURVE",
"298 132 OFFCURVE",
"276 132 CURVE SMOOTH"
);
},
{
closed = 1;
nodes = (
"500 561 LINE",
"476 658 LINE",
"128 572 LINE",
"152 475 LINE"
);
}
);
width = 563;
},
{
layerId = "DCBE1F7B-116A-43E0-B7B4-8657BA77D8B5";
paths = (
{
closed = 1;
nodes = (
"277 -8 OFFCURVE",
"332 52 OFFCURVE",
"332 135 CURVE SMOOTH",
"332 173 OFFCURVE",
"332 212 OFFCURVE",
"332 250 CURVE SMOOTH",
"332 298 OFFCURVE",
"333 327 OFFCURVE",
"332 365 CURVE SMOOTH",
"326 580 OFFCURVE",
"236 660 OFFCURVE",
"190 700 CURVE",
"165 700 LINE",
"223 654 OFFCURVE",
"300 561 OFFCURVE",
"305 443 CURVE",
"308 452 LINE",
"284 487 OFFCURVE",
"244 508 OFFCURVE",
"197 508 CURVE SMOOTH",
"118 508 OFFCURVE",
"63 448 OFFCURVE",
"63 365 CURVE SMOOTH",
"63 327 OFFCURVE",
"63 298 OFFCURVE",
"63 250 CURVE SMOOTH",
"63 212 OFFCURVE",
"63 173 OFFCURVE",
"63 135 CURVE SMOOTH",
"63 52 OFFCURVE",
"118 -8 OFFCURVE",
"197 -8 CURVE SMOOTH"
);
},
{
closed = 1;
nodes = (
"131 13 OFFCURVE",
"85 63 OFFCURVE",
"85 135 CURVE SMOOTH",
"85 173 OFFCURVE",
"85 212 OFFCURVE",
"85 250 CURVE SMOOTH",
"85 298 OFFCURVE",
"85 327 OFFCURVE",
"85 365 CURVE SMOOTH",
"85 437 OFFCURVE",
"131 487 OFFCURVE",
"197 487 CURVE",
"264 487 OFFCURVE",
"310 437 OFFCURVE",
"310 365 CURVE SMOOTH",
"310 327 OFFCURVE",
"310 298 OFFCURVE",
"310 250 CURVE SMOOTH",
"310 212 OFFCURVE",
"310 173 OFFCURVE",
"310 135 CURVE SMOOTH",
"310 63 OFFCURVE",
"264 13 OFFCURVE",
"197 13 CURVE SMOOTH"
);
},
{
closed = 1;
nodes = (
"357 638 LINE",
"351 657 LINE",
"164 593 LINE",
"170 574 LINE"
);
}
);
width = 420;
},
{
layerId = "4E2227F3-52E4-4048-A8EE-327B486EF0A4";
paths = (
{
closed = 1;
nodes = (
"367 -8 OFFCURVE",
"443 57 OFFCURVE",
"443 170 CURVE SMOOTH",
"443 193 OFFCURVE",
"443 217 OFFCURVE",
"443 240 CURVE SMOOTH",
"443 263 OFFCURVE",
"443 287 OFFCURVE",
"443 310 CURVE SMOOTH",
"443 435 OFFCURVE",
"403 550 OFFCURVE",
"299 700 CURVE",
"118 700 LINE",
"199 576 OFFCURVE",
"235 501 OFFCURVE",
"249 452 CURVE",
"261 452 LINE",
"253 465 OFFCURVE",
"253 488 OFFCURVE",
"197 488 CURVE SMOOTH",
"99 488 OFFCURVE",
"18 416 OFFCURVE",
"18 310 CURVE SMOOTH",
"18 287 OFFCURVE",
"18 263 OFFCURVE",
"18 240 CURVE SMOOTH",
"18 217 OFFCURVE",
"18 193 OFFCURVE",
"18 170 CURVE SMOOTH",
"18 57 OFFCURVE",
"95 -8 OFFCURVE",
"231 -8 CURVE SMOOTH"
);
},
{
closed = 1;
nodes = (
"216 153 OFFCURVE",
"206 166 OFFCURVE",
"206 185 CURVE SMOOTH",
"206 210 OFFCURVE",
"206 215 OFFCURVE",
"206 240 CURVE SMOOTH",
"206 265 OFFCURVE",
"206 270 OFFCURVE",
"206 295 CURVE SMOOTH",
"206 314 OFFCURVE",
"216 327 OFFCURVE",
"231 327 CURVE SMOOTH",
"245 327 OFFCURVE",
"255 314 OFFCURVE",
"255 295 CURVE SMOOTH",
"255 270 OFFCURVE",
"255 265 OFFCURVE",
"255 240 CURVE SMOOTH",
"255 215 OFFCURVE",
"255 210 OFFCURVE",
"255 185 CURVE SMOOTH",
"255 166 OFFCURVE",
"245 153 OFFCURVE",
"231 153 CURVE SMOOTH"
);
},
{
closed = 1;
nodes = (
"441 582 LINE",
"424 661 LINE",
"104 585 LINE",
"123 510 LINE"
);
}
);
width = 461;
},
{
associatedMasterId = "FFFA8D72-12AC-4CE0-B2CA-57A29829F4DA";
layerId = "69ED2367-3D6B-49BA-B51E-69D72CE29D64";
name = "Apr 8 17, 03:30";
paths = (
{
closed = 1;
nodes = (
"439 556 LINE SMOOTH",
"445 558 OFFCURVE",
"447 563 OFFCURVE",
"446 569 CURVE",
"422 650 LINE SMOOTH",
"420 656 OFFCURVE",
"415 658 OFFCURVE",
"409 657 CURVE",
"320 631 LINE",
"291 671 LINE",
"286 677 OFFCURVE",
"280 680 OFFCURVE",
"270 680 CURVE SMOOTH",
"96 680 LINE SMOOTH",
"90 680 OFFCURVE",
"88 675 OFFCURVE",
"92 670 CURVE",
"155 582 LINE",
"93 564 LINE",
"87 562 OFFCURVE",
"84 557 OFFCURVE",
"86 552 CURVE",
"110 470 LINE",
"112 464 OFFCURVE",
"117 462 OFFCURVE",
"122 463 CURVE",
"221 492 LINE",
"277 415 LINE",
"275 415 LINE",
"263 421 OFFCURVE",
"244 432 OFFCURVE",
"211 432 CURVE SMOOTH",
"120 432 OFFCURVE",
"60 380 OFFCURVE",
"36 307 CURVE SMOOTH",
"26 277 OFFCURVE",
"23 246 OFFCURVE",
"23 215 CURVE SMOOTH",
"23 184 OFFCURVE",
"27 158 OFFCURVE",
"37 128 CURVE SMOOTH",
"64 45 OFFCURVE",
"146 -12 OFFCURVE",
"273 -12 CURVE SMOOTH",
"393 -12 OFFCURVE",
"479 44 OFFCURVE",
"510 139 CURVE SMOOTH",
"518 164 OFFCURVE",
"523 193 OFFCURVE",
"523 226 CURVE SMOOTH",
"523 327 OFFCURVE",
"493 393 OFFCURVE",
"385 540 CURVE"
);
}
);
visible = 1;
width = 562;
}
);
leftKerningGroup = o;
leftMetricsKey = "=d";
rightKerningGroup = b;
rightMetricsKey = "=a";
unicode = 00F0;
},
{
color = 3;
glyphname = e;
layers = (
{
anchors = (
{
name = bottom;
position = "{194, 0}";
},
{
name = ogonek;
position = "{349, 10}";
},
{
name = top;
position = "{194, 500}";
}
);
layerId = "DCBE1F7B-116A-43E0-B7B4-8657BA77D8B5";
paths = (
{
closed = 1;
nodes = (
"268 -8 OFFCURVE",
"320 40 OFFCURVE",
"330 109 CURVE",
"308 109 LINE",
"298 52 OFFCURVE",
"255 13 OFFCURVE",
"197 13 CURVE SMOOTH",
"131 13 OFFCURVE",
"85 63 OFFCURVE",
"85 135 CURVE SMOOTH",
"85 173 OFFCURVE",
"85 212 OFFCURVE",
"85 250 CURVE SMOOTH",
"85 288 OFFCURVE",
"85 327 OFFCURVE",
"85 365 CURVE SMOOTH",
"85 437 OFFCURVE",
"131 487 OFFCURVE",
"197 487 CURVE SMOOTH",
"264 487 OFFCURVE",
"310 437 OFFCURVE",
"310 365 CURVE SMOOTH",
"310 327 OFFCURVE",
"310 288 OFFCURVE",
"310 261 CURVE",
"319 267 LINE",
"77 267 LINE",
"77 247 LINE",
"332 247 LINE",
"332 287 OFFCURVE",
"332 327 OFFCURVE",
"332 365 CURVE SMOOTH",
"332 448 OFFCURVE",
"277 508 OFFCURVE",
"197 508 CURVE SMOOTH",
"118 508 OFFCURVE",
"63 448 OFFCURVE",
"63 365 CURVE SMOOTH",
"63 327 OFFCURVE",
"63 288 OFFCURVE",
"63 250 CURVE SMOOTH",
"63 212 OFFCURVE",
"63 173 OFFCURVE",
"63 135 CURVE SMOOTH",
"63 52 OFFCURVE",
"118 -8 OFFCURVE",
"197 -8 CURVE SMOOTH"
);
}
);
width = 388;
},
{
anchors = (
{
name = bottom;
position = "{197, -8}";
},
{
name = top;
position = "{197, 508}";
}
);
associatedMasterId = "DCBE1F7B-116A-43E0-B7B4-8657BA77D8B5";
layerId = "27DE0D86-600F-4F55-A60E-FD534B4FC0F5";
name = "Jul 13 17, 05:36";
paths = (
{
closed = 1;
nodes = (
"268 -8 OFFCURVE",
"320 40 OFFCURVE",
"330 109 CURVE",
"308 108 LINE",
"298 51 OFFCURVE",
"255 13 OFFCURVE",
"197 13 CURVE SMOOTH",
"131 13 OFFCURVE",
"85 63 OFFCURVE",
"85 135 CURVE SMOOTH",
"85 173 OFFCURVE",
"85 212 OFFCURVE",
"85 250 CURVE SMOOTH",
"85 288 OFFCURVE",
"85 327 OFFCURVE",
"85 365 CURVE SMOOTH",
"85 437 OFFCURVE",
"131 487 OFFCURVE",
"197 487 CURVE SMOOTH",
"264 487 OFFCURVE",
"310 437 OFFCURVE",
"310 365 CURVE SMOOTH",
"310 327 OFFCURVE",
"310 288 OFFCURVE",
"310 261 CURVE",
"319 267 LINE",
"77 267 LINE",
"77 247 LINE",
"332 247 LINE",
"332 287 OFFCURVE",
"332 327 OFFCURVE",
"332 365 CURVE SMOOTH",
"332 448 OFFCURVE",
"277 508 OFFCURVE",
"197 508 CURVE SMOOTH",
"118 508 OFFCURVE",
"63 448 OFFCURVE",
"63 365 CURVE SMOOTH",
"63 327 OFFCURVE",
"63 288 OFFCURVE",
"63 250 CURVE SMOOTH",
"63 212 OFFCURVE",
"63 173 OFFCURVE",
"63 135 CURVE SMOOTH",
"63 52 OFFCURVE",
"118 -8 OFFCURVE",
"197 -8 CURVE SMOOTH"
);
}
);
width = 388;
},
{
anchors = (
{
name = bottom;
position = "{228, 0}";
},
{
name = ogonek;
position = "{409, 10}";
},
{
name = top;
position = "{228, 520}";
}
);
layerId = "4E2227F3-52E4-4048-A8EE-327B486EF0A4";
paths = (
{
closed = 1;
nodes = (
"370 -8 OFFCURVE",
"435 53 OFFCURVE",
"437 180 CURVE",
"254 192 LINE",
"254 176 OFFCURVE",
"248 153 OFFCURVE",
"229 153 CURVE SMOOTH",
"215 153 OFFCURVE",
"206 166 OFFCURVE",
"206 185 CURVE SMOOTH",
"206 210 OFFCURVE",
"206 235 OFFCURVE",
"206 260 CURVE SMOOTH",
"206 285 OFFCURVE",
"206 310 OFFCURVE",
"206 335 CURVE SMOOTH",
"206 354 OFFCURVE",
"215 367 OFFCURVE",
"229 367 CURVE SMOOTH",
"242 367 OFFCURVE",
"251 354 OFFCURVE",
"251 335 CURVE SMOOTH",
"251 316 OFFCURVE",
"251 298 OFFCURVE",
"251 279 CURVE",
"314 305 LINE",
"156 305 LINE",
"156 213 LINE",
"439 213 LINE",
"439 221 OFFCURVE",
"439 291 OFFCURVE",
"439 350 CURVE SMOOTH",
"439 456 OFFCURVE",
"363 528 OFFCURVE",
"229 528 CURVE SMOOTH",
"95 528 OFFCURVE",
"18 456 OFFCURVE",
"18 350 CURVE SMOOTH",
"18 327 OFFCURVE",
"18 283 OFFCURVE",
"18 260 CURVE SMOOTH",
"18 230 OFFCURVE",
"18 200 OFFCURVE",
"18 170 CURVE SMOOTH",
"18 57 OFFCURVE",
"95 -8 OFFCURVE",
"229 -8 CURVE SMOOTH"
);
}
);
width = 455;
},
{
anchors = (
{
name = top;
position = "{223, 528}";
}
);
associatedMasterId = "4E2227F3-52E4-4048-A8EE-327B486EF0A4";
layerId = "1607DCD5-9BA9-4F8D-B5DF-80154018F12C";
name = "Feb 24 17, 00:20";
paths = (
{
closed = 1;
nodes = (
"358 -7 OFFCURVE",
"429 67 OFFCURVE",
"428 181 CURVE",
"247 193 LINE",
"246 168 OFFCURVE",
"238 154 OFFCURVE",
"224 154 CURVE SMOOTH",
"207 154 OFFCURVE",
"198 168 OFFCURVE",
"198 193 CURVE SMOOTH",
"198 332 LINE SMOOTH",
"198 354 OFFCURVE",
"207 367 OFFCURVE",
"223 367 CURVE SMOOTH",
"238 367 OFFCURVE",
"247 354 OFFCURVE",
"247 332 CURVE SMOOTH",
"247 303 LINE",
"126 303 LINE",
"126 215 LINE",
"435 215 LINE",
"435 331 LINE SMOOTH",
"435 457 OFFCURVE",
"359 528 OFFCURVE",
"223 528 CURVE SMOOTH",
"87 528 OFFCURVE",
"10 457 OFFCURVE",
"10 331 CURVE SMOOTH",
"10 189 LINE SMOOTH",
"10 64 OFFCURVE",
"87 -7 OFFCURVE",
"223 -7 CURVE SMOOTH"
);
}
);
width = 445;
},
{
anchors = (
{
name = top;
position = "{203, 517}";
}
);
associatedMasterId = "4E2227F3-52E4-4048-A8EE-327B486EF0A4";
layerId = "A53D93E6-92CC-45B1-8880-653E9256B646";
name = "100Feb 24 17, 00:22";
paths = (
{
closed = 1;
nodes = (
"303 -8 OFFCURVE",
"372 48 OFFCURVE",
"379 141 CURVE",
"280 143 LINE",
"272 102 OFFCURVE",
"241 79 OFFCURVE",
"204 79 CURVE SMOOTH",
"156 79 OFFCURVE",
"125 115 OFFCURVE",
"125 173 CURVE SMOOTH",
"125 339 LINE SMOOTH",
"125 395 OFFCURVE",
"156 431 OFFCURVE",
"203 431 CURVE SMOOTH",
"251 431 OFFCURVE",
"281 395 OFFCURVE",
"281 339 CURVE SMOOTH",
"281 298 LINE",
"86 298 LINE",
"86 215 LINE",
"381 215 LINE",
"381 337 LINE SMOOTH",
"381 449 OFFCURVE",
"314 517 OFFCURVE",
"203 517 CURVE SMOOTH",
"94 517 OFFCURVE",
"26 449 OFFCURVE",
"26 338 CURVE SMOOTH",
"26 171 LINE SMOOTH",
"26 61 OFFCURVE",
"93 -8 OFFCURVE",
"204 -8 CURVE SMOOTH"
);
}
);
width = 409;
},
{
anchors = (
{
name = top;
position = "{235, 517}";
}
);
associatedMasterId = "4E2227F3-52E4-4048-A8EE-327B486EF0A4";
layerId = "A47C68F1-3740-4053-814E-50DA5F989A02";
name = "Feb 24 17, 00:22";
paths = (
{
closed = 1;
nodes = (
"345 -8 OFFCURVE",
"415 47 OFFCURVE",
"436 143 CURVE",
"338 152 LINE",
"324 106 OFFCURVE",
"289 79 OFFCURVE",
"240 79 CURVE SMOOTH",
"169 79 OFFCURVE",
"131 134 OFFCURVE",
"131 230 CURVE SMOOTH",
"131 282 LINE SMOOTH",
"131 377 OFFCURVE",
"169 433 OFFCURVE",
"239 433 CURVE SMOOTH",
"309 433 OFFCURVE",
"348 378 OFFCURVE",
"348 284 CURVE",
"348 296 LINE",
"109 296 LINE",
"109 211 LINE",
"448 211 LINE",
"448 281 LINE SMOOTH",
"448 432 OFFCURVE",
"371 519 OFFCURVE",
"239 519 CURVE SMOOTH",
"107 519 OFFCURVE",
"31 432 OFFCURVE",
"31 281 CURVE SMOOTH",
"31 231 LINE SMOOTH",
"31 79 OFFCURVE",
"107 -8 OFFCURVE",
"240 -8 CURVE SMOOTH"
);
}
);
width = 479;
},
{
anchors = (
{
name = top;
position = "{243, 522}";
}
);
associatedMasterId = "4E2227F3-52E4-4048-A8EE-327B486EF0A4";
layerId = "5954086A-CF98-4407-B6DE-F8A05521AEBF";
name = "Feb 24 17, 00:22";
paths = (
{
closed = 1;
nodes = (
"365 -8 OFFCURVE",
"442 52 OFFCURVE",
"466 157 CURVE",
"327 171 LINE",
"315 134 OFFCURVE",
"288 113 OFFCURVE",
"249 113 CURVE SMOOTH",
"190 113 OFFCURVE",
"161 161 OFFCURVE",
"161 245 CURVE SMOOTH",
"161 273 LINE SMOOTH",
"161 357 OFFCURVE",
"190 405 OFFCURVE",
"249 405 CURVE SMOOTH",
"306 405 OFFCURVE",
"336 358 OFFCURVE",
"336 277 CURVE",
"336 308 LINE",
"133 308 LINE",
"133 213 LINE",
"476 213 LINE",
"476 273 LINE SMOOTH",
"476 433 OFFCURVE",
"393 525 OFFCURVE",
"249 525 CURVE SMOOTH",
"104 525 OFFCURVE",
"21 433 OFFCURVE",
"21 273 CURVE SMOOTH",
"21 246 LINE SMOOTH",
"21 84 OFFCURVE",
"104 -8 OFFCURVE",
"249 -8 CURVE SMOOTH"
);
}
);
width = 498;
},
{
anchors = (
{
name = top;
position = "{223, 532}";
}
);
associatedMasterId = "4E2227F3-52E4-4048-A8EE-327B486EF0A4";
layerId = "A2BBABA4-A182-4348-8C30-8AD760BED60C";
name = "Mar 6 17, 05:03";
paths = (
{
closed = 1;
nodes = (
"357 -8 OFFCURVE",
"435 54 OFFCURVE",
"435 175 CURVE",
"247 192 LINE",
"246 172 OFFCURVE",
"244 153 OFFCURVE",
"223 153 CURVE SMOOTH",
"215 153 OFFCURVE",
"207 157 OFFCURVE",
"204 163 CURVE",
"198 174 OFFCURVE",
"198 325 OFFCURVE",
"198 260 CURVE SMOOTH",
"198 236 OFFCURVE",
"197 348 OFFCURVE",
"204 360 CURVE",
"208 366 OFFCURVE",
"214 371 OFFCURVE",
"223 371 CURVE SMOOTH",
"231 371 OFFCURVE",
"239 366 OFFCURVE",
"242 360 CURVE",
"249 348 OFFCURVE",
"247 332 OFFCURVE",
"247 260 CURVE",
"323 303 LINE",
"162 303 LINE",
"162 215 LINE",
"435 215 LINE",
"435 270 OFFCURVE",
"435 294 OFFCURVE",
"435 350 CURVE SMOOTH",
"435 456 OFFCURVE",
"359 532 OFFCURVE",
"223 532 CURVE SMOOTH",
"87 532 OFFCURVE",
"10 456 OFFCURVE",
"10 350 CURVE SMOOTH",
"10 327 OFFCURVE",
"10 283 OFFCURVE",
"10 260 CURVE SMOOTH",
"10 230 OFFCURVE",
"10 200 OFFCURVE",
"10 170 CURVE SMOOTH",
"10 57 OFFCURVE",
"87 -8 OFFCURVE",
"223 -8 CURVE SMOOTH"
);
}
);
width = 445;
},
{
anchors = (
{
name = bottom;
position = "{276, -9}";
},
{
name = ogonek;
position = "{483, 10}";
},
{
name = top;
position = "{270, 509}";
}
);
associatedMasterId = "4E2227F3-52E4-4048-A8EE-327B486EF0A4";
hints = (
{
place = "{47.795, 47.368}";
type = Stem;
},
{
place = "{295.094, 29.778}";
type = Stem;
},
{
horizontal = 1;
place = "{160.547, 20.991}";
type = Stem;
},
{
horizontal = 1;
place = "{359.265, -38.051}";
type = Stem;
},
{
horizontal = 1;
place = "{-5.607, 38.051}";
type = Stem;
},
{
place = "{278.359, 43.778}";
type = Stem;
}
);
layerId = "2A2B9E74-0281-441B-9A83-648CC11D66AE";
name = "{100,500}";
paths = (
{
closed = 1;
nodes = (
"368 -10 OFFCURVE",
"443 29 OFFCURVE",
"481 95 CURVE",
"405 147 LINE",
"379 102 OFFCURVE",
"341 77 OFFCURVE",
"285 78 CURVE SMOOTH",
"218 79 OFFCURVE",
"175 110 OFFCURVE",
"161 161 CURVE SMOOTH",
"155 180 OFFCURVE",
"154 216 OFFCURVE",
"154 255 CURVE SMOOTH",
"154 294 OFFCURVE",
"156 329 OFFCURVE",
"164 354 CURVE SMOOTH",
"177 400 OFFCURVE",
"213 431 OFFCURVE",
"270 431 CURVE SMOOTH",
"329 431 OFFCURVE",
"368 397 OFFCURVE",
"381 347 CURVE SMOOTH",
"386 329 OFFCURVE",
"388 294 OFFCURVE",
"388 260 CURVE",
"426 297 LINE",
"124 297 LINE",
"124 214 LINE",
"487 214 LINE",
"488 254 OFFCURVE",
"487 284 OFFCURVE",
"484 315 CURVE SMOOTH",
"470 441 OFFCURVE",
"413 517 OFFCURVE",
"270 517 CURVE SMOOTH",
"166 517 OFFCURVE",
"90 459 OFFCURVE",
"66 368 CURVE SMOOTH",
"57 337 OFFCURVE",
"55 300 OFFCURVE",
"55 257 CURVE SMOOTH",
"55 201 OFFCURVE",
"63 153 OFFCURVE",
"80 113 CURVE SMOOTH",
"113 37 OFFCURVE",
"178 -7 OFFCURVE",
"276 -9 CURVE SMOOTH"
);
}
);
width = 537;
},
{
anchors = (
{
name = bottom;
position = "{212, -8}";
},
{
name = ogonek;
position = "{377, 10}";
},
{
name = top;
position = "{212, 509}";
}
);
associatedMasterId = "4E2227F3-52E4-4048-A8EE-327B486EF0A4";
layerId = "08201EB5-B49F-440A-802B-CA47CCD12539";
name = "{100,300}";
paths = (
{
closed = 1;
nodes = (
"316 -8 OFFCURVE",
"374 49 OFFCURVE",
"380 142 CURVE",
"283 147 LINE",
"278 109 OFFCURVE",
"252 78 OFFCURVE",
"212 78 CURVE SMOOTH",
"171 78 OFFCURVE",
"142 111 OFFCURVE",
"142 158 CURVE SMOOTH",
"142 190 OFFCURVE",
"142 223 OFFCURVE",
"142 255 CURVE SMOOTH",
"142 286 OFFCURVE",
"142 319 OFFCURVE",
"142 351 CURVE SMOOTH",
"142 398 OFFCURVE",
"171 431 OFFCURVE",
"212 431 CURVE SMOOTH",
"254 431 OFFCURVE",
"283 398 OFFCURVE",
"283 351 CURVE SMOOTH",
"283 322 OFFCURVE",
"283 293 OFFCURVE",
"283 270 CURVE",
"317 296 LINE",
"114 296 LINE",
"114 213 LINE",
"382 213 LINE",
"382 238 OFFCURVE",
"382 310 OFFCURVE",
"382 358 CURVE SMOOTH",
"382 452 OFFCURVE",
"318 517 OFFCURVE",
"212 517 CURVE SMOOTH",
"107 517 OFFCURVE",
"42 452 OFFCURVE",
"42 358 CURVE SMOOTH",
"42 327 OFFCURVE",
"42 286 OFFCURVE",
"42 255 CURVE SMOOTH",
"42 221 OFFCURVE",
"42 185 OFFCURVE",
"42 151 CURVE SMOOTH",
"42 54 OFFCURVE",
"107 -8 OFFCURVE",
"212 -8 CURVE SMOOTH"
);
}
);
width = 419;
},
{
anchors = (
{
name = bottom;
position = "{233, -5}";
},
{
name = ogonek;
position = "{419, 10}";
},
{
name = top;
position = "{233, 504}";
}
);
associatedMasterId = "4E2227F3-52E4-4048-A8EE-327B486EF0A4";
hints = (
{
horizontal = 1;
origin = "{0, 27}";
target = "{0, 26}";
type = Stem;
},
{
origin = "{0, 24}";
target = "{0, 28}";
type = Stem;
},
{
origin = "{0, 40}";
target = "{0, 12}";
type = Stem;
},
{
horizontal = 1;
origin = "{0, 46}";
target = "{0, 6}";
type = Stem;
},
{
horizontal = 1;
origin = "{0, 34}";
target = "{0, 18}";
type = Stem;
}
);
layerId = "760AC3E6-CE82-4E46-8443-13CF55BA59C8";
name = "{53,400}";
paths = (
{
closed = 1;
nodes = (
"323 -8 OFFCURVE",
"385 42 OFFCURVE",
"403 118 CURVE",
"354 127 LINE",
"340 75 OFFCURVE",
"297 39 OFFCURVE",
"237 39 CURVE SMOOTH",
"170 39 OFFCURVE",
"125 82 OFFCURVE",
"118 145 CURVE SMOOTH",
"116 172 OFFCURVE",
"116 209 OFFCURVE",
"116 252 CURVE SMOOTH",
"116 293 OFFCURVE",
"116 330 OFFCURVE",
"118 359 CURVE SMOOTH",
"125 421 OFFCURVE",
"169 465 OFFCURVE",
"235 465 CURVE SMOOTH",
"300 465 OFFCURVE",
"345 421 OFFCURVE",
"352 359 CURVE SMOOTH",
"354 332 OFFCURVE",
"355 295 OFFCURVE",
"355 262 CURVE",
"375 277 LINE",
"99 277 LINE",
"99 232 LINE",
"408 232 LINE",
"408 285 OFFCURVE",
"408 325 OFFCURVE",
"405 360 CURVE SMOOTH",
"397 449 OFFCURVE",
"333 512 OFFCURVE",
"234 512 CURVE SMOOTH",
"142 512 OFFCURVE",
"77 452 OFFCURVE",
"67 367 CURVE SMOOTH",
"63 334 OFFCURVE",
"63 297 OFFCURVE",
"63 252 CURVE SMOOTH",
"63 207 OFFCURVE",
"63 168 OFFCURVE",
"69 132 CURVE SMOOTH",
"81 49 OFFCURVE",
"143 -8 OFFCURVE",
"236 -8 CURVE SMOOTH"
);
}
);
width = 465;
},
{
anchors = (
{
name = bottom;
position = "{287, -10}";
},
{
name = ogonek;
position = "{492, 10}";
},
{
name = top;
position = "{273, 515}";
}
);
associatedMasterId = "4E2227F3-52E4-4048-A8EE-327B486EF0A4";
hints = (
{
place = "{23.898, 23.684}";
type = Stem;
},
{
place = "{147.547, 14.889}";
type = Stem;
},
{
horizontal = 1;
place = "{80.273, 10.495}";
type = Stem;
},
{
horizontal = 1;
place = "{179.632, -19.026}";
type = Stem;
},
{
horizontal = 1;
place = "{-2.804, 19.026}";
type = Stem;
},
{
place = "{139.18, 21.889}";
type = Stem;
}
);
layerId = "2A2CF652-FDA6-4CD5-BE40-6F49EDC401C9";
name = "{144,500}";
paths = (
{
closed = 1;
nodes = (
"378 -9 OFFCURVE",
"456 25 OFFCURVE",
"500 86 CURVE",
"410 177 LINE",
"389 142 OFFCURVE",
"355 116 OFFCURVE",
"303 115 CURVE SMOOTH",
"246 114 OFFCURVE",
"215 136 OFFCURVE",
"199 169 CURVE SMOOTH",
"188 192 OFFCURVE",
"183 217 OFFCURVE",
"183 257 CURVE SMOOTH",
"183 290 OFFCURVE",
"186 319 OFFCURVE",
"193 341 CURVE SMOOTH",
"206 378 OFFCURVE",
"232 399 OFFCURVE",
"274 399 CURVE SMOOTH",
"318 399 OFFCURVE",
"348 377 OFFCURVE",
"360 337 CURVE SMOOTH",
"365 318 OFFCURVE",
"368 290 OFFCURVE",
"368 261 CURVE",
"423 306 LINE",
"141 306 LINE",
"141 213 LINE",
"512 213 LINE",
"514 248 OFFCURVE",
"514 279 OFFCURVE",
"509 310 CURVE SMOOTH",
"491 435 OFFCURVE",
"410 523 OFFCURVE",
"273 523 CURVE SMOOTH",
"167 523 OFFCURVE",
"86 462 OFFCURVE",
"55 368 CURVE SMOOTH",
"44 337 OFFCURVE",
"39 300 OFFCURVE",
"40 262 CURVE SMOOTH",
"40 216 OFFCURVE",
"47 176 OFFCURVE",
"61 142 CURVE SMOOTH",
"95 50 OFFCURVE",
"175 -8 OFFCURVE",
"290 -8 CURVE SMOOTH"
);
}
);
width = 547;
},
{
anchors = (
{
name = bottom;
position = "{259, -8}";
},
{
name = ogonek;
position = "{472, 10}";
},
{
name = top;
position = "{262, 500}";
}
);
hints = (
{
horizontal = 1;
origin = "{0, 27}";
target = "{0, 26}";
type = Stem;
},
{
origin = "{0, 24}";
target = "{0, 28}";
type = Stem;
},
{
origin = "{0, 40}";
target = "{0, 12}";
type = Stem;
},
{
horizontal = 1;
origin = "{0, 46}";
target = "{0, 6}";
type = Stem;
},
{
horizontal = 1;
origin = "{0, 34}";
target = "{0, 18}";
type = Stem;
}
);
layerId = "262880E7-CFE1-4BDA-902E-E24798F3240A";
paths = (
{
closed = 1;
nodes = (
"354 -8 OFFCURVE",
"419 44 OFFCURVE",
"439 116 CURVE",
"417 117 LINE",
"398 56 OFFCURVE",
"342 13 OFFCURVE",
"263 13 CURVE SMOOTH",
"178 13 OFFCURVE",
"120 63 OFFCURVE",
"107 135 CURVE SMOOTH",
"103 156 OFFCURVE",
"103 193 OFFCURVE",
"103 250 CURVE SMOOTH",
"103 302 OFFCURVE",
"103 343 OFFCURVE",
"107 365 CURVE SMOOTH",
"120 436 OFFCURVE",
"178 487 OFFCURVE",
"263 487 CURVE SMOOTH",
"348 487 OFFCURVE",
"406 436 OFFCURVE",
"420 365 CURVE SMOOTH",
"424 345 OFFCURVE",
"425 302 OFFCURVE",
"425 258 CURVE",
"434 267 LINE",
"93 267 LINE",
"93 247 LINE",
"447 247 LINE",
"447 333 OFFCURVE",
"447 350 OFFCURVE",
"441 377 CURVE SMOOTH",
"424 454 OFFCURVE",
"356 508 OFFCURVE",
"263 508 CURVE SMOOTH",
"171 508 OFFCURVE",
"106 454 OFFCURVE",
"88 377 CURVE SMOOTH",
"81 345 OFFCURVE",
"81 310 OFFCURVE",
"81 251 CURVE SMOOTH",
"81 195 OFFCURVE",
"80 156 OFFCURVE",
"88 123 CURVE SMOOTH",
"107 46 OFFCURVE",
"171 -8 OFFCURVE",
"263 -8 CURVE SMOOTH"
);
}
);
width = 525;
},
{
anchors = (
{
name = top;
position = "{226, 498}";
}
);
associatedMasterId = "262880E7-CFE1-4BDA-902E-E24798F3240A";
layerId = "2EFA006A-DDA3-4D17-BF31-C40C040EE571";
name = "Feb 24 17, 00:11";
paths = (
{
closed = 1;
nodes = (
"307 -8 OFFCURVE",
"370 42 OFFCURVE",
"385 116 CURVE",
"364 115 LINE",
"348 54 OFFCURVE",
"293 13 OFFCURVE",
"227 13 CURVE SMOOTH",
"137 13 OFFCURVE",
"77 81 OFFCURVE",
"77 182 CURVE SMOOTH",
"77 318 LINE SMOOTH",
"77 419 OFFCURVE",
"137 487 OFFCURVE",
"226 487 CURVE SMOOTH",
"316 487 OFFCURVE",
"376 419 OFFCURVE",
"376 318 CURVE SMOOTH",
"376 267 LINE",
"67 267 LINE",
"67 246 LINE",
"398 246 LINE",
"398 316 LINE SMOOTH",
"398 431 OFFCURVE",
"329 508 OFFCURVE",
"226 508 CURVE SMOOTH",
"123 508 OFFCURVE",
"55 432 OFFCURVE",
"55 317 CURVE SMOOTH",
"55 183 LINE SMOOTH",
"55 68 OFFCURVE",
"124 -8 OFFCURVE",
"227 -8 CURVE SMOOTH"
);
}
);
width = 453;
},
{
anchors = (
{
name = bottom;
position = "{296, -10}";
},
{
name = ogonek;
position = "{497, 10}";
},
{
name = top;
position = "{275, 520}";
}
);
guideLines = (
{
position = "{832, 79}";
},
{
position = "{1490, 267}";
},
{
position = "{1232, 193}";
},
{
position = "{1620, 306}";
},
{
position = "{949, 113}";
}
);
layerId = "FFFA8D72-12AC-4CE0-B2CA-57A29829F4DA";
paths = (
{
closed = 1;
nodes = (
"383 -8 OFFCURVE",
"462 15 OFFCURVE",
"511 69 CURVE",
"416 190 LINE",
"396 165 OFFCURVE",
"359 148 OFFCURVE",
"316 148 CURVE SMOOTH",
"272 148 OFFCURVE",
"236 166 OFFCURVE",
"223 188 CURVE SMOOTH",
"212 206 OFFCURVE",
"210 230 OFFCURVE",
"210 258 CURVE SMOOTH",
"210 288 OFFCURVE",
"213 309 OFFCURVE",
"220 327 CURVE SMOOTH",
"230 352 OFFCURVE",
"248 367 OFFCURVE",
"277 367 CURVE SMOOTH",
"308 367 OFFCURVE",
"329 352 OFFCURVE",
"336 327 CURVE SMOOTH",
"341 310 OFFCURVE",
"346 290 OFFCURVE",
"346 262 CURVE",
"417 310 LINE",
"157 310 LINE",
"157 213 LINE",
"533 213 LINE",
"536 242 OFFCURVE",
"536 270 OFFCURVE",
"532 297 CURVE SMOOTH",
"512 429 OFFCURVE",
"409 528 OFFCURVE",
"278 528 CURVE SMOOTH",
"165 528 OFFCURVE",
"79 466 OFFCURVE",
"43 366 CURVE SMOOTH",
"31 333 OFFCURVE",
"25 295 OFFCURVE",
"25 254 CURVE SMOOTH",
"25 212 OFFCURVE",
"33 175 OFFCURVE",
"47 142 CURVE SMOOTH",
"87 47 OFFCURVE",
"177 -8 OFFCURVE",
"302 -8 CURVE SMOOTH"
);
}
);
width = 552;
},
{
anchors = (
{
name = bottom;
position = "{244, -7}";
},
{
name = ogonek;
position = "{431, 10}";
},
{
name = top;
position = "{240, 509}";
}
);
associatedMasterId = "4E2227F3-52E4-4048-A8EE-327B486EF0A4";
hints = (
{
place = "{2.063, 28.899}";
type = Stem;
},
{
place = "{150.309, 25.722}";
type = Stem;
},
{
horizontal = 1;
place = "{50.868, 28.535}";
type = Stem;
},
{
horizontal = 1;
place = "{218.464, 21.155}";
type = Stem;
},
{
horizontal = 1;
place = "{-0.701, 4.756}";
type = Stem;
},
{
place = "{285.106, -17.506}";
type = Stem;
}
);
layerId = "6A71C6C0-6498-4E03-A0EC-57F8322562B8";
name = "{100,400}";
paths = (
{
closed = 1;
nodes = (
"342 -8 OFFCURVE",
"408 43 OFFCURVE",
"431 128 CURVE",
"341 148 LINE",
"328 106 OFFCURVE",
"295 78 OFFCURVE",
"247 78 CURVE SMOOTH",
"194 78 OFFCURVE",
"159 111 OFFCURVE",
"152 159 CURVE SMOOTH",
"149 184 OFFCURVE",
"149 217 OFFCURVE",
"149 255 CURVE SMOOTH",
"149 291 OFFCURVE",
"149 323 OFFCURVE",
"152 350 CURVE SMOOTH",
"158 398 OFFCURVE",
"191 431 OFFCURVE",
"242 431 CURVE SMOOTH",
"292 431 OFFCURVE",
"326 397 OFFCURVE",
"332 349 CURVE SMOOTH",
"335 325 OFFCURVE",
"336 294 OFFCURVE",
"336 265 CURVE",
"372 289 LINE",
"119 289 LINE",
"119 209 LINE",
"436 209 LINE",
"436 248 OFFCURVE",
"436 307 OFFCURVE",
"433 345 CURVE SMOOTH",
"425 447 OFFCURVE",
"355 517 OFFCURVE",
"241 517 CURVE SMOOTH",
"137 517 OFFCURVE",
"66 454 OFFCURVE",
"54 361 CURVE SMOOTH",
"49 331 OFFCURVE",
"48 293 OFFCURVE",
"49 255 CURVE SMOOTH",
"49 212 OFFCURVE",
"50 174 OFFCURVE",
"57 139 CURVE SMOOTH",
"74 49 OFFCURVE",
"139 -8 OFFCURVE",
"246 -8 CURVE SMOOTH"
);
}
);
width = 479;
},
{
anchors = (
{
name = bottom;
position = "{259, -8}";
},
{
name = top;
position = "{262, 500}";
}
);
associatedMasterId = "262880E7-CFE1-4BDA-902E-E24798F3240A";
hints = (
{
horizontal = 1;
origin = "{0, 27}";
target = "{0, 26}";
type = Stem;
},
{
origin = "{0, 24}";
target = "{0, 28}";
type = Stem;
},
{
origin = "{0, 40}";
target = "{0, 12}";
type = Stem;
},
{
horizontal = 1;
origin = "{0, 46}";
target = "{0, 6}";
type = Stem;
},
{
horizontal = 1;
origin = "{0, 34}";
target = "{0, 18}";
type = Stem;
}
);
layerId = "7CC44197-52E2-415C-A2F7-9CC81F3B3C8A";
name = "Dec 5 17, 03:03";
paths = (
{
closed = 1;
nodes = (
"354 -8 OFFCURVE",
"419 44 OFFCURVE",
"439 116 CURVE",
"417 117 LINE",
"398 56 OFFCURVE",
"342 13 OFFCURVE",
"263 13 CURVE SMOOTH",
"178 13 OFFCURVE",
"120 63 OFFCURVE",
"107 135 CURVE SMOOTH",
"103 156 OFFCURVE",
"103 193 OFFCURVE",
"103 250 CURVE SMOOTH",
"103 302 OFFCURVE",
"103 343 OFFCURVE",
"107 365 CURVE SMOOTH",
"120 436 OFFCURVE",
"178 487 OFFCURVE",
"263 487 CURVE SMOOTH",
"348 487 OFFCURVE",
"406 436 OFFCURVE",
"420 365 CURVE SMOOTH",
"424 345 OFFCURVE",
"425 302 OFFCURVE",
"425 258 CURVE",
"434 267 LINE",
"93 267 LINE",
"93 247 LINE",
"447 247 LINE",
"447 333 OFFCURVE",
"447 350 OFFCURVE",
"441 377 CURVE SMOOTH",
"424 454 OFFCURVE",
"356 508 OFFCURVE",
"263 508 CURVE SMOOTH",
"171 508 OFFCURVE",
"106 454 OFFCURVE",
"88 377 CURVE SMOOTH",
"81 345 OFFCURVE",
"81 310 OFFCURVE",
"81 251 CURVE SMOOTH",
"81 195 OFFCURVE",
"80 156 OFFCURVE",
"88 123 CURVE SMOOTH",
"107 46 OFFCURVE",
"171 -8 OFFCURVE",
"263 -8 CURVE SMOOTH"
);
}
);
width = 525;
},
{
anchors = (
{
name = bottom;
position = "{264, -9}";
},
{
name = ogonek;
position = "{455, 10}";
},
{
name = top;
position = "{254, 520}";
}
);
associatedMasterId = "262880E7-CFE1-4BDA-902E-E24798F3240A";
layerId = "77539BFB-0A83-4960-9558-E507C43AA1DE";
name = "{188,400}";
paths = (
{
closed = 1;
nodes = (
"377 -8 OFFCURVE",
"452 48 OFFCURVE",
"484 156 CURVE",
"312 188 LINE",
"304 166 OFFCURVE",
"289 153 OFFCURVE",
"265 152 CURVE SMOOTH",
"239 151 OFFCURVE",
"224 164 OFFCURVE",
"217 186 CURVE SMOOTH",
"211 205 OFFCURVE",
"210 231 OFFCURVE",
"210 259 CURVE SMOOTH",
"210 287 OFFCURVE",
"211 310 OFFCURVE",
"215 331 CURVE SMOOTH",
"220 353 OFFCURVE",
"233 367 OFFCURVE",
"255 367 CURVE SMOOTH",
"277 367 OFFCURVE",
"291 353 OFFCURVE",
"295 331 CURVE SMOOTH",
"298 313 OFFCURVE",
"300 293 OFFCURVE",
"300 271 CURVE",
"367 308 LINE",
"158 308 LINE",
"158 213 LINE",
"488 213 LINE",
"489 232 OFFCURVE",
"489 281 OFFCURVE",
"487 324 CURVE SMOOTH",
"478 443 OFFCURVE",
"388 528 OFFCURVE",
"253 528 CURVE SMOOTH",
"130 528 OFFCURVE",
"45 457 OFFCURVE",
"28 349 CURVE SMOOTH",
"24 325 OFFCURVE",
"21 286 OFFCURVE",
"22 260 CURVE SMOOTH",
"22 223 OFFCURVE",
"25 190 OFFCURVE",
"32 160 CURVE SMOOTH",
"57 52 OFFCURVE",
"129 -8 OFFCURVE",
"266 -8 CURVE SMOOTH"
);
}
);
width = 506;
},
{
anchors = (
{
name = bottom;
position = "{259, -8}";
},
{
name = top;
position = "{262, 500}";
}
);
associatedMasterId = "262880E7-CFE1-4BDA-902E-E24798F3240A";
hints = (
{
horizontal = 1;
origin = "{0, 27}";
target = "{0, 26}";
type = Stem;
},
{
origin = "{0, 24}";
target = "{0, 28}";
type = Stem;
},
{
origin = "{0, 40}";
target = "{0, 12}";
type = Stem;
},
{
horizontal = 1;
origin = "{0, 46}";
target = "{0, 6}";
type = Stem;
},
{
horizontal = 1;
origin = "{0, 34}";
target = "{0, 18}";
type = Stem;
}
);
layerId = "A6FFD31F-04FC-4B82-B657-5B2E8C900C9B";
name = "Dec 5 17, 03:03";
paths = (
{
closed = 1;
nodes = (
"354 -8 OFFCURVE",
"419 44 OFFCURVE",
"439 116 CURVE",
"417 117 LINE",
"398 56 OFFCURVE",
"342 13 OFFCURVE",
"263 13 CURVE SMOOTH",
"178 13 OFFCURVE",
"120 63 OFFCURVE",
"107 135 CURVE SMOOTH",
"103 156 OFFCURVE",
"103 193 OFFCURVE",
"103 250 CURVE SMOOTH",
"103 302 OFFCURVE",
"103 343 OFFCURVE",
"107 365 CURVE SMOOTH",
"120 436 OFFCURVE",
"178 487 OFFCURVE",
"263 487 CURVE SMOOTH",
"348 487 OFFCURVE",
"406 436 OFFCURVE",
"420 365 CURVE SMOOTH",
"424 345 OFFCURVE",
"425 302 OFFCURVE",
"425 258 CURVE",
"434 267 LINE",
"93 267 LINE",
"93 247 LINE",
"447 247 LINE",
"447 333 OFFCURVE",
"447 350 OFFCURVE",
"441 377 CURVE SMOOTH",
"424 454 OFFCURVE",
"356 508 OFFCURVE",
"263 508 CURVE SMOOTH",
"171 508 OFFCURVE",
"106 454 OFFCURVE",
"88 377 CURVE SMOOTH",
"81 345 OFFCURVE",
"81 310 OFFCURVE",
"81 251 CURVE SMOOTH",
"81 195 OFFCURVE",
"80 156 OFFCURVE",
"88 123 CURVE SMOOTH",
"107 46 OFFCURVE",
"171 -8 OFFCURVE",
"263 -8 CURVE SMOOTH"
);
}
);
width = 525;
},
{
anchors = (
{
name = bottom;
position = "{233, -5}";
},
{
name = ogonek;
position = "{419, 10}";
},
{
name = top;
position = "{233, 504}";
}
);
associatedMasterId = "4E2227F3-52E4-4048-A8EE-327B486EF0A4";
hints = (
{
horizontal = 1;
origin = "{0, 27}";
target = "{0, 26}";
type = Stem;
},
{
origin = "{0, 24}";
target = "{0, 28}";
type = Stem;
},
{
origin = "{0, 40}";
target = "{0, 12}";
type = Stem;
},
{
horizontal = 1;
origin = "{0, 46}";
target = "{0, 6}";
type = Stem;
},
{
horizontal = 1;
origin = "{0, 34}";
target = "{0, 18}";
type = Stem;
}
);
layerId = "B9A583A1-7CC2-472E-97DA-5B156B5B5DEE";
name = "{53,400} Jan 10 18, 13:34";
paths = (
{
closed = 1;
nodes = (
"323 -8 OFFCURVE",
"385 42 OFFCURVE",
"403 118 CURVE",
"354 127 LINE",
"340 75 OFFCURVE",
"297 39 OFFCURVE",
"237 39 CURVE SMOOTH",
"170 39 OFFCURVE",
"125 82 OFFCURVE",
"118 145 CURVE SMOOTH",
"116 172 OFFCURVE",
"116 209 OFFCURVE",
"116 252 CURVE SMOOTH",
"116 293 OFFCURVE",
"116 330 OFFCURVE",
"118 359 CURVE SMOOTH",
"125 421 OFFCURVE",
"169 465 OFFCURVE",
"235 465 CURVE SMOOTH",
"300 465 OFFCURVE",
"345 421 OFFCURVE",
"352 359 CURVE SMOOTH",
"354 332 OFFCURVE",
"355 295 OFFCURVE",
"355 262 CURVE",
"375 277 LINE",
"99 277 LINE",
"99 232 LINE",
"408 232 LINE",
"408 285 OFFCURVE",
"408 325 OFFCURVE",
"405 360 CURVE SMOOTH",
"397 449 OFFCURVE",
"333 512 OFFCURVE",
"234 512 CURVE SMOOTH",
"142 512 OFFCURVE",
"77 452 OFFCURVE",
"67 367 CURVE SMOOTH",
"63 334 OFFCURVE",
"63 297 OFFCURVE",
"63 252 CURVE SMOOTH",
"63 207 OFFCURVE",
"63 168 OFFCURVE",
"69 132 CURVE SMOOTH",
"81 49 OFFCURVE",
"143 -8 OFFCURVE",
"236 -8 CURVE SMOOTH"
);
}
);
width = 465;
},
{
anchors = (
{
name = bottom;
position = "{194, 0}";
},
{
name = ogonek;
position = "{349, 10}";
},
{
name = top;
position = "{194, 500}";
}
);
associatedMasterId = "DCBE1F7B-116A-43E0-B7B4-8657BA77D8B5";
layerId = "E9BB31EC-A6F9-409B-96D6-4D1184DC26D9";
name = "Jan 10 18, 13:35";
paths = (
{
closed = 1;
nodes = (
"268 -8 OFFCURVE",
"320 40 OFFCURVE",
"330 109 CURVE",
"308 109 LINE",
"298 52 OFFCURVE",
"255 13 OFFCURVE",
"197 13 CURVE SMOOTH",
"131 13 OFFCURVE",
"85 63 OFFCURVE",
"85 135 CURVE SMOOTH",
"85 173 OFFCURVE",
"85 212 OFFCURVE",
"85 250 CURVE SMOOTH",
"85 288 OFFCURVE",
"85 327 OFFCURVE",
"85 365 CURVE SMOOTH",
"85 437 OFFCURVE",
"131 487 OFFCURVE",
"197 487 CURVE SMOOTH",
"264 487 OFFCURVE",
"310 437 OFFCURVE",
"310 365 CURVE SMOOTH",
"310 327 OFFCURVE",
"310 288 OFFCURVE",
"310 261 CURVE",
"319 267 LINE",
"77 267 LINE",
"77 247 LINE",
"332 247 LINE",
"332 287 OFFCURVE",
"332 327 OFFCURVE",
"332 365 CURVE SMOOTH",
"332 448 OFFCURVE",
"277 508 OFFCURVE",
"197 508 CURVE SMOOTH",
"118 508 OFFCURVE",
"63 448 OFFCURVE",
"63 365 CURVE SMOOTH",
"63 327 OFFCURVE",
"63 288 OFFCURVE",
"63 250 CURVE SMOOTH",
"63 212 OFFCURVE",
"63 173 OFFCURVE",
"63 135 CURVE SMOOTH",
"63 52 OFFCURVE",
"118 -8 OFFCURVE",
"197 -8 CURVE SMOOTH"
);
}
);
width = 388;
}
);
leftKerningGroup = o;
rightKerningGroup = e;
unicode = 0065;
},
{
glyphname = ezh;
layers = (
{
anchors = (
{
name = top;
position = "{236, 500}";
}
);
layerId = "DCBE1F7B-116A-43E0-B7B4-8657BA77D8B5";
paths = (
{
closed = 1;
nodes = (
"187 -243 OFFCURVE",
"403 -204 OFFCURVE",
"403 13 CURVE SMOOTH",
"403 146 OFFCURVE",
"321 236 OFFCURVE",
"115 223 CURVE",
"119 215 LINE",
"367 479 LINE",
"367 500 LINE",
"101 500 LINE",
"101 479 LINE",
"340 479 LINE",
"97 221 LINE",
"97 204 LINE",
"334 217 OFFCURVE",
"381 109 OFFCURVE",
"381 11 CURVE SMOOTH",
"381 -201 OFFCURVE",
"158 -213 OFFCURVE",
"65 -177 CURVE",
"63 -198 LINE"
);
}
);
width = 456;
},
{
anchors = (
{
name = top;
position = "{213, 520}";
}
);
layerId = "FFFA8D72-12AC-4CE0-B2CA-57A29829F4DA";
paths = (
{
closed = 1;
nodes = (
"258 -261 OFFCURVE",
"448 -147 OFFCURVE",
"448 30 CURVE SMOOTH",
"448 124 OFFCURVE",
"394 259 OFFCURVE",
"197 251 CURVE",
"213 202 LINE",
"413 360 LINE",
"413 520 LINE",
"21 520 LINE",
"21 350 LINE",
"199 350 LINE",
"33 225 LINE",
"108 119 LINE",
"182 186 OFFCURVE",
"260 125 OFFCURVE",
"260 49 CURVE SMOOTH",
"260 -33 OFFCURVE",
"168 -62 OFFCURVE",
"31 -18 CURVE",
"23 -184 LINE"
);
}
);
width = 471;
},
{
anchors = (
{
name = top;
position = "{183, 520}";
}
);
layerId = "4E2227F3-52E4-4048-A8EE-327B486EF0A4";
paths = (
{
closed = 1;
nodes = (
"235 -243 OFFCURVE",
"387 -108 OFFCURVE",
"387 47 CURVE SMOOTH",
"387 160 OFFCURVE",
"305 247 OFFCURVE",
"194 263 CURVE",
"188 204 LINE",
"358 350 LINE",
"358 520 LINE",
"18 520 LINE",
"18 350 LINE",
"147 350 LINE",
"21 250 LINE",
"79 127 LINE",
"141 187 OFFCURVE",
"199 132 OFFCURVE",
"199 62 CURVE SMOOTH",
"199 -44 OFFCURVE",
"87 -40 OFFCURVE",
"30 -8 CURVE",
"27 -174 LINE"
);
}
);
width = 399;
},
{
anchors = (
{
name = top;
position = "{280, 500}";
}
);
layerId = "262880E7-CFE1-4BDA-902E-E24798F3240A";
paths = (
{
closed = 1;
nodes = (
"295 -232 OFFCURVE",
"485 -166 OFFCURVE",
"485 29 CURVE SMOOTH",
"485 186 OFFCURVE",
"362 306 OFFCURVE",
"118 243 CURVE",
"123 235 LINE",
"433 479 LINE",
"433 500 LINE",
"82 500 LINE",
"82 479 LINE",
"401 479 LINE",
"97 241 LINE",
"97 224 LINE",
"374 287 OFFCURVE",
"464 157 OFFCURVE",
"464 29 CURVE SMOOTH",
"464 -163 OFFCURVE",
"268 -205 OFFCURVE",
"79 -149 CURVE",
"77 -168 LINE"
);
}
);
width = 563;
},
{
anchors = (
{
name = top;
position = "{248, 509}";
}
);
associatedMasterId = "FFFA8D72-12AC-4CE0-B2CA-57A29829F4DA";
layerId = "E2F40EC3-97F2-4742-AF5B-8D22F1BE2629";
name = "{100,500}";
paths = (
{
closed = 1;
nodes = (
"251 -242 OFFCURVE",
"467 -164 OFFCURVE",
"467 44 CURVE SMOOTH",
"467 167 OFFCURVE",
"392 291 OFFCURVE",
"154 273 CURVE",
"184 219 LINE",
"423 423 LINE",
"423 509 LINE",
"55 509 LINE",
"55 418 LINE",
"285 418 LINE",
"66 233 LINE",
"101 175 LINE",
"283 240 OFFCURVE",
"367 142 OFFCURVE",
"367 39 CURVE SMOOTH",
"367 -102 OFFCURVE",
"220 -138 OFFCURVE",
"56 -87 CURVE",
"51 -176 LINE"
);
}
);
width = 520;
},
{
anchors = (
{
name = top;
position = "{211, 509}";
}
);
associatedMasterId = "FFFA8D72-12AC-4CE0-B2CA-57A29829F4DA";
layerId = "09BBA6B8-2AC5-4141-9398-553614FAB229";
name = "{100,300}";
paths = (
{
closed = 1;
nodes = (
"210 -243 OFFCURVE",
"395 -159 OFFCURVE",
"395 29 CURVE SMOOTH",
"395 153 OFFCURVE",
"313 259 OFFCURVE",
"152 260 CURVE",
"161 210 LINE",
"363 418 LINE",
"363 509 LINE",
"42 509 LINE",
"42 418 LINE",
"239 418 LINE",
"61 235 LINE",
"89 168 LINE",
"243 203 OFFCURVE",
"295 120 OFFCURVE",
"295 35 CURVE SMOOTH",
"295 -127 OFFCURVE",
"125 -132 OFFCURVE",
"49 -98 CURVE",
"46 -187 LINE"
);
}
);
width = 429;
}
);
leftMetricsKey = "=g";
rightMetricsKey = "=g-10";
unicode = 0292;
},
{
color = 3;
glyphname = f;
layers = (
{
hints = (
{
horizontal = 1;
origin = "{1, 1}";
target = "{1, 0}";
type = Stem;
},
{
horizontal = 1;
origin = "{0, 5}";
target = "{0, 6}";
type = Stem;
},
{
origin = "{0, 10}";
target = "{0, 1}";
type = Stem;
}
);
layerId = "262880E7-CFE1-4BDA-902E-E24798F3240A";
paths = (
{
closed = 1;
nodes = (
"140 0 LINE",
"140 540 LINE SMOOTH",
"140 627 OFFCURVE",
"159 679 OFFCURVE",
"254 679 CURVE SMOOTH",
"285 679 LINE",
"285 700 LINE",
"254 700 LINE SMOOTH",
"146 700 OFFCURVE",
"119 640 OFFCURVE",
"119 540 CURVE SMOOTH",
"119 0 LINE"
);
},
{
closed = 1;
nodes = (
"280 479 LINE",
"280 500 LINE",
"40 500 LINE",
"40 479 LINE"
);
}
);
width = 335;
},
{
layerId = "4E2227F3-52E4-4048-A8EE-327B486EF0A4";
paths = (
{
closed = 1;
nodes = (
"241 0 LINE",
"241 539 LINE SMOOTH",
"241 557 OFFCURVE",
"254 572 OFFCURVE",
"278 575 CURVE",
"285 575 LINE",
"285 700 LINE",
"278 700 LINE",
"136 707 OFFCURVE",
"53 683 OFFCURVE",
"53 556 CURVE SMOOTH",
"53 0 LINE"
);
},
{
closed = 1;
nodes = (
"299 390 LINE",
"299 520 LINE",
"12 520 LINE",
"12 390 LINE"
);
}
);
width = 311;
},
{
layerId = "FFFA8D72-12AC-4CE0-B2CA-57A29829F4DA";
paths = (
{
closed = 1;
nodes = (
"279 0 LINE",
"279 539 LINE SMOOTH",
"279 562 OFFCURVE",
"289 572 OFFCURVE",
"316 575 CURVE",
"373 575 LINE",
"373 700 LINE",
"316 700 LINE",
"154 708 OFFCURVE",
"91 668 OFFCURVE",
"91 556 CURVE SMOOTH",
"91 0 LINE"
);
},
{
closed = 1;
nodes = (
"387 370 LINE",
"387 520 LINE",
"20 520 LINE",
"20 370 LINE"
);
}
);
width = 407;
},
{
layerId = "DCBE1F7B-116A-43E0-B7B4-8657BA77D8B5";
paths = (
{
closed = 1;
nodes = (
"116 0 LINE",
"116 550 LINE SMOOTH",
"116 637 OFFCURVE",
"129 689 OFFCURVE",
"199 689 CURVE SMOOTH",
"224 689 LINE",
"224 710 LINE",
"198 710 LINE SMOOTH",
"116 710 OFFCURVE",
"94 650 OFFCURVE",
"94 550 CURVE SMOOTH",
"94 0 LINE"
);
},
{
closed = 1;
nodes = (
"220 479 LINE",
"220 500 LINE",
"34 500 LINE",
"34 479 LINE"
);
}
);
width = 262;
},
{
associatedMasterId = "FFFA8D72-12AC-4CE0-B2CA-57A29829F4DA";
layerId = "2C93A357-82AB-483E-BCC8-F28359C8C182";
name = "{100,500}";
paths = (
{
closed = 1;
nodes = (
"212 0 LINE",
"212 524 LINE",
"212 593 OFFCURVE",
"231 613 OFFCURVE",
"296 613 CURVE SMOOTH",
"330 613 LINE",
"330 700 LINE",
"286 700 LINE SMOOTH",
"152 700 OFFCURVE",
"112 661 OFFCURVE",
"112 530 CURVE",
"112 0 LINE"
);
},
{
closed = 1;
nodes = (
"330 418 LINE",
"330 510 LINE",
"31 510 LINE",
"31 418 LINE"
);
}
);
width = 369;
},
{
associatedMasterId = "FFFA8D72-12AC-4CE0-B2CA-57A29829F4DA";
layerId = "4E721415-DD60-4F72-A196-6C5252F73DBA";
name = "{100,300}";
paths = (
{
closed = 1;
nodes = (
"174 0 LINE",
"174 535 LINE SMOOTH",
"174 594 OFFCURVE",
"193 620 OFFCURVE",
"236 620 CURVE SMOOTH",
"256 620 LINE",
"258 705 LINE",
"235 705 LINE SMOOTH",
"123 705 OFFCURVE",
"75 659 OFFCURVE",
"75 538 CURVE SMOOTH",
"75 0 LINE"
);
},
{
closed = 1;
nodes = (
"257 437 LINE",
"257 509 LINE",
"24 509 LINE",
"24 437 LINE"
);
}
);
width = 286;
}
);
leftKerningGroup = t;
unicode = 0066;
},
{
glyphname = g;
layers = (
{
anchors = (
{
name = top;
position = "{266, 500}";
}
);
hints = (
{
origin = "{0, 4}";
target = "{1, 17}";
type = Stem;
},
{
horizontal = 1;
place = "{-200, 21}";
type = Stem;
},
{
horizontal = 1;
place = "{500, -2147483648}";
type = Stem;
},
{
origin = "{0, 3}";
target = "{1, 17}";
type = Stem;
},
{
place = "{87, -2147483648}";
type = Stem;
},
{
horizontal = 1;
place = "{0, -2147483648}";
type = Stem;
},
{
horizontal = 1;
origin = "{1, 23}";
target = "{1, 23}";
type = Stem;
},
{
horizontal = 1;
origin = "{1, 11}";
target = "{1, 23}";
type = Stem;
},
{
origin = "{1, 17}";
target = "{1, 17}";
type = Stem;
}
);
layerId = "262880E7-CFE1-4BDA-902E-E24798F3240A";
paths = (
{
closed = 1;
nodes = (
"359 -206 OFFCURVE",
"433 -132 OFFCURVE",
"433 0 CURVE SMOOTH",
"433 500 LINE",
"411 500 LINE",
"411 0 LINE SMOOTH",
"411 -118 OFFCURVE",
"345 -184 OFFCURVE",
"192 -179 CURVE",
"192 -200 LINE"
);
},
{
closed = 1;
nodes = (
"348 -8 OFFCURVE",
"408 46 OFFCURVE",
"424 123 CURVE SMOOTH",
"431 156 OFFCURVE",
"430 195 OFFCURVE",
"430 251 CURVE",
"430 310 OFFCURVE",
"431 345 OFFCURVE",
"424 377 CURVE SMOOTH",
"407 454 OFFCURVE",
"348 508 OFFCURVE",
"259 508 CURVE SMOOTH",
"169 508 OFFCURVE",
"106 453 OFFCURVE",
"87 377 CURVE SMOOTH",
"79 345 OFFCURVE",
"77 304 OFFCURVE",
"77 248 CURVE SMOOTH",
"77 191 OFFCURVE",
"80 151 OFFCURVE",
"87 123 CURVE SMOOTH",
"106 46 OFFCURVE",
"169 -8 OFFCURVE",
"259 -8 CURVE SMOOTH"
);
},
{
closed = 1;
nodes = (
"179 13 OFFCURVE",
"122 67 OFFCURVE",
"107 135 CURVE SMOOTH",
"104 149 OFFCURVE",
"99 184 OFFCURVE",
"99 251 CURVE SMOOTH",
"99 318 OFFCURVE",
"102 345 OFFCURVE",
"107 365 CURVE SMOOTH",
"124 432 OFFCURVE",
"178 487 OFFCURVE",
"261 487 CURVE SMOOTH",
"344 487 OFFCURVE",
"397 432 OFFCURVE",
"407 365 CURVE SMOOTH",
"410 344 OFFCURVE",
"411 336 OFFCURVE",
"411 249 CURVE SMOOTH",
"411 162 OFFCURVE",
"410 154 OFFCURVE",
"407 135 CURVE SMOOTH",
"397 70 OFFCURVE",
"346 13 OFFCURVE",
"261 13 CURVE SMOOTH"
);
}
);
width = 521;
},
{
anchors = (
{
name = top;
position = "{232, 520}";
}
);
layerId = "4E2227F3-52E4-4048-A8EE-327B486EF0A4";
paths = (
{
closed = 1;
nodes = (
"385 -233 OFFCURVE",
"438 -115 OFFCURVE",
"438 34 CURVE SMOOTH",
"438 520 LINE",
"250 520 LINE",
"250 54 LINE SMOOTH",
"250 -14 OFFCURVE",
"243 -56 OFFCURVE",
"98 -45 CURVE",
"98 -207 LINE"
);
},
{
closed = 1;
nodes = (
"185 -8 OFFCURVE",
"282 -2 OFFCURVE",
"275 170 CURVE SMOOTH",
"275 175 OFFCURVE",
"275 241 OFFCURVE",
"275 260 CURVE",
"275 313 OFFCURVE",
"274 345 OFFCURVE",
"274 350 CURVE SMOOTH",
"273 519 OFFCURVE",
"190 528 OFFCURVE",
"155 528 CURVE SMOOTH",
"59 528 OFFCURVE",
"18 466 OFFCURVE",
"18 350 CURVE SMOOTH",
"18 350 OFFCURVE",
"18 284 OFFCURVE",
"18 260 CURVE",
"18 235 OFFCURVE",
"18 166 OFFCURVE",
"18 170 CURVE SMOOTH",
"18 60 OFFCURVE",
"55 -8 OFFCURVE",
"155 -8 CURVE SMOOTH"
);
},
{
closed = 1;
nodes = (
"214 153 OFFCURVE",
"206 166 OFFCURVE",
"206 185 CURVE SMOOTH",
"206 210 OFFCURVE",
"206 235 OFFCURVE",
"206 260 CURVE SMOOTH",
"206 285 OFFCURVE",
"206 310 OFFCURVE",
"206 335 CURVE SMOOTH",
"206 354 OFFCURVE",
"214 367 OFFCURVE",
"227 367 CURVE SMOOTH",
"241 367 OFFCURVE",
"250 354 OFFCURVE",
"250 335 CURVE SMOOTH",
"250 310 OFFCURVE",
"250 285 OFFCURVE",
"250 260 CURVE",
"250 235 OFFCURVE",
"250 210 OFFCURVE",
"250 185 CURVE SMOOTH",
"250 166 OFFCURVE",
"241 153 OFFCURVE",
"227 153 CURVE SMOOTH"
);
}
);
width = 460;
},
{
anchors = (
{
name = top;
position = "{299, 520}";
}
);
layerId = "FFFA8D72-12AC-4CE0-B2CA-57A29829F4DA";
paths = (
{
closed = 1;
nodes = (
"293 -217 OFFCURVE",
"536 -198 OFFCURVE",
"536 68 CURVE SMOOTH",
"536 520 LINE",
"348 520 LINE",
"348 65 LINE SMOOTH",
"348 -40 OFFCURVE",
"239 -49 OFFCURVE",
"135 -18 CURVE",
"127 -184 LINE"
);
},
{
closed = 1;
nodes = (
"369 18 OFFCURVE",
"380 110 OFFCURVE",
"390 211 CURVE SMOOTH",
"393 244 OFFCURVE",
"395 241 OFFCURVE",
"395 269 CURVE SMOOTH",
"395 289 OFFCURVE",
"394 305 OFFCURVE",
"392 327 CURVE SMOOTH",
"382 438 OFFCURVE",
"354 528 OFFCURVE",
"236 528 CURVE SMOOTH",
"145 528 OFFCURVE",
"74 473 OFFCURVE",
"42 391 CURVE SMOOTH",
"26 351 OFFCURVE",
"21 306 OFFCURVE",
"21 265 CURVE SMOOTH",
"21 234 OFFCURVE",
"24 189 OFFCURVE",
"38 148 CURVE SMOOTH",
"76 36 OFFCURVE",
"173 18 OFFCURVE",
"242 18 CURVE"
);
},
{
closed = 1;
nodes = (
"254 163 OFFCURVE",
"235 177 OFFCURVE",
"224 198 CURVE SMOOTH",
"215 215 OFFCURVE",
"211 238 OFFCURVE",
"211 263 CURVE SMOOTH",
"211 287 OFFCURVE",
"216 313 OFFCURVE",
"227 332 CURVE SMOOTH",
"238 353 OFFCURVE",
"255 367 OFFCURVE",
"280 367 CURVE SMOOTH",
"308 367 OFFCURVE",
"326 354 OFFCURVE",
"337 331 CURVE SMOOTH",
"345 313 OFFCURVE",
"348 293 OFFCURVE",
"348 266 CURVE SMOOTH",
"348 239 OFFCURVE",
"345 215 OFFCURVE",
"338 197 CURVE SMOOTH",
"328 176 OFFCURVE",
"311 163 OFFCURVE",
"282 163 CURVE SMOOTH"
);
}
);
width = 569;
},
{
anchors = (
{
name = top;
position = "{197, 500}";
}
);
layerId = "DCBE1F7B-116A-43E0-B7B4-8657BA77D8B5";
paths = (
{
closed = 1;
nodes = (
"276 -204 OFFCURVE",
"331 -130 OFFCURVE",
"331 0 CURVE SMOOTH",
"331 500 LINE",
"308 500 LINE",
"308 0 LINE SMOOTH",
"308 -117 OFFCURVE",
"262 -183 OFFCURVE",
"153 -179 CURVE",
"153 -200 LINE"
);
},
{
closed = 1;
nodes = (
"274 -8 OFFCURVE",
"324 52 OFFCURVE",
"324 135 CURVE SMOOTH",
"324 173 OFFCURVE",
"324 212 OFFCURVE",
"324 250 CURVE SMOOTH",
"324 288 OFFCURVE",
"324 327 OFFCURVE",
"324 365 CURVE SMOOTH",
"324 448 OFFCURVE",
"274 508 OFFCURVE",
"197 508 CURVE SMOOTH",
"117 508 OFFCURVE",
"63 448 OFFCURVE",
"63 365 CURVE SMOOTH",
"63 327 OFFCURVE",
"63 288 OFFCURVE",
"63 250 CURVE SMOOTH",
"63 212 OFFCURVE",
"63 173 OFFCURVE",
"63 135 CURVE SMOOTH",
"63 52 OFFCURVE",
"117 -8 OFFCURVE",
"197 -8 CURVE SMOOTH"
);
},
{
closed = 1;
nodes = (
"132 13 OFFCURVE",
"85 63 OFFCURVE",
"85 135 CURVE SMOOTH",
"85 173 OFFCURVE",
"85 212 OFFCURVE",
"85 250 CURVE SMOOTH",
"85 288 OFFCURVE",
"85 327 OFFCURVE",
"85 365 CURVE SMOOTH",
"85 437 OFFCURVE",
"132 487 OFFCURVE",
"199 487 CURVE SMOOTH",
"263 487 OFFCURVE",
"308 437 OFFCURVE",
"308 365 CURVE SMOOTH",
"308 327 OFFCURVE",
"308 288 OFFCURVE",
"308 250 CURVE SMOOTH",
"308 212 OFFCURVE",
"308 173 OFFCURVE",
"308 135 CURVE SMOOTH",
"308 63 OFFCURVE",
"263 13 OFFCURVE",
"199 13 CURVE SMOOTH"
);
}
);
width = 394;
},
{
anchors = (
{
name = top;
position = "{282, 509}";
}
);
associatedMasterId = "FFFA8D72-12AC-4CE0-B2CA-57A29829F4DA";
hints = (
{
origin = "{0, 4}";
target = "{1, 17}";
type = Stem;
},
{
horizontal = 1;
place = "{-106.024, 11.133}";
type = Stem;
},
{
horizontal = 1;
place = "{509, -2147483648}";
type = Stem;
},
{
origin = "{0, 3}";
target = "{1, 17}";
type = Stem;
},
{
place = "{66, -2147483648}";
type = Stem;
},
{
horizontal = 1;
place = "{31, -2147483648}";
type = Stem;
},
{
horizontal = 1;
origin = "{1, 23}";
target = "{1, 23}";
type = Stem;
},
{
horizontal = 1;
origin = "{1, 11}";
target = "{1, 23}";
type = Stem;
},
{
origin = "{1, 17}";
target = "{1, 17}";
type = Stem;
}
);
layerId = "0BDFE4D0-635C-422C-A6D6-8B6625469A4F";
name = "{100,500}";
paths = (
{
closed = 1;
nodes = (
"329 -212 OFFCURVE",
"481 -172 OFFCURVE",
"481 27 CURVE SMOOTH",
"481 509 LINE",
"381 509 LINE",
"381 31 LINE SMOOTH",
"381 -85 OFFCURVE",
"318 -115 OFFCURVE",
"170 -103 CURVE",
"166 -196 LINE"
);
},
{
closed = 1;
nodes = (
"382 0 OFFCURVE",
"416 93 OFFCURVE",
"429 181 CURVE SMOOTH",
"434 214 OFFCURVE",
"434 217 OFFCURVE",
"434 259 CURVE",
"434 300 OFFCURVE",
"434 326 OFFCURVE",
"429 354 CURVE SMOOTH",
"413 446 OFFCURVE",
"361 517 OFFCURVE",
"248 517 CURVE SMOOTH",
"158 517 OFFCURVE",
"91 462 OFFCURVE",
"66 384 CURVE SMOOTH",
"54 348 OFFCURVE",
"51 305 OFFCURVE",
"51 256 CURVE SMOOTH",
"51 211 OFFCURVE",
"54 169 OFFCURVE",
"64 135 CURVE SMOOTH",
"92 41 OFFCURVE",
"175 0 OFFCURVE",
"255 0 CURVE SMOOTH"
);
},
{
closed = 1;
nodes = (
"214 83 OFFCURVE",
"175 119 OFFCURVE",
"162 165 CURVE SMOOTH",
"156 180 OFFCURVE",
"152 209 OFFCURVE",
"152 257 CURVE SMOOTH",
"152 303 OFFCURVE",
"156 330 OFFCURVE",
"163 349 CURVE SMOOTH",
"178 395 OFFCURVE",
"214 431 OFFCURVE",
"270 431 CURVE SMOOTH",
"327 431 OFFCURVE",
"364 395 OFFCURVE",
"374 349 CURVE SMOOTH",
"379 329 OFFCURVE",
"381 316 OFFCURVE",
"381 257 CURVE SMOOTH",
"381 198 OFFCURVE",
"379 183 OFFCURVE",
"375 164 CURVE SMOOTH",
"365 120 OFFCURVE",
"330 83 OFFCURVE",
"271 83 CURVE SMOOTH"
);
}
);
width = 544;
},
{
anchors = (
{
name = top;
position = "{213, 509}";
}
);
associatedMasterId = "FFFA8D72-12AC-4CE0-B2CA-57A29829F4DA";
layerId = "BED7CD07-10CC-47CF-B4CD-7EED2CD8E392";
name = "{100,300}";
paths = (
{
closed = 1;
nodes = (
"327 -218 OFFCURVE",
"381 -123 OFFCURVE",
"381 16 CURVE SMOOTH",
"381 509 LINE",
"281 509 LINE",
"281 25 LINE SMOOTH",
"281 -69 OFFCURVE",
"253 -123 OFFCURVE",
"127 -116 CURVE",
"127 -203 LINE"
);
},
{
closed = 1;
nodes = (
"238 0 OFFCURVE",
"306 35 OFFCURVE",
"306 159 CURVE SMOOTH",
"306 182 OFFCURVE",
"306 226 OFFCURVE",
"306 255 CURVE SMOOTH",
"306 300 OFFCURVE",
"306 335 OFFCURVE",
"306 358 CURVE SMOOTH",
"306 481 OFFCURVE",
"241 517 OFFCURVE",
"179 517 CURVE SMOOTH",
"92 517 OFFCURVE",
"42 456 OFFCURVE",
"42 358 CURVE SMOOTH",
"42 338 OFFCURVE",
"42 286 OFFCURVE",
"42 255 CURVE SMOOTH",
"42 223 OFFCURVE",
"42 178 OFFCURVE",
"42 159 CURVE SMOOTH",
"42 64 OFFCURVE",
"90 0 OFFCURVE",
"179 0 CURVE SMOOTH"
);
},
{
closed = 1;
nodes = (
"171 87 OFFCURVE",
"142 119 OFFCURVE",
"142 166 CURVE SMOOTH",
"142 198 OFFCURVE",
"142 223 OFFCURVE",
"142 255 CURVE SMOOTH",
"142 287 OFFCURVE",
"142 319 OFFCURVE",
"142 351 CURVE SMOOTH",
"142 398 OFFCURVE",
"171 431 OFFCURVE",
"212 431 CURVE SMOOTH",
"253 431 OFFCURVE",
"281 398 OFFCURVE",
"281 351 CURVE SMOOTH",
"281 319 OFFCURVE",
"281 287 OFFCURVE",
"281 255 CURVE SMOOTH",
"281 223 OFFCURVE",
"281 198 OFFCURVE",
"281 166 CURVE SMOOTH",
"281 119 OFFCURVE",
"253 87 OFFCURVE",
"212 87 CURVE SMOOTH"
);
}
);
width = 425;
}
);
leftKerningGroup = d;
rightKerningGroup = g;
unicode = 0067;
},
{
glyphname = h;
layers = (
{
anchors = (
{
name = shortstroke;
position = "{167, 547}";
}
);
components = (
{
name = n.curve;
transform = "{1, 0, 0, 1, 103, 0}";
}
);
hints = (
{
origin = "{0, 2}";
target = "{0, 1}";
type = Stem;
}
);
layerId = "262880E7-CFE1-4BDA-902E-E24798F3240A";
paths = (
{
closed = 1;
nodes = (
"121 0 LINE",
"121 700 LINE",
"99 700 LINE",
"99 0 LINE"
);
}
);
width = 534;
},
{
anchors = (
{
name = shortstroke;
position = "{133, 546}";
}
);
components = (
{
name = n.curve;
transform = "{1, 0, 0, 1, 174, 0}";
}
);
layerId = "4E2227F3-52E4-4048-A8EE-327B486EF0A4";
paths = (
{
closed = 1;
nodes = (
"210 0 LINE",
"210 700 LINE",
"22 700 LINE",
"22 0 LINE"
);
}
);
width = 462;
},
{
anchors = (
{
name = shortstroke;
position = "{166, 543}";
}
);
components = (
{
name = n.curve;
transform = "{1, 0, 0, 1, 182, 0}";
}
);
layerId = "FFFA8D72-12AC-4CE0-B2CA-57A29829F4DA";
paths = (
{
closed = 1;
nodes = (
"221 0 LINE",
"221 700 LINE",
"33 700 LINE",
"33 0 LINE"
);
}
);
width = 552;
},
{
anchors = (
{
name = shortstroke;
position = "{145, 547}";
}
);
components = (
{
name = n.curve;
transform = "{1, 0, 0, 1, 84, 0}";
}
);
layerId = "DCBE1F7B-116A-43E0-B7B4-8657BA77D8B5";
paths = (
{
closed = 1;
nodes = (
"99 0 LINE",
"99 700 LINE",
"77 700 LINE",
"77 0 LINE"
);
}
);
width = 408;
}
);
leftKerningGroup = b;
rightKerningGroup = n;
unicode = 0068;
},
{
glyphname = i;
layers = (
{
anchors = (
{
name = bottom;
position = "{128, 0}";
},
{
name = top;
position = "{128, 500}";
}
);
components = (
{
name = dotaccentcomb;
transform = "{1, 0, 0, 1, 86, 0}";
}
);
hints = (
{
place = "{114, -2147483648}";
type = Stem;
}
);
layerId = "262880E7-CFE1-4BDA-902E-E24798F3240A";
paths = (
{
closed = 1;
nodes = (
"136 1 LINE",
"136 501 LINE",
"114 501 LINE",
"114 1 LINE"
);
}
);
width = 256;
},
{
anchors = (
{
name = bottom;
position = "{113, 0}";
},
{
name = top;
position = "{114, 520}";
}
);
components = (
{
name = dotaccentcomb;
transform = "{1, 0, 0, 1, 7, 0}";
}
);
layerId = "4E2227F3-52E4-4048-A8EE-327B486EF0A4";
paths = (
{
closed = 1;
nodes = (
"208 0 LINE",
"208 520 LINE",
"20 520 LINE",
"20 0 LINE"
);
}
);
width = 226;
},
{
anchors = (
{
name = bottom;
position = "{127, 0}";
},
{
name = top;
position = "{127, 520}";
}
);
components = (
{
name = dotaccentcomb;
transform = "{1, 0, 0, 1, 23, 0}";
}
);
layerId = "FFFA8D72-12AC-4CE0-B2CA-57A29829F4DA";
paths = (
{
closed = 1;
nodes = (
"221 0 LINE",
"221 520 LINE",
"33 520 LINE",
"33 0 LINE"
);
}
);
width = 254;
},
{
anchors = (
{
name = bottom;
position = "{100, 0}";
},
{
name = top;
position = "{100, 500}";
}
);
components = (
{
name = dotaccentcomb;
transform = "{1, 0, 0, 1, 58, 0}";
}
);
layerId = "DCBE1F7B-116A-43E0-B7B4-8657BA77D8B5";
paths = (
{
closed = 1;
nodes = (
"111 0 LINE",
"111 500 LINE",
"89 500 LINE",
"89 0 LINE"
);
}
);
width = 200;
}
);
leftKerningGroup = i;
unicode = 0069;
},
{
glyphname = idotless;
layers = (
{
anchors = (
{
name = top;
position = "{97, 500}";
}
);
hints = (
{
origin = "{0, 2}";
target = "{0, 1}";
type = Stem;
}
);
layerId = "262880E7-CFE1-4BDA-902E-E24798F3240A";
paths = (
{
closed = 1;
nodes = (
"108 0 LINE",
"108 500 LINE",
"86 500 LINE",
"86 0 LINE"
);
}
);
width = 194;
},
{
anchors = (
{
name = top;
position = "{127, 520}";
}
);
layerId = "FFFA8D72-12AC-4CE0-B2CA-57A29829F4DA";
paths = (
{
closed = 1;
nodes = (
"221 0 LINE",
"221 520 LINE",
"33 520 LINE",
"33 0 LINE"
);
}
);
width = 254;
},
{
anchors = (
{
name = top;
position = "{77, 500}";
}
);
layerId = "DCBE1F7B-116A-43E0-B7B4-8657BA77D8B5";
paths = (
{
closed = 1;
nodes = (
"88 0 LINE",
"88 500 LINE",
"66 500 LINE",
"66 0 LINE"
);
}
);
width = 154;
},
{
anchors = (
{
name = top;
position = "{102, 520}";
}
);
layerId = "4E2227F3-52E4-4048-A8EE-327B486EF0A4";
paths = (
{
closed = 1;
nodes = (
"196 0 LINE",
"196 520 LINE",
"8 520 LINE",
"8 0 LINE"
);
}
);
width = 204;
}
);
unicode = 0131;
},
{
glyphname = j;
layers = (
{
anchors = (
{
name = top;
position = "{110, 500}";
}
);
components = (
{
name = dotaccentcomb;
transform = "{1, 0, 0, 1, 69, 0}";
}
);
hints = (
{
place = "{99, -2147483648}";
type = Stem;
},
{
horizontal = 1;
place = "{-211, -2147483648}";
type = Stem;
}
);
layerId = "262880E7-CFE1-4BDA-902E-E24798F3240A";
paths = (
{
closed = 1;
nodes = (
"68 -211 OFFCURVE",
"121 -159 OFFCURVE",
"121 -74 CURVE SMOOTH",
"121 500 LINE",
"99 500 LINE",
"99 -74 LINE SMOOTH",
"99 -146 OFFCURVE",
"55 -190 OFFCURVE",
"-18 -190 CURVE",
"-18 -211 LINE"
);
}
);
width = 239;
},
{
anchors = (
{
name = top;
position = "{116, 520}";
}
);
components = (
{
name = dotaccentcomb;
transform = "{1, 0, 0, 1, 11, 0}";
}
);
layerId = "4E2227F3-52E4-4048-A8EE-327B486EF0A4";
paths = (
{
closed = 1;
nodes = (
"205 -210 OFFCURVE",
"210 -120 OFFCURVE",
"210 29 CURVE SMOOTH",
"210 520 LINE",
"22 520 LINE",
"22 29 LINE SMOOTH",
"22 -19 OFFCURVE",
"7 -49 OFFCURVE",
"-74 -41 CURVE",
"-74 -201 LINE"
);
}
);
width = 228;
},
{
anchors = (
{
name = top;
position = "{137, 520}";
}
);
components = (
{
name = dotaccentcomb;
transform = "{1, 0, 0, 1, 29, 0}";
}
);
layerId = "FFFA8D72-12AC-4CE0-B2CA-57A29829F4DA";
paths = (
{
closed = 1;
nodes = (
"170 -209 OFFCURVE",
"228 -163 OFFCURVE",
"228 29 CURVE SMOOTH",
"228 520 LINE",
"40 520 LINE",
"43 26 LINE SMOOTH",
"43 -38 OFFCURVE",
"19 -52 OFFCURVE",
"-76 -44 CURVE",
"-76 -201 LINE"
);
}
);
width = 260;
},
{
anchors = (
{
name = top;
position = "{88, 500}";
}
);
components = (
{
name = dotaccentcomb;
transform = "{1, 0, 0, 1, 46, 0}";
}
);
layerId = "DCBE1F7B-116A-43E0-B7B4-8657BA77D8B5";
paths = (
{
closed = 1;
nodes = (
"60 -211 OFFCURVE",
"99 -159 OFFCURVE",
"99 -74 CURVE SMOOTH",
"99 500 LINE",
"77 500 LINE",
"77 -74 LINE SMOOTH",
"77 -146 OFFCURVE",
"45 -190 OFFCURVE",
"-11 -190 CURVE",
"-11 -211 LINE"
);
}
);
width = 188;
}
);
leftKerningGroup = j;
rightMetricsKey = "=i";
unicode = 006A;
},
{
glyphname = jdotless;
layers = (
{
anchors = (
{
name = top;
position = "{88, 500}";
}
);
layerId = "DCBE1F7B-116A-43E0-B7B4-8657BA77D8B5";
paths = (
{
closed = 1;
nodes = (
"60 -211 OFFCURVE",
"99 -159 OFFCURVE",
"99 -74 CURVE SMOOTH",
"99 500 LINE",
"77 500 LINE",
"77 -74 LINE SMOOTH",
"77 -146 OFFCURVE",
"45 -190 OFFCURVE",
"-11 -190 CURVE",
"-11 -211 LINE"
);
}
);
width = 184;
},
{
anchors = (
{
name = top;
position = "{116, 520}";
}
);
layerId = "4E2227F3-52E4-4048-A8EE-327B486EF0A4";
paths = (
{
closed = 1;
nodes = (
"205 -210 OFFCURVE",
"210 -120 OFFCURVE",
"210 29 CURVE SMOOTH",
"210 520 LINE",
"22 520 LINE",
"22 29 LINE SMOOTH",
"22 -19 OFFCURVE",
"7 -49 OFFCURVE",
"-74 -41 CURVE",
"-74 -201 LINE"
);
}
);
width = 233;
},
{
anchors = (
{
name = top;
position = "{110, 500}";
}
);
hints = (
{
origin = "{0, 4}";
target = "{0, 3}";
type = Stem;
},
{
horizontal = 1;
origin = "{0, 9}";
target = "{0, 8}";
type = Stem;
}
);
layerId = "262880E7-CFE1-4BDA-902E-E24798F3240A";
paths = (
{
closed = 1;
nodes = (
"68 -211 OFFCURVE",
"121 -159 OFFCURVE",
"121 -74 CURVE SMOOTH",
"121 500 LINE",
"99 500 LINE",
"99 -74 LINE SMOOTH",
"99 -146 OFFCURVE",
"55 -190 OFFCURVE",
"-18 -190 CURVE",
"-18 -211 LINE"
);
}
);
width = 230;
},
{
anchors = (
{
name = top;
position = "{137, 520}";
}
);
layerId = "FFFA8D72-12AC-4CE0-B2CA-57A29829F4DA";
paths = (
{
closed = 1;
nodes = (
"170 -209 OFFCURVE",
"231 -163 OFFCURVE",
"231 29 CURVE SMOOTH",
"231 520 LINE",
"40 520 LINE",
"43 26 LINE SMOOTH",
"43 -38 OFFCURVE",
"19 -52 OFFCURVE",
"-76 -44 CURVE",
"-76 -201 LINE"
);
}
);
width = 268;
}
);
unicode = 0237;
},
{
glyphname = k;
layers = (
{
anchors = (
{
name = bottom;
position = "{262, 0}";
}
);
guideLines = (
{
angle = 180;
position = "{281, 0}";
showMeasurement = 1;
}
);
hints = (
{
origin = "{0, 11}";
target = "{0, 0}";
type = Stem;
}
);
layerId = "262880E7-CFE1-4BDA-902E-E24798F3240A";
paths = (
{
closed = 1;
nodes = (
"121 0 LINE",
"121 198 LINE",
"269 345 LINE",
"421 0 LINE",
"445 0 LINE",
"285 361 LINE",
"425 500 LINE",
"395 500 LINE",
"121 226 LINE",
"121 700 LINE",
"99 700 LINE",
"99 0 LINE"
);
}
);
width = 478;
},
{
anchors = (
{
name = bottom;
position = "{242, 0}";
}
);
layerId = "4E2227F3-52E4-4048-A8EE-327B486EF0A4";
paths = (
{
closed = 1;
nodes = (
"210 0 LINE",
"210 136 LINE",
"222 165 LINE",
"275 0 LINE",
"469 0 LINE",
"338 315 LINE",
"463 520 LINE",
"268 520 LINE",
"210 390 LINE",
"210 700 LINE",
"22 700 LINE",
"22 0 LINE"
);
}
);
width = 479;
},
{
anchors = (
{
name = bottom;
position = "{282, 0}";
}
);
layerId = "FFFA8D72-12AC-4CE0-B2CA-57A29829F4DA";
paths = (
{
closed = 1;
nodes = (
"221 0 LINE",
"221 146 LINE",
"260 211 LINE",
"349 0 LINE",
"547 0 LINE",
"389 325 LINE",
"533 520 LINE",
"319 520 LINE",
"221 388 LINE",
"221 700 LINE",
"33 700 LINE",
"33 0 LINE"
);
}
);
width = 555;
},
{
anchors = (
{
name = bottom;
position = "{202, 0}";
}
);
guideLines = (
{
angle = 180;
position = "{283, 0}";
showMeasurement = 1;
}
);
layerId = "DCBE1F7B-116A-43E0-B7B4-8657BA77D8B5";
paths = (
{
closed = 1;
nodes = (
"99 0 LINE",
"99 200 LINE",
"207 345 LINE",
"318 0 LINE",
"342 0 LINE",
"222 363 LINE",
"326 500 LINE",
"300 500 LINE",
"99 232 LINE",
"99 700 LINE",
"77 700 LINE",
"77 0 LINE"
);
}
);
width = 374;
}
);
leftKerningGroup = b;
rightKerningGroup = k;
unicode = 006B;
},
